<?xml version="1.0" encoding="UTF-8"?>
<svg id="Knight" xmlns="http://www.w3.org/2000/svg" version="1.1" xmlns:xlink="http://www.w3.org/1999/xlink" viewBox="0 0 98 134">
  <!-- Generator: Adobe Illustrator 29.8.1, SVG Export Plug-In . SVG Version: 2.1.1 Build 2)  -->
  <defs>
    <style>
      .st0 {
        fill: #8d8f90;
      }

      .st1 {
        opacity: .6;
      }

      .st1, .st2, .st3, .st4, .st5, .st6 {
        isolation: isolate;
      }

      .st1, .st3, .st7 {
        fill: #6b737c;
      }

      .st2 {
        fill: #624f3b;
        opacity: .7;
      }

      .st3, .st5 {
        opacity: .3;
      }

      .st8 {
        fill: #50565d;
      }

      .st9, .st6 {
        fill: #8e99a5;
      }

      .st10 {
        fill: #fff;
      }

      .st11, .st12 {
        fill: none;
      }

      .st13 {
        fill: #e5e5e5;
      }

      .st14 {
        fill: #937659;
      }

      .st15 {
        clip-path: url(#clippath-1);
      }

      .st16 {
        fill: #bcbec0;
      }

      .st17 {
        fill: #231f20;
      }

      .st12 {
        stroke: #000;
        stroke-miterlimit: 10;
        stroke-width: 2px;
      }

      .st18 {
        fill: #414042;
      }

      .st19 {
        fill: #d88252;
      }

      .st5 {
        fill: #bbc2c9;
      }

      .st20 {
        clip-path: url(#clippath-2);
      }

      .st21 {
        clip-path: url(#clippath);
      }

      .st6 {
        opacity: .4;
      }

      .st22 {
        fill: #c49d76;
      }
    </style>
    <clipPath id="clippath">
      <rect class="st11" x="11" y="9" width="76" height="114"/>
    </clipPath>
    <clipPath id="clippath-1">
      <path class="st11" d="M73.69,101.59h-12.48l13.55-6.17v-3.05l-17.52-8.3-2.62,2.62,12.69,6.6-18.49,8.71-18.49-8.71,12.69-6.6-2.62-2.62-17.52,8.3v3.05l13.55,6.17h-16.4v10.67s9.99,21.65,28.75,26.67v.02s.03,0,.05,0c.02,0,.03,0,.05,0v-.02c18.76-5.02,28.75-26.67,28.75-26.67v-10.67h-3.94Z"/>
    </clipPath>
    <clipPath id="clippath-2">
      <path class="st11" d="M68.12,117.67l-7.69-11.2h-23.23l-7.69,11.2c7.07,10.2,18.02,15.84,19.24,16.45v.06s.02,0,.06-.03c.04.02.06.03.06.03v-.06c1.22-.61,12.17-6.25,19.24-16.45h0Z"/>
    </clipPath>
  </defs>
  <path class="st12" d="M83.2,4H14.8c-5.98,0-10.8,4.82-10.8,10.8v104.4c0,5.98,4.82,10.8,10.8,10.8h68.4c5.98,0,10.8-4.82,10.8-10.8V14.8c0-5.98-4.82-10.8-10.8-10.8h0Z"/>
  <rect class="st13" x="7.6" y="7.6" width="82.8" height="118.8" rx="2" ry="2"/>
  <g>
    <rect class="st19" x="11" y="9" width="76" height="114"/>
    <g class="st21">
      <g>
        <rect class="st8" x="6" y="104" width="84" height="26"/>
        <g>
          <circle class="st7" cx="76.5" cy="71.51" r="4.37"/>
          <path class="st7" d="M71.38,91.28l5.23-17.02-2.46-1.18-11.06,18.02s2.09,6.24,8.28.18h0Z"/>
        </g>
        <g>
          <g>
            <path class="st17" d="M48.85,82.48h-.12c-15.65.28-28.71,4.81-28.71,4.81v24.97s9.98,21.61,28.7,26.66v.04s.05,0,.07-.02c.02,0,.05,0,.07.02v-.04c18.72-5.04,28.7-26.66,28.7-26.66v-24.97s-13.06-4.52-28.71-4.8h0Z"/>
            <g>
              <path class="st9" d="M73.69,101.59h-12.48l13.55-6.17v-3.05l-17.52-8.3-2.62,2.62,12.69,6.6-18.49,8.71-18.49-8.71,12.69-6.6-2.62-2.62-17.52,8.3v3.05l13.55,6.17h-16.4v10.67s9.99,21.65,28.75,26.67v.02s.03,0,.05,0c.02,0,.03,0,.05,0v-.02c18.76-5.02,28.75-26.67,28.75-26.67v-10.67h-3.94Z"/>
              <g class="st15">
                <path class="st7" d="M48.85,82.48h-.3v56.37c.06.02.11.03.17.05v.04s.05,0,.07-.02c.02,0,.05,0,.07.02v-.04c18.72-5.04,28.7-26.66,28.7-26.66v-24.97s-13.06-4.52-28.71-4.8h0Z"/>
              </g>
            </g>
            <path class="st22" d="M48.85,139c-4.3-1.14-8.49-3.25-12.46-6.28-3.18-2.42-6.22-5.44-9.04-8.95-4.81-5.99-7.35-11.44-7.37-11.49l.1-.05c.03.05,2.56,5.5,7.36,11.47,2.82,3.51,5.85,6.52,9.02,8.93,3.96,3.02,8.14,5.13,12.42,6.26l-.03.11Z"/>
            <g>
              <path class="st22" d="M68.12,117.67l-7.69-11.2h-23.23l-7.69,11.2c7.07,10.2,18.02,15.84,19.24,16.45v.06s.02,0,.06-.03c.04.02.06.03.06.03v-.06c1.22-.61,12.17-6.25,19.24-16.45h0Z"/>
              <g class="st20">
                <rect class="st14" x="48.5" y="92" width="25" height="57"/>
              </g>
            </g>
          </g>
          <g>
            <g>
              <path class="st9" d="M3.66,112.81s-1.01-10.59,3.1-17.47c4.11-6.88,10.93-9.58,19.02-9.58,0,0-.2,10.05,2.09,16.59,2.29,6.54,4.32,10.99-6.07,11.67-10.39.67-18.14-1.21-18.14-1.21Z"/>
              <path class="st6" d="M27.87,102.36c-2.29-6.54-2.09-16.59-2.09-16.59-1.42,0-2.81.09-4.14.26.23.66.4,1.34.53,2.02.31,1.63.37,3.29.35,4.94-.02,1.54-.14,3.08-.37,4.6-.24,1.61-.6,3.21-1.18,4.73-.55,1.46-1.31,2.87-2.36,4.03-.46.51-.98.98-1.56,1.36-.47.31-.98.57-1.5.79-1.17.5-2.43.8-3.69.95-1.31.16-2.64.16-3.94-.03-1.2-.18-2.4-.54-3.44-1.18-.31-.19-.61-.42-.88-.66-.16,3.04.05,5.23.05,5.23,0,0,7.76,1.89,18.14,1.21,10.39-.67,8.36-5.13,6.07-11.67h.01Z"/>
            </g>
            <g>
              <path class="st14" d="M25.7,82.08c.59-.02,1.22.62,1.23,1.22.06,3.96.48,7.93,1.41,11.78.93,3.89,2.68,7.5,3.64,11.37.53,2.14,1.04,4.85-.18,6.85-.91,1.49-2.6,2.13-4.25,2.35-5.22.7-10.51.6-15.77.46-2.28-.06-4.56-.06-6.84-.18-1.36-.07-3.33-.34-3.52-2.02,0-.06,0-.13,0-.19-.11-3.2,5.41-1.86,7.2-1.71,3.79.3,7.61.48,11.41.25,1.61-.1,3.24-.26,4.81-.65,2.78-.68,3.33-2.49,2.63-5.07-1.01-3.72-2.5-7.19-2.91-11.07-.42-3.94-.55-8.4.26-12.29.05-.26.12-.53.28-.75.17-.23.39-.34.61-.34h0Z"/>
              <path class="st2" d="M31.98,106.45c-.45-1.81-1.08-3.57-1.71-5.32.48,1.36.93,2.72,1.28,4.12.54,2.15,1.04,4.88-.18,6.89-.91,1.5-2.61,2.14-4.28,2.36-5.25.71-10.57.6-15.86.46-2.29-.06-4.59-.06-6.88-.18-.95-.05-2.19-.2-2.93-.85.21,1.66,2.16,1.93,3.52,2,2.27.12,4.56.12,6.84.18,5.26.14,10.54.25,15.77-.46,1.65-.22,3.34-.86,4.25-2.35,1.22-2,.71-4.71.18-6.85Z"/>
            </g>
          </g>
          <g>
            <g>
              <path class="st9" d="M94.34,112.81s1.01-10.59-3.1-17.47c-4.11-6.88-10.93-9.58-19.02-9.58,0,0,.2,10.05-2.09,16.59-2.29,6.54-4.32,10.99,6.07,11.67,10.39.67,18.14-1.21,18.14-1.21Z"/>
              <path class="st6" d="M70.13,102.36c2.29-6.54,2.09-16.59,2.09-16.59,1.42,0,2.81.09,4.14.26-.23.66-.4,1.34-.53,2.02-.31,1.63-.37,3.29-.35,4.94.02,1.54.14,3.08.37,4.6.24,1.61.6,3.21,1.18,4.73.55,1.46,1.31,2.87,2.36,4.03.46.51.98.98,1.56,1.36.47.31.98.57,1.5.79,1.17.5,2.43.8,3.69.95,1.31.16,2.64.16,3.94-.03,1.2-.18,2.4-.54,3.44-1.18.31-.19.61-.42.88-.66.16,3.04-.05,5.23-.05,5.23,0,0-7.76,1.89-18.14,1.21-10.39-.67-8.36-5.13-6.07-11.67h-.01Z"/>
            </g>
            <g>
              <path class="st22" d="M72.3,82.08c-.59-.02-1.22.62-1.23,1.22-.06,3.96-.48,7.93-1.4,11.78-.93,3.89-2.68,7.5-3.64,11.37-.53,2.14-1.04,4.85.18,6.85.91,1.49,2.6,2.13,4.25,2.35,5.22.7,10.51.6,15.77.46,2.28-.06,4.56-.06,6.84-.18,1.36-.07,3.33-.34,3.52-2.02,0-.06.01-.13.01-.19.11-3.2-5.41-1.86-7.2-1.71-3.79.3-7.61.48-11.41.25-1.61-.1-3.24-.26-4.81-.65-2.78-.68-3.33-2.49-2.63-5.07,1.01-3.72,2.5-7.19,2.91-11.07.42-3.94.55-8.4-.26-12.29-.05-.26-.12-.53-.28-.75-.17-.23-.39-.34-.61-.34h0Z"/>
              <path class="st2" d="M66.02,106.45c.45-1.81,1.08-3.57,1.71-5.32-.48,1.36-.93,2.72-1.28,4.12-.54,2.15-1.04,4.88.18,6.89.91,1.5,2.61,2.14,4.28,2.36,5.25.71,10.57.6,15.86.46,2.29-.06,4.59-.06,6.88-.18.95-.05,2.19-.2,2.93-.85-.21,1.66-2.16,1.93-3.52,2-2.27.12-4.56.12-6.84.18-5.26.14-10.54.25-15.77-.46-1.65-.22-3.34-.86-4.25-2.35-1.22-2-.71-4.71-.18-6.85Z"/>
            </g>
          </g>
          <g>
            <path class="st9" d="M67.17,84.19c-.27-2.15-3.59-2.11-3.59-2.11,0,0,.54-.81.85-1.93.31-1.12-4.44-3.14-4.44-3.14l-11.18.67-11.18-.67s-4.76,2.02-4.44,3.14.85,1.93.85,1.93c0,0-3.32-.04-3.59,2.11,0,0,4.29,10.11,18.33,10.14h.08c14.03-.04,18.33-10.14,18.33-10.14h-.02Z"/>
            <path class="st1" d="M61.02,77.48v.02c3.46,1.7,3.45,4.08-1.98,7.01-4.79,2.59-8.6,3.58-10.23,3.92-1.63-.34-5.44-1.33-10.23-3.92-5.43-2.94-5.44-5.31-1.98-7.01v-.02c-1.38.67-3.63,1.89-3.41,2.67.31,1.12.85,1.93.85,1.93,1.7,2.19,5.83,7.08,14.74,8.05h.08c8.91-.97,13.04-5.86,14.74-8.06,0,0,.54-.81.85-1.93.22-.78-2.03-2-3.41-2.67h-.02Z"/>
            <path class="st1" d="M59.88,77.01l-11.08.66-11.08-.66c-.41.16-.79.32-1.13.49,1,3.11,3.89,7.48,12.17,8.86h.08c8.29-1.39,11.18-5.77,12.17-8.87-.34-.17-.72-.33-1.13-.49h0Z"/>
          </g>
        </g>
        <g>
          <g>
            <path class="st9" d="M64.9,60.64s.69-7.66-2.91-13.8c-3.11-5.29-10.43-11.91-12.4-13.64-.3-.26-.68-.26-.98,0-1.96,1.73-9.29,8.35-12.4,13.64-3.61,6.14-2.91,13.8-2.91,13.8,0,0,16.19-8.45,31.6,0Z"/>
            <path class="st5" d="M34.85,53.59c.32.35.72.54,1.12.62.63.12,1.29.04,1.91-.12,1.3-.33,2.52-1.09,3.66-1.98,1.06-.83,2.06-1.78,2.94-2.93.82-1.07,1.54-2.28,2.14-3.6.6-1.31,1.08-2.71,1.47-4.16.19-.73.36-1.48.51-2.23.17-.88.29-1.77.37-2.67.1-1.17.14-2.35.13-3.53-.17,0-.34.07-.49.2-1.96,1.73-9.29,8.35-12.4,13.64-.97,1.66-1.63,3.42-2.08,5.12.11.63.34,1.22.72,1.63h0Z"/>
            <path class="st3" d="M61.99,46.84c-3.11-5.29-10.43-11.91-12.4-13.64-.12-.11-.26-.17-.39-.19v23.88c4.85-.09,10.32.8,15.7,3.75,0,0,.69-7.66-2.91-13.8Z"/>
          </g>
          <g>
            <path class="st16" d="M63.89,61.2l1.74-.54-.11-5.7c-11.52,4.76-16.49-6.12-16.71-6.62v-.02h0s0,0,0,0v.02c-.22.5-5.19,11.38-16.71,6.62l-.11,5.7,1.74.54-.08,2.12-.72-.17,1.88,14.01,14,7.91h0l14-7.91,1.88-14.01-.72.17s-.08-2.12-.08-2.12Z"/>
            <path class="st0" d="M48.8,48.32s4.93,11.51,16.72,6.64l.11,5.7-1.74.54.08,2.12.72-.17-1.88,14.01-14.01,7.92s0-37.09,0-36.76Z"/>
            <g>
              <g>
                <g>
                  <g>
                    <circle class="st18" cx="45.52" cy="70.35" r=".99"/>
                    <circle class="st18" cx="45.52" cy="73.54" r=".99"/>
                    <path class="st18" d="M46.51,76.73c0,.55-.44.99-.99.99s-.99-.44-.99-.99.44-.99.99-.99.99.44.99.99Z"/>
                  </g>
                  <g>
                    <circle class="st18" cx="39.22" cy="68.73" r=".99"/>
                    <circle class="st18" cx="39.22" cy="71.92" r=".99"/>
                    <circle class="st18" cx="39.22" cy="75.11" r=".99"/>
                  </g>
                  <g>
                    <circle class="st18" cx="42.51" cy="71.59" r=".99"/>
                    <circle class="st18" cx="42.51" cy="74.78" r=".99"/>
                  </g>
                </g>
                <polygon class="st18" points="45.35 63.51 33.73 61.2 33.64 63.33 45.35 66.84 45.35 63.51"/>
              </g>
              <g>
                <g>
                  <g>
                    <circle class="st18" cx="52.09" cy="70.35" r=".99"/>
                    <circle class="st18" cx="52.09" cy="73.54" r=".99"/>
                    <path class="st18" d="M51.1,76.73c0,.55.44.99.99.99s.99-.44.99-.99-.44-.99-.99-.99-.99.44-.99.99Z"/>
                  </g>
                  <g>
                    <circle class="st18" cx="58.39" cy="68.73" r=".99"/>
                    <circle class="st18" cx="58.39" cy="71.92" r=".99"/>
                    <circle class="st18" cx="58.39" cy="75.11" r=".99"/>
                  </g>
                  <g>
                    <circle class="st18" cx="55.11" cy="71.59" r=".99"/>
                    <circle class="st18" cx="55.11" cy="74.78" r=".99"/>
                  </g>
                </g>
                <polygon class="st18" points="52.27 63.51 63.89 61.2 63.97 63.33 52.27 66.84 52.27 63.51"/>
              </g>
            </g>
          </g>
        </g>
      </g>
    </g>
  </g>
  <g class="st4">
    <g class="st4">
      <path d="M34.04,19.97l-.73.7c-.27.25-.4.49-.4.7,0,.11.03.23.09.34s.18.27.35.46l2.56,2.96c.23.26.39.43.47.5.09.07.22.15.39.22.25.1.42.22.52.35s.15.29.15.5c0,.48-.34.72-1.03.72h-2.59c-.18,0-.32-.04-.42-.12s-.27-.27-.49-.57c-.36-.49-.82-1.05-1.41-1.68-.26-.27-.43-.45-.54-.54-.1-.08-.2-.13-.28-.13-.26,0-.4.25-.4.75,0,.41.09.69.26.84.03.02.1.07.22.15.25.16.37.36.37.59,0,.3-.2.52-.6.65-.4.13-1.08.2-2.02.2-.84,0-1.46-.05-1.85-.15-.16-.05-.3-.13-.4-.25-.1-.12-.15-.26-.15-.41,0-.24.14-.45.41-.62.12-.08.21-.17.26-.27.05-.1.1-.26.15-.5.09-.51.14-1.31.14-2.38,0-1.28-.05-2.18-.14-2.71-.04-.22-.09-.38-.15-.47s-.18-.19-.33-.28c-.26-.15-.38-.35-.38-.61,0-.22.08-.39.24-.53s.41-.23.77-.3c.46-.09,1.05-.14,1.75-.14s1.25.07,1.59.21c.31.13.46.36.46.68,0,.14-.02.24-.07.32-.05.07-.17.19-.37.35-.07.06-.14.22-.2.46s-.09.48-.09.71c0,.38.09.57.26.57.1,0,.21-.05.3-.14s.29-.32.59-.68c.34-.42.51-.71.51-.87,0-.08-.04-.21-.13-.37-.06-.11-.09-.22-.09-.31,0-.34.18-.58.55-.71.36-.14.99-.21,1.87-.21.7,0,1.22.05,1.56.14.41.11.62.36.62.72,0,.15-.04.28-.13.41-.09.12-.19.21-.32.24-.1.03-.32.05-.66.05-.24,0-.42.03-.54.09-.12.05-.28.17-.47.35Z"/>
    </g>
  </g>
  <g class="st4">
    <g class="st4">
      <path d="M40.26,21.13l2.38,2.09c.22.19.38.29.48.29.17,0,.25-.18.25-.53,0-.4-.02-.68-.07-.82-.05-.15-.15-.26-.3-.33-.12-.06-.21-.12-.26-.19-.05-.07-.08-.16-.08-.27,0-.27.18-.44.55-.52.15-.03.41-.05.78-.05.48,0,.81.03,1,.09.29.09.44.26.44.51,0,.21-.12.36-.36.47-.1.04-.16.08-.2.11-.04.03-.07.08-.09.14-.09.21-.13.61-.13,1.2v1.56c0,.24,0,.57,0,.98,0,.56-.03.97-.1,1.22-.09.31-.24.46-.47.46-.1,0-.18-.02-.26-.06-.07-.04-.19-.14-.36-.29l-2.84-2.54c-.2-.18-.36-.27-.49-.27-.19,0-.29.27-.29.81,0,.44.02.75.07.91.05.16.15.28.3.36.21.11.32.24.32.41,0,.44-.48.67-1.43.67-.43,0-.76-.06-1-.17-.24-.11-.36-.27-.36-.48,0-.11.02-.19.07-.24.04-.05.15-.13.3-.22.15-.09.24-.25.27-.47.05-.41.08-1,.08-1.77,0-.82-.05-1.42-.14-1.8-.04-.14-.08-.24-.13-.31-.05-.07-.14-.13-.27-.19-.14-.07-.24-.14-.3-.21-.06-.07-.08-.15-.08-.24,0-.31.26-.5.79-.58.18-.03.49-.04.94-.04.25,0,.44.02.56.06.12.04.25.13.41.27Z"/>
      <path d="M47.81,20.8c.36,0,.71.03,1.03.1.43.09.65.27.65.55,0,.09-.02.16-.06.21-.04.05-.15.11-.33.2-.15.07-.24.23-.29.48-.05.25-.07.73-.07,1.45,0,1.22.03,1.97.09,2.26.02.09.06.16.1.21.05.05.13.1.24.16.21.1.32.23.32.42,0,.26-.19.43-.58.53-.42.1-.94.15-1.55.15-1.04,0-1.56-.2-1.56-.59,0-.14.1-.28.31-.4.16-.1.25-.23.28-.39.06-.36.09-1.14.09-2.32,0-.82-.04-1.34-.12-1.57-.04-.13-.15-.25-.32-.35-.13-.09-.22-.16-.26-.22-.04-.06-.07-.13-.07-.22,0-.14.07-.25.2-.33.13-.08.37-.15.7-.22.4-.08.8-.12,1.21-.12Z"/>
      <path d="M53.5,20.76c.42,0,.81.06,1.18.18.17.05.28.08.34.08.06,0,.2-.04.4-.11.07-.02.14-.03.21-.03.18,0,.35.1.51.32.26.34.39.71.39,1.11,0,.27-.07.5-.21.67-.14.17-.32.25-.55.25-.18,0-.37-.07-.54-.2-.05-.04-.19-.19-.4-.45-.35-.43-.75-.65-1.21-.65-.42,0-.74.15-.99.45s-.37.71-.37,1.23c0,.76.19,1.41.58,1.95.15.19.32.35.53.47.2.12.41.17.61.17.17,0,.3-.06.41-.17.11-.11.16-.25.16-.42,0-.15-.04-.26-.13-.33-.04-.03-.07-.04-.1-.05-.03,0-.12,0-.27,0-.14,0-.25-.04-.34-.13-.09-.09-.14-.2-.14-.33,0-.26.17-.45.53-.56.39-.12.83-.18,1.33-.18.54,0,.99.06,1.36.17.35.11.52.3.52.59,0,.11-.04.21-.12.3-.08.08-.18.13-.31.15-.11.02-.18.04-.22.07-.03.03-.07.12-.1.25-.14.51-.41.93-.8,1.27-.27.23-.61.41-.99.55s-.79.2-1.22.2c-.7,0-1.34-.16-1.92-.48-.6-.33-1.06-.79-1.37-1.38-.26-.49-.39-1.02-.39-1.59s.16-1.13.47-1.65c.33-.56.8-.99,1.39-1.29.52-.27,1.11-.4,1.78-.4Z"/>
      <path d="M59.66,20.79c1,0,1.49.21,1.49.62,0,.11-.03.2-.08.27-.05.07-.15.15-.29.23-.12.08-.2.18-.24.3s-.05.38-.05.76c0,.22.04.36.12.41.05.03.12.05.22.06.1,0,.33,0,.69,0,.33,0,.53-.02.61-.05.08-.03.12-.12.12-.26,0-.42-.02-.71-.06-.88-.04-.17-.11-.28-.22-.34-.14-.08-.23-.15-.28-.2-.04-.06-.07-.13-.07-.22,0-.13.05-.25.15-.36.1-.11.23-.18.39-.22.33-.08.75-.12,1.25-.12.59,0,1.02.05,1.3.16.28.11.42.27.42.5,0,.19-.1.33-.3.43-.12.06-.21.11-.24.17s-.07.15-.09.29c-.01.08-.03.43-.05,1.06-.02.63-.03,1.13-.03,1.5,0,.65.02,1.06.07,1.23.03.1.05.16.09.19s.13.1.3.19c.12.07.18.17.18.31,0,.24-.14.42-.43.53-.29.11-.76.17-1.41.17-.57,0-.99-.06-1.26-.17-.25-.1-.37-.26-.37-.47,0-.18.09-.32.28-.43.09-.05.16-.1.19-.15.03-.05.07-.15.1-.28.06-.27.09-.6.09-.99,0-.2-.03-.33-.09-.37s-.21-.07-.46-.07c-.57,0-.93.03-1.09.1-.06.03-.1.1-.12.22-.02.15-.03.34-.03.56,0,.36.05.62.15.78.04.05.12.12.25.2.13.08.2.2.2.38,0,.22-.15.39-.46.51-.31.12-.75.18-1.33.18-.52,0-.95-.05-1.28-.16-.14-.05-.26-.12-.34-.2-.08-.09-.12-.18-.12-.29s.03-.19.08-.24c.05-.06.16-.13.33-.22.09-.04.15-.1.19-.17.04-.07.06-.19.08-.35.05-.37.07-.86.07-1.46,0-.11,0-.24,0-.4-.01-.77-.02-1.2-.02-1.31,0-.27-.02-.46-.07-.54s-.18-.18-.39-.29c-.14-.07-.21-.17-.21-.3,0-.32.31-.55.94-.67.36-.07.74-.11,1.12-.11Z"/>
      <path d="M67.5,20.9h2.52c.27,0,.52-.05.74-.11.1-.03.18-.04.25-.04.26,0,.51.19.75.57.24.38.37.78.37,1.18,0,.28-.08.48-.25.61-.13.1-.28.14-.46.14-.17,0-.32-.05-.44-.14-.12-.09-.25-.25-.37-.47-.11-.2-.19-.33-.25-.39s-.13-.09-.22-.09c-.12,0-.2.05-.25.15-.05.1-.08.26-.08.49v2.68c0,.27.03.47.09.6s.17.22.33.29c.17.07.29.14.35.21.06.07.09.16.09.27,0,.23-.16.4-.47.51-.31.11-.79.17-1.43.17-.79,0-1.38-.07-1.76-.2-.32-.11-.48-.28-.48-.53,0-.13.06-.23.17-.31.03-.02.14-.05.34-.11.12-.04.21-.1.25-.2.05-.1.08-.29.11-.57.03-.25.05-.65.07-1.21s.03-1.04.03-1.45c0-.29-.02-.49-.07-.61-.04-.12-.12-.18-.22-.18-.12,0-.25.09-.36.27-.21.33-.39.54-.53.65-.16.12-.32.19-.47.19-.17,0-.31-.06-.43-.19-.11-.13-.17-.29-.17-.5s.04-.42.13-.65c.09-.24.21-.46.36-.66.24-.33.48-.49.72-.49.06,0,.14,0,.22.03.17.04.31.06.42.07.11.01.24.02.38.02Z"/>
    </g>
  </g>
  <path class="st10" d="M83.2,11.2c1.98,0,3.6,1.62,3.6,3.6v104.4c0,1.98-1.62,3.6-3.6,3.6H14.8c-1.98,0-3.6-1.62-3.6-3.6V14.8c0-1.98,1.62-3.6,3.6-3.6h68.4M83.2,4H14.8c-5.98,0-10.8,4.82-10.8,10.8v104.4c0,5.98,4.82,10.8,10.8,10.8h68.4c5.98,0,10.8-4.82,10.8-10.8V14.8c0-5.98-4.82-10.8-10.8-10.8h0Z"/>
</svg>