<?xml version="1.0" encoding="UTF-8"?>
<svg id="Road_Building" xmlns="http://www.w3.org/2000/svg" version="1.1" xmlns:xlink="http://www.w3.org/1999/xlink" viewBox="0 0 98 134">
  <!-- Generator: Adobe Illustrator 29.8.1, SVG Export Plug-In . SVG Version: 2.1.1 Build 2)  -->
  <defs>
    <style>
      .st0 {
        fill: #ccad60;
      }

      .st1 {
        fill: #bee6ff;
      }

      .st2 {
        fill: #5f4648;
      }

      .st3 {
        fill: #fff;
      }

      .st4, .st5 {
        fill: none;
      }

      .st6 {
        fill: #ad903d;
      }

      .st7 {
        fill: #e5e5e5;
      }

      .st8 {
        fill: #88be64;
      }

      .st9 {
        fill: #d2eeff;
      }

      .st10 {
        fill: #74b75a;
      }

      .st5 {
        stroke: #000;
        stroke-miterlimit: 10;
        stroke-width: 2px;
      }

      .st11 {
        isolation: isolate;
      }

      .st12 {
        fill: #5faf50;
      }

      .st13 {
        fill: #e6aa55;
      }

      .st14 {
        fill: #5f8c6e;
      }

      .st15 {
        fill: #aac864;
      }

      .st16 {
        fill: #a7d9ff;
      }

      .st17 {
        clip-path: url(#clippath);
      }

      .st18 {
        fill: #5f9d5f;
      }

      .st19 {
        fill: #e6c35a;
      }
    </style>
    <clipPath id="clippath">
      <rect class="st4" x="11" y="9" width="76" height="114"/>
    </clipPath>
  </defs>
  <path class="st5" d="M83.2,4H14.8c-5.98,0-10.8,4.82-10.8,10.8v104.4c0,5.98,4.82,10.8,10.8,10.8h68.4c5.98,0,10.8-4.82,10.8-10.8V14.8c0-5.98-4.82-10.8-10.8-10.8h0Z"/>
  <rect class="st7" x="7.6" y="7.6" width="82.8" height="118.8" rx="2" ry="2"/>
  <g>
    <rect class="st16" x="11" y="9" width="76" height="114"/>
    <g class="st17">
      <g>
        <circle class="st16" cx="48.5" cy="85.5" r="52.5"/>
        <path class="st1" d="M22.25,95.34c0,17.44,8.52,32.89,21.61,42.44,1.53.13,3.08.22,4.64.22,28.99,0,52.5-23.51,52.5-52.5,0-17.44,6-40.5-21.61-42.44-1.53-.13-3.08-.22-4.64-.22-28.99,0-52.5,23.51-52.5,52.5Z"/>
        <path class="st9" d="M25.53,106.83c0,10.83,3.28,20.89,8.9,29.25,4.48,1.24,9.19,1.92,14.07,1.92,28.99,0,52.5-23.51,52.5-52.5,0-10.83-3.28-20.89-8.9-29.25-4.48-1.24-9.19-1.92-14.07-1.92-28.99,0-52.5,23.51-52.5,52.5Z"/>
        <path class="st15" d="M52.26,68s-1.64.55-2.22.12c-.97-.72-2.41-1.05-3.02-.23-.87,1.16-2.41,1.96-2.41,1.96l.82,7.86,6.63-.07.21-9.64h0Z"/>
        <path class="st8" d="M56.16,66.91s-3.63-.63-4.65.07c-1.08.74-.88,1.86-2.12,2.6-1.35.8-1.19,4.11-.3,5.55s-.18,2.97-.18,2.97l4.72.03,2.53-11.21h0Z"/>
        <path class="st15" d="M-4,85.5c0,28.99,23.51,52.5,52.5,52.5s52.5-23.51,52.5-52.5c0-2.79-.22-5.53-.64-8.2H-3.36c-.42,2.67-.64,5.41-.64,8.2Z"/>
        <path class="st18" d="M58.96,78.94s-6.27-.41-8.74-1.64c0,0-1.1-4.65-.42-5.88s1.11-1.01,1.64-1.64c.68-.82.89-2.09,1.71-2.73.66-.51,2.39-.34,3.28-1.91.89-1.57,3.28-.75,3.28-.75l-.75,14.56h0Z"/>
        <path class="st0" d="M84.73,99.58c0-7.79-33.97-8.96-33.97-11.98,0-1.97,9.71-2.65,9.71-6.14,0-2.48-8.25-2.16-10.24-4.17l-3.67-.05c-3.17,1.36,3.59,2.98,3.59,3.61,0,2.03-22.15,1.63-22.15,7.38,0,6.29,22.15,5.67,22.15,9.98,0,6.32-33.4,2.75-37.8,25.33,9.42,8.95,22.14,14.46,36.16,14.46,10.81,0,20.85-3.27,29.2-8.87-9.52-5.07-13.62-10.42-13.62-14.23,0-5.61,20.64-8.75,20.64-15.31h0Z"/>
        <path class="st8" d="M44.13,77.78l3.2-.52s.61-5.55-.6-7.14c-.63-.83-1.5-3.14-2.12-3.55s-2.39.89-2.39.89c0,0,1.91,10.32,1.91,10.32Z"/>
        <path class="st18" d="M40.43,81.26s3.96-.41,4.1-2.05-1.7-13.46-2.26-13.95c-1.09-.96-1.28,1.55-2.8-1.09-1.85-3.21-4.79-2.6-4.79-2.6l5.74,19.69h.01Z"/>
        <g>
          <path class="st6" d="M64.09,114.89c0-5.61,20.64-8.75,20.64-15.31,0-7.17-28.77-8.73-33.34-11.29,2.18,2.09,30.28,6.06,31.05,10.23,1.13,6.05-12.68,6.4-18.76,12.92-5.82,6.24,4.01,15.61,9.76,20.23,1.46-.79,2.9-1.62,4.27-2.55-9.52-5.07-13.62-10.42-13.62-14.23Z"/>
          <path class="st6" d="M51.3,97.33c-2.73-3.14-16.47-3.35-21.12-6.22-.1-.06-.23-.09-.35-.12,5.31,3.47,20.31,3.69,20.31,7.23,0,6.32-33.4,2.75-37.8,25.33,1.19,1.13,2.43,2.2,3.72,3.22-.09-6.22,5.03-16.93,15.83-19.93,16.04-4.47,22.15-6.36,19.41-9.5h0Z"/>
        </g>
        <path class="st6" d="M41.34,88.65c-.29-.26-.4-.44-.19-.65.22-.22.58-.39.92-.53h0c-.16.12-.33.25-.42.5-.11.31.06.62.21.78.32.35.69.54,1.05.72.16.08.33.14.49.22-.74-.29-1.51-.59-2.08-1.04h0Z"/>
        <path class="st10" d="M100.6,79.12c-13.5-.35-38.36-1.64-38.36-.53,0,6.7-7.38,7.31-7.38,8.61,0,2.12,29.35,4.28,33.43,11.28,2.87,4.92-15.45,12.44-16.68,15.79-1.46,3.99,3.6,8.74,9.6,12.27,12.06-9.62,19.79-24.43,19.79-41.05,0-2.16-.15-4.29-.4-6.38h0Z"/>
        <path class="st14" d="M100.18,76.31l-24.34-4.89-12.58,4.24s.68,6.84-3.28,9.84c-3.57,2.71,26.25,4.24,31.17,11.48s-5.88,11.07-11.07,15.04c-3.87,2.95-2.05,7.93,5.19,10.94,9.71-9.53,15.73-22.79,15.73-37.46,0-3.14-.29-6.21-.82-9.19Z"/>
        <path class="st10" d="M45.7,97.87c0-1.71-15.45-4.03-16.88-7.45l-32.51.68c1.16,10.88,5.64,20.77,12.41,28.63,2.67-6.04,9.84-13.91,19.96-16.25,12.71-2.94,17.02-4.24,17.02-5.61Z"/>
        <path class="st14" d="M31.99,94.11c-6.33-2.18-8.84-6.63-11.28-8.31-4.76-3.26-16.73-10.74-22.76-14.49-1.26,4.51-1.95,9.26-1.95,14.18,0,10.45,3.07,20.18,8.33,28.37,7.54-7.59,15.55-11.66,28.07-13.91,9.06-1.63,5.54-3.79-.41-5.84h0Z"/>
        <rect class="st2" x="26.4" y="79.41" width="1.78" height="17.92"/>
        <path class="st14" d="M33.97,84.36c0,5.13-2.99,7.7-6.68,7.7s-6.68-2.57-6.68-7.7,4.09-25.11,6.68-25.11,6.68,19.99,6.68,25.11Z"/>
        <path class="st18" d="M27.29,59.25c-.51,0-1.08.79-1.67,2.09,2.11,3.2,4.84,18.99,4.84,23.38s-1.91,6.7-4.44,7.23c.41.07.83.11,1.27.11,3.69,0,6.68-2.57,6.68-7.7s-4.09-25.11-6.68-25.11Z"/>
        <rect class="st2" x="66.21" y="82.27" width="1.41" height="6.51"/>
        <path class="st14" d="M72.2,77.49c0,4.06-2.37,6.09-5.29,6.09s-5.29-2.04-5.29-6.09,3.24-19.88,5.29-19.88,5.29,15.82,5.29,19.88Z"/>
        <path class="st18" d="M66.91,57.61c-.41,0-.86.63-1.32,1.65,1.67,2.53,3.83,15.04,3.83,18.51s-1.51,5.3-3.51,5.72c.33.06.66.09,1,.09,2.92,0,5.29-2.04,5.29-6.09s-3.24-19.88-5.29-19.88Z"/>
        <rect class="st2" x="15.89" y="95.41" width="1.5" height="6.97"/>
        <path class="st12" d="M22.25,90.19c0,4.31-2.51,6.47-5.61,6.47s-5.61-2.16-5.61-6.47,3.44-21.1,5.61-21.1,5.61,16.79,5.61,21.1Z"/>
        <path class="st10" d="M16.64,69.09c-.43,0-.91.67-1.4,1.76,1.77,2.69,4.07,15.95,4.07,19.64s-1.6,5.63-3.73,6.07c.34.06.7.1,1.06.1,3.1,0,5.61-2.16,5.61-6.47s-3.44-21.1-5.61-21.1Z"/>
        <rect class="st2" x="34.37" y="77.77" width="1.78" height="19.83"/>
        <path class="st13" d="M41.94,82.72c0,5.13-2.99,7.7-6.68,7.7s-6.68-2.57-6.68-7.7,4.09-25.11,6.68-25.11,6.68,19.99,6.68,25.11Z"/>
        <path class="st19" d="M35.26,57.61c-.51,0-1.08.79-1.67,2.09,2.11,3.2,4.84,18.99,4.84,23.38s-1.91,6.7-4.44,7.23c.41.07.83.11,1.27.11,3.69,0,6.68-2.57,6.68-7.7s-4.09-25.11-6.68-25.11Z"/>
        <rect class="st2" x="61.57" y="80.42" width="1.5" height="8.36"/>
        <path class="st13" d="M56.7,75.42c0,4.31,2.51,6.47,5.61,6.47s5.61-2.16,5.61-6.47-3.44-21.1-5.61-21.1-5.61,16.79-5.61,21.1Z"/>
        <path class="st19" d="M62.31,54.33c.43,0,.91.67,1.4,1.76-1.77,2.69-4.07,15.95-4.07,19.64s1.6,5.63,3.73,6.07c-.34.06-.7.1-1.06.1-3.1,0-5.61-2.16-5.61-6.47s3.44-21.1,5.61-21.1Z"/>
        <rect class="st2" x="4.16" y="98.28" width="2.28" height="10.66"/>
        <path class="st18" d="M-3.25,89.76c0,6.56,3.83,9.85,8.55,9.85s8.55-3.29,8.55-9.85-5.24-32.15-8.55-32.15S-3.25,83.19-3.25,89.76Z"/>
        <path class="st14" d="M5.3,57.61c.66,0,1.39,1.01,2.14,2.68-2.7,4.09-6.2,24.31-6.2,29.93s2.44,8.58,5.68,9.25c-.53.09-1.07.15-1.62.15-4.72,0-8.55-3.29-8.55-9.85S1.99,57.61,5.3,57.61Z"/>
        <path class="st2" d="M95.49,100.27h-2.56v13.12h.04c.91-1.45,1.75-2.95,2.52-4.49v-8.64h0Z"/>
        <path class="st14" d="M84.59,90.49c0,7.38,4.31,11.09,9.62,11.09,1.67,0,3.24-.37,4.61-1.1,1.41-4.75,2.18-9.77,2.18-14.98,0-10.74-3.23-20.73-8.77-29.05-3.53,6.78-7.64,27.87-7.64,34.04Z"/>
        <path class="st18" d="M92.23,56.45c-3.53,6.78-7.64,27.87-7.64,34.04,0,7.38,4.31,11.09,9.62,11.09.62,0,1.23-.06,1.82-.16-3.64-.76-6.39-4.24-6.39-10.41,0-5.24,2.7-21.74,5.36-29.87-.85-1.61-1.77-3.17-2.77-4.68h0Z"/>
        <rect class="st2" x="21.04" y="84.34" width="2.03" height="17.57"/>
        <path class="st8" d="M34.26,71.03c0-5.26-3.44-19.98-12.21-19.98s-12.21,14.73-12.21,19.98c0,2.55,1.29,4.86,3.39,6.57.42,4.5,4.2,8.03,8.82,8.03s8.4-3.53,8.82-8.03c2.09-1.71,3.39-4.02,3.39-6.57Z"/>
        <path class="st15" d="M22.05,51.05c-.58,0-1.13.07-1.66.19,6.28,1.72,8.78,14.88,8.78,19.79,0,2.55-1.08,4.86-2.82,6.57-.3,3.95-2.77,7.15-5.96,7.88.54.1,1.1.16,1.66.16,4.61,0,8.4-3.53,8.82-8.03,2.09-1.71,3.39-4.02,3.39-6.57,0-5.26-3.44-19.98-12.21-19.98h0Z"/>
        <rect class="st2" x="69.01" y="76.22" width="1.64" height="14.2"/>
        <path class="st8" d="M59.98,65.52c0-4.24,2.78-16.12,9.84-16.12s9.84,11.88,9.84,16.12c0,2.06-1.04,3.92-2.73,5.3-.34,3.63-3.39,6.48-7.11,6.48s-6.77-2.85-7.11-6.48c-1.69-1.38-2.73-3.24-2.73-5.3Z"/>
        <path class="st15" d="M69.83,49.41c.47,0,.91.05,1.34.15-5.07,1.38-7.08,12-7.08,15.96,0,2.06.87,3.92,2.28,5.3.25,3.18,2.23,5.76,4.81,6.35-.43.08-.88.13-1.34.13-3.72,0-6.77-2.85-7.11-6.48-1.69-1.38-2.73-3.24-2.73-5.3,0-4.24,2.78-16.12,9.84-16.12h0Z"/>
        <g>
          <rect class="st2" x="9.52" y="90.9" width="2.49" height="20.85"/>
          <rect class="st2" x="82.02" y="93.23" width="2.74" height="23.45"/>
        </g>
        <path class="st12" d="M93.68,83.16c0-5.9-.24-29.09-3.68-38.16-1.42-1.51-6.2,1.6-7.79.26-3.94,4.83-9.1,30.75-9.1,37.9,0,7.89,4.6,11.86,10.29,11.86s10.29-3.96,10.29-11.86h-.01Z"/>
        <path class="st10" d="M82.21,45.26c-3.94,4.83-9.1,30.75-9.1,37.9,0,7.89,4.61,11.86,10.29,11.86.67,0,1.32-.07,1.95-.17-3.9-.82-6.83-4.53-6.83-11.13s3.89-29.26,7.08-35.36c2.4-6.35,3.9-6.89,3.4-7.35-.63-.58-4,1-6.79,4.26h0Z"/>
        <path class="st12" d="M10.77,49.41c-.13,0-.26.02-.39.02-7.19,7.6-12.15,17.34-13.78,28.18.71,1.64,1.86,3.12,3.36,4.35.51,5.52,5.15,9.85,10.81,9.85s10.3-4.32,10.81-9.85c2.57-2.09,4.15-4.93,4.15-8.05,0-6.44-4.22-24.5-14.96-24.5Z"/>
        <path class="st10" d="M10.77,49.41c-.13,0-.26.02-.39.02-.2.21-.4.41-.6.63,6.92,3.22,9.72,18.11,9.72,23.84,0,3.13-1.32,5.96-3.46,8.05-.37,4.84-3.39,8.76-7.31,9.65.66.13,1.34.19,2.04.19,5.66,0,10.3-4.32,10.81-9.85,2.57-2.09,4.15-4.93,4.15-8.05,0-6.44-4.22-24.49-14.96-24.49h0Z"/>
      </g>
    </g>
  </g>
  <g class="st11">
    <g class="st11">
      <path d="M36.51,23.51c-.17,0-.28.05-.33.16s-.07.35-.07.73c0,.58.04,1.03.11,1.35.02.09.06.16.1.21s.13.11.26.18c.27.15.41.35.41.59,0,.3-.19.51-.57.64-.38.12-1.02.19-1.93.19-1.69,0-2.53-.32-2.53-.96,0-.11.02-.2.08-.26.05-.07.16-.16.34-.28.2-.13.34-.29.41-.47.07-.18.12-.49.15-.93.02-.32.03-1.48.03-3.48,0-.63-.03-1.06-.1-1.29s-.2-.39-.41-.5c-.2-.1-.33-.18-.4-.26-.07-.08-.1-.18-.1-.31,0-.17.06-.32.19-.44.13-.13.31-.22.54-.28.2-.05.46-.08.81-.08.15,0,.53.02,1.13.07.11,0,.29.01.54.01.41,0,.96-.03,1.64-.08.43-.03.74-.05.91-.05.98,0,1.78.23,2.42.7.57.42.86,1.01.86,1.76,0,.42-.1.8-.3,1.15-.2.34-.48.6-.83.78-.15.07-.22.16-.22.26,0,.13.11.24.33.32.48.17.83.44,1.05.79s.38.89.48,1.61c.04.3.1.5.18.58.08.09.26.17.54.26.09.03.16.08.22.17.06.09.09.19.09.3,0,.14-.05.28-.16.43-.11.14-.25.26-.42.34-.38.18-.91.27-1.57.27-.89,0-1.52-.23-1.91-.7-.17-.21-.32-.47-.44-.79s-.26-.82-.43-1.49c-.1-.43-.24-.74-.4-.92s-.39-.27-.69-.29ZM36.12,20.02l-.08,1.59v.06c0,.16.02.27.07.33s.14.08.29.08c.4,0,.69-.1.88-.31.18-.21.27-.54.27-1,0-.88-.31-1.32-.94-1.32-.18,0-.3.04-.38.12s-.11.23-.12.44Z"/>
    </g>
  </g>
  <g class="st11">
    <g class="st11">
      <path d="M46.51,20.76c.82,0,1.54.23,2.15.7.42.32.75.74,1.01,1.25.25.51.38,1.02.38,1.53,0,.75-.25,1.43-.75,2.02-.42.5-.97.87-1.65,1.09-.42.13-.84.2-1.26.2-.55,0-1.08-.12-1.58-.34-.61-.28-1.09-.7-1.43-1.26-.33-.54-.5-1.14-.5-1.79,0-.76.22-1.43.65-2.01.38-.52.9-.9,1.55-1.14.43-.17.92-.25,1.44-.25ZM46.05,22.14c-.27,0-.48.12-.64.36-.12.18-.18.39-.18.64,0,.36.07.78.22,1.25.15.47.33.89.56,1.26.1.16.22.28.37.37.15.09.29.14.44.14.24,0,.44-.09.59-.27.15-.18.22-.42.22-.72,0-.39-.06-.8-.19-1.25-.12-.45-.29-.83-.48-1.14-.12-.19-.26-.35-.42-.46s-.32-.17-.48-.18Z"/>
      <path d="M56.2,24.12l.9,1.94c.09.18.16.3.21.35.06.06.15.09.26.11.23.04.34.15.34.35,0,.23-.14.4-.42.5-.28.1-.74.15-1.38.15-.72,0-1.25-.03-1.6-.09-.16-.03-.29-.09-.38-.17-.09-.09-.14-.19-.14-.32,0-.1.02-.17.07-.22.05-.05.14-.1.27-.15.15-.05.23-.14.23-.26,0-.21-.13-.34-.39-.38-.28-.04-.67-.06-1.17-.06-.42,0-.68.03-.76.08-.05.03-.1.09-.13.17s-.06.16-.06.24c0,.07.01.12.04.14.03.02.12.05.27.1.19.06.29.17.29.34,0,.38-.46.57-1.36.57-.52,0-.9-.04-1.14-.11-.22-.07-.33-.21-.33-.44,0-.1.02-.18.07-.23.05-.05.14-.1.27-.15.21-.07.36-.18.47-.31.11-.13.26-.42.46-.85l.67-1.48c.25-.54.42-.95.5-1.22.08-.27.13-.53.13-.79,0-.27.02-.46.05-.57s.1-.21.2-.31c.22-.22.5-.33.84-.33.32,0,.63.13.92.38.41.34,1,1.35,1.78,3.01ZM52.87,24.73h.94c.17,0,.26-.04.26-.11,0-.11-.12-.36-.36-.78-.11-.19-.19-.31-.25-.38s-.12-.1-.18-.1c-.12,0-.21.11-.29.32-.01.03-.06.14-.14.34-.13.33-.2.52-.2.58,0,.08.07.12.22.12Z"/>
      <path d="M60.12,27.43h-.34c-.2,0-.43,0-.67.03-.16.01-.26.02-.33.02-.21,0-.39-.05-.52-.15-.13-.1-.2-.23-.2-.39,0-.11.03-.2.09-.26.06-.06.16-.11.29-.15.13-.03.21-.08.26-.16s.08-.21.11-.42c.03-.24.05-.71.07-1.4s.03-1.38.03-2.06c0-.27-.02-.45-.06-.54s-.14-.16-.29-.22c-.22-.08-.33-.23-.33-.43,0-.16.08-.28.23-.37.15-.09.36-.13.63-.13.09,0,.19,0,.32,0,.27,0,.46.01.58.01.46,0,.97-.01,1.55-.04.12,0,.27,0,.45,0,.73,0,1.31.08,1.73.25.63.25,1.11.67,1.43,1.25.28.52.43,1.13.43,1.85,0,.36-.05.72-.16,1.08-.11.36-.25.68-.43.94-.37.54-.88.91-1.53,1.13-.38.13-.79.19-1.23.19l-.58-.02h-.5c-.39-.03-.73-.03-1.02-.03ZM61.13,22.24v3.7c0,.2.04.34.13.43.09.08.23.13.43.13.93,0,1.4-.71,1.4-2.12,0-.78-.11-1.39-.33-1.82-.24-.48-.64-.71-1.22-.71-.15,0-.26.03-.32.09-.06.06-.09.16-.09.31Z"/>
    </g>
  </g>
  <g class="st11">
    <g class="st11">
      <path d="M24.9,39.42h-.92c-.64.02-1.11.03-1.41.05-.26.02-.45.03-.57.03-.28,0-.5-.07-.66-.21-.16-.14-.24-.31-.24-.51,0-.13.03-.23.09-.3s.2-.19.43-.34c.13-.09.22-.23.27-.43.05-.19.1-.61.16-1.25.09-.99.13-2.22.13-3.67,0-.53-.04-.89-.11-1.06-.07-.18-.24-.32-.5-.43-.3-.13-.45-.31-.45-.56,0-.2.09-.36.27-.49s.41-.19.69-.19c.15,0,.35,0,.59.02.4.02.83.03,1.3.03.34,0,1.01-.01,2.02-.04.31,0,.6-.01.85-.01.61,0,1.09.05,1.47.15.37.1.69.26.97.5.45.38.67.88.67,1.52,0,.31-.07.62-.2.92-.13.3-.31.54-.53.71-.16.13-.24.24-.24.35,0,.11.1.21.29.29.37.15.71.4,1.02.76.31.37.47.83.47,1.39,0,.66-.24,1.26-.72,1.8-.63.72-1.57,1.07-2.81,1.07-.17,0-.58-.01-1.24-.03-.6-.02-.97-.04-1.11-.04ZM25.37,32.01v1.41c0,.22.03.38.09.47s.16.14.3.14c.34,0,.59-.1.75-.31.16-.21.24-.53.24-.97s-.08-.76-.25-1c-.16-.23-.4-.35-.7-.35-.16,0-.27.04-.33.13-.06.09-.09.25-.09.48ZM25.37,35.94v.65c0,.6.04.99.13,1.19s.26.29.53.29c.69,0,1.04-.41,1.04-1.22,0-1.01-.39-1.52-1.16-1.52-.2,0-.34.04-.42.13s-.12.24-.12.47Z"/>
    </g>
  </g>
  <g class="st11">
    <g class="st11">
      <path d="M38.17,35.29v1.17c0,.71-.05,1.2-.16,1.5-.23.62-.72,1.07-1.49,1.34-.47.17-.99.26-1.58.26-1.02,0-1.84-.24-2.46-.73-.3-.24-.51-.52-.62-.83-.12-.32-.17-.77-.17-1.37,0-.23,0-.62.02-1.15,0-.38.01-.62.01-.75,0-.26-.02-.45-.06-.55-.04-.1-.13-.2-.26-.29-.21-.14-.32-.29-.32-.46,0-.12.05-.23.16-.33s.25-.16.42-.2c.35-.07.77-.11,1.24-.11.53,0,.96.04,1.31.12.34.08.51.25.51.52,0,.13-.05.24-.15.32-.02.02-.12.07-.29.15-.1.04-.17.13-.21.24-.04.12-.06.31-.06.58s-.01.88-.04,1.8c-.02.55.13.97.44,1.25.26.24.58.35.99.35.26,0,.49-.05.69-.14.21-.09.37-.22.47-.38.09-.12.15-.26.18-.42s.05-.36.05-.63v-1.05c-.02-.81-.04-1.28-.07-1.42-.03-.14-.13-.25-.31-.33-.17-.07-.28-.14-.34-.2s-.09-.14-.09-.23c0-.19.11-.33.34-.42.23-.09.59-.13,1.1-.13s.85.04,1.07.13c.22.09.33.22.33.41,0,.09-.02.16-.06.21-.04.04-.14.11-.3.21-.17.1-.27.2-.29.31-.02.11-.04.52-.05,1.23Z"/>
      <path d="M41.23,32.8c.36,0,.71.03,1.03.1.43.09.65.27.65.55,0,.09-.02.16-.06.21-.04.05-.15.11-.33.2-.15.07-.24.23-.29.48-.05.25-.07.73-.07,1.45,0,1.22.03,1.97.09,2.26.02.09.06.16.1.21.05.05.13.1.24.16.21.1.32.23.32.42,0,.26-.19.43-.58.53-.42.1-.94.15-1.55.15-1.04,0-1.56-.2-1.56-.59,0-.14.1-.28.31-.4.16-.1.25-.23.28-.39.06-.36.09-1.14.09-2.32,0-.82-.04-1.34-.12-1.57-.04-.13-.15-.25-.32-.35-.13-.09-.22-.16-.26-.22-.04-.06-.07-.13-.07-.22,0-.14.07-.25.2-.33.13-.08.37-.15.7-.22.4-.08.8-.12,1.21-.12Z"/>
      <path d="M46.32,34.99v2.2c0,.49.04.81.13.96.11.17.33.25.67.25.36,0,.65-.08.86-.24.21-.16.36-.41.44-.75.05-.21.16-.31.33-.31s.31.08.41.23c.11.15.16.35.16.59,0,.4-.15.82-.44,1.27-.09.14-.17.24-.24.29-.07.05-.15.08-.25.08l-1.06-.13h-3.34c-.22,0-.38-.03-.46-.08-.13-.07-.2-.18-.2-.33,0-.09.02-.16.06-.2.04-.04.15-.1.31-.18.18-.09.3-.21.35-.36.04-.13.06-.51.06-1.14,0-.29,0-.72-.02-1.27-.02-.53-.03-.93-.03-1.2,0-.26-.02-.43-.06-.52s-.12-.16-.25-.2c-.21-.07-.34-.13-.4-.18-.1-.08-.15-.17-.15-.27,0-.23.19-.41.58-.53.33-.1.77-.16,1.32-.16.62,0,1.08.03,1.39.1.4.09.59.26.59.52,0,.11-.03.18-.08.23-.05.05-.18.12-.39.21-.12.05-.2.15-.23.28-.03.13-.05.42-.05.86Z"/>
      <path d="M51.45,39.43h-.34c-.2,0-.43,0-.67.03-.16.01-.26.02-.33.02-.21,0-.39-.05-.52-.15-.13-.1-.2-.23-.2-.39,0-.11.03-.2.09-.26.06-.06.16-.11.29-.15.13-.03.21-.08.26-.16s.08-.21.11-.42c.03-.24.05-.71.07-1.4s.03-1.38.03-2.06c0-.27-.02-.45-.06-.54s-.14-.16-.29-.22c-.22-.08-.33-.23-.33-.43,0-.16.08-.28.23-.37.15-.09.36-.13.63-.13.09,0,.19,0,.32,0,.27,0,.46.01.58.01.46,0,.97-.01,1.55-.04.12,0,.27,0,.45,0,.73,0,1.31.08,1.73.25.63.25,1.11.67,1.43,1.25.28.52.43,1.13.43,1.85,0,.36-.05.72-.16,1.08-.11.36-.25.68-.43.94-.37.54-.88.91-1.53,1.13-.38.13-.79.19-1.23.19l-.58-.02h-.5c-.39-.03-.73-.03-1.02-.03ZM52.45,34.24v3.7c0,.2.04.34.13.43.09.08.23.13.43.13.93,0,1.4-.71,1.4-2.12,0-.78-.11-1.39-.33-1.82-.24-.48-.64-.71-1.22-.71-.15,0-.26.03-.32.09-.06.06-.09.16-.09.31Z"/>
      <path d="M59.35,32.8c.36,0,.71.03,1.03.1.43.09.65.27.65.55,0,.09-.02.16-.06.21-.04.05-.15.11-.33.2-.15.07-.24.23-.29.48-.05.25-.07.73-.07,1.45,0,1.22.03,1.97.09,2.26.02.09.06.16.1.21.05.05.13.1.24.16.21.1.32.23.32.42,0,.26-.19.43-.58.53-.42.1-.94.15-1.54.15-1.04,0-1.56-.2-1.56-.59,0-.14.1-.28.31-.4.16-.1.25-.23.28-.39.06-.36.09-1.14.09-2.32,0-.82-.04-1.34-.12-1.57-.04-.13-.15-.25-.32-.35-.13-.09-.22-.16-.26-.22-.04-.06-.07-.13-.07-.22,0-.14.07-.25.2-.33.13-.08.37-.15.7-.22.4-.08.8-.12,1.21-.12Z"/>
      <path d="M63.99,33.13l2.38,2.09c.22.19.38.29.48.29.17,0,.25-.18.25-.53,0-.4-.02-.68-.07-.82-.05-.15-.15-.26-.3-.33-.12-.06-.21-.12-.26-.19-.05-.07-.08-.16-.08-.27,0-.27.18-.44.55-.52.15-.03.41-.05.79-.05.48,0,.82.03,1,.09.29.09.44.26.44.51,0,.21-.12.36-.36.47-.1.04-.16.08-.2.11-.04.03-.07.08-.09.14-.09.21-.13.61-.13,1.2v1.56c0,.24,0,.57,0,.98,0,.56-.03.97-.1,1.22-.09.31-.24.46-.47.46-.1,0-.18-.02-.26-.06-.07-.04-.19-.14-.36-.29l-2.84-2.54c-.2-.18-.36-.27-.49-.27-.19,0-.29.27-.29.81,0,.44.03.75.07.91.05.16.15.28.3.36.21.11.32.24.32.41,0,.44-.48.67-1.43.67-.43,0-.77-.06-1-.17s-.36-.27-.36-.48c0-.11.02-.19.07-.24.04-.05.14-.13.3-.22.15-.09.24-.25.27-.47.05-.41.08-1,.08-1.77,0-.82-.05-1.42-.14-1.8-.04-.14-.08-.24-.13-.31-.05-.07-.14-.13-.27-.19-.14-.07-.24-.14-.3-.21s-.08-.15-.08-.24c0-.31.26-.5.79-.58.18-.03.49-.04.94-.04.26,0,.44.02.56.06.12.04.25.13.41.27Z"/>
      <path d="M73.05,32.76c.42,0,.81.06,1.18.18.17.05.28.08.34.08.06,0,.2-.04.4-.11.07-.02.14-.03.21-.03.18,0,.35.1.51.32.26.34.39.71.39,1.11,0,.27-.07.5-.21.67-.14.17-.32.25-.55.25-.18,0-.37-.07-.54-.2-.05-.04-.19-.19-.4-.45-.35-.43-.75-.65-1.21-.65-.42,0-.74.15-.99.45s-.37.71-.37,1.23c0,.76.19,1.41.58,1.95.15.19.32.35.53.47.2.12.41.17.61.17.17,0,.3-.06.41-.17.11-.11.16-.25.16-.42,0-.15-.04-.26-.13-.33-.04-.03-.07-.04-.1-.05-.03,0-.12,0-.27,0-.14,0-.25-.04-.34-.13-.09-.09-.14-.2-.14-.33,0-.26.17-.45.53-.56.39-.12.83-.18,1.33-.18.54,0,.99.06,1.36.17.35.11.52.3.52.59,0,.11-.04.21-.12.3-.08.08-.18.13-.31.15-.11.02-.18.04-.22.07-.03.03-.07.12-.1.25-.14.51-.41.93-.8,1.27-.27.23-.61.41-.99.55s-.79.2-1.22.2c-.7,0-1.34-.16-1.92-.48-.6-.33-1.06-.79-1.37-1.38-.26-.49-.39-1.02-.39-1.59s.16-1.13.47-1.65c.33-.56.8-.99,1.39-1.29.52-.27,1.11-.4,1.78-.4Z"/>
    </g>
  </g>
  <path class="st3" d="M83.2,11.2c1.98,0,3.6,1.62,3.6,3.6v104.4c0,1.98-1.62,3.6-3.6,3.6H14.8c-1.98,0-3.6-1.62-3.6-3.6V14.8c0-1.98,1.62-3.6,3.6-3.6h68.4M83.2,4H14.8c-5.98,0-10.8,4.82-10.8,10.8v104.4c0,5.98,4.82,10.8,10.8,10.8h68.4c5.98,0,10.8-4.82,10.8-10.8V14.8c0-5.98-4.82-10.8-10.8-10.8h0Z"/>
</svg>