<?xml version="1.0" encoding="UTF-8"?>
<svg id="Layer_1" xmlns="http://www.w3.org/2000/svg" version="1.1" xmlns:xlink="http://www.w3.org/1999/xlink" viewBox="0 0 54 54">
  <!-- Generator: Adobe Illustrator 29.8.1, SVG Export Plug-In . SVG Version: 2.1.1 Build 2)  -->
  <defs>
    <style>
      .st0 {
        fill: #9c2c3c;
      }

      .st1 {
        fill: #fff;
      }

      .st2 {
        fill: #b5b0ad;
      }

      .st3 {
        fill: #e2e2e2;
      }

      .st4 {
        fill: url(#radial-gradient);
      }

      .st5 {
        fill: #28396d;
      }

      .st6 {
        fill: #353535;
      }

      .st7 {
        fill: none;
        stroke: #5e5e5e;
        stroke-linejoin: round;
        stroke-width: .5px;
      }

      .st8 {
        fill: #ab933b;
      }

      .st9 {
        fill: url(#linear-gradient);
      }
    </style>
    <linearGradient id="linear-gradient" x1="28.25" y1="22.14" x2="36.75" y2="36.86" gradientUnits="userSpaceOnUse">
      <stop offset="0" stop-color="#b7b4af"/>
      <stop offset="1" stop-color="#564f49"/>
    </linearGradient>
    <radialGradient id="radial-gradient" cx="32.5" cy="29.5" fx="32.5" fy="29.5" r="2.25" gradientUnits="userSpaceOnUse">
      <stop offset="0" stop-color="#b7b4af"/>
      <stop offset="1" stop-color="#40353b"/>
    </radialGradient>
  </defs>
  <rect class="st7" x="12" y="9" width="25" height="35" rx="3" ry="3" transform="translate(-9.97 15.8) rotate(-30)"/>
  <g>
    <path class="st3" d="M23.53,45.81c-.71,0-1.38-.38-1.73-1L7.29,19.69c-.27-.46-.34-1-.2-1.52.14-.52.47-.95.93-1.21L24.48,7.46c.3-.18.65-.27,1-.27.71,0,1.38.38,1.73,1l14.5,25.11c.27.46.34,1,.2,1.52-.14.52-.47.95-.93,1.21l-16.45,9.5c-.3.18-.65.27-1,.27Z"/>
    <path class="st1" d="M25.47,8.19c.36,0,.69.19.87.5l14.5,25.11c.28.48.11,1.09-.37,1.37l-16.45,9.5c-.15.09-.32.13-.5.13-.36,0-.69-.19-.87-.5l-14.5-25.11c-.28-.48-.11-1.09.37-1.37l16.45-9.5c.15-.09.32-.13.5-.13M25.47,6.19c-.51,0-1.02.13-1.5.4L7.52,16.09c-1.43.83-1.93,2.66-1.1,4.1l14.5,25.11c.56.96,1.56,1.5,2.6,1.5.51,0,1.02-.13,1.5-.4l16.45-9.5c1.43-.83,1.93-2.66,1.1-4.1L28.08,7.69c-.56-.96-1.56-1.5-2.6-1.5h0Z"/>
  </g>
  <rect class="st7" x="15" y="10" width="25" height="35" rx="3" ry="3" transform="translate(-7.75 11.06) rotate(-20)"/>
  <g>
    <path class="st3" d="M23.53,46.38c-.84,0-1.59-.53-1.88-1.32l-9.92-27.25c-.38-1.04.16-2.19,1.2-2.56l17.85-6.5c.22-.08.45-.12.68-.12.84,0,1.59.53,1.88,1.32l9.92,27.25c.18.5.16,1.04-.07,1.53s-.63.85-1.13,1.03l-17.85,6.5c-.22.08-.45.12-.68.12Z"/>
    <path class="st1" d="M31.47,9.62c.35,0,.77.2.94.66l9.92,27.25c.12.34.03.62-.03.76-.07.14-.23.39-.56.52l-17.85,6.5c-.11.04-.23.06-.34.06-.35,0-.77-.2-.94-.66l-9.92-27.25c-.12-.34-.03-.62.03-.76.07-.14.23-.39.56-.52l17.85-6.5c.11-.04.23-.06.34-.06M31.47,7.62c-.34,0-.69.06-1.03.18l-17.85,6.5c-1.56.57-2.36,2.29-1.79,3.85l9.92,27.25c.44,1.22,1.59,1.97,2.82,1.97.34,0,.69-.06,1.03-.18l17.85-6.5c1.56-.57,2.36-2.29,1.79-3.85l-9.92-27.25c-.44-1.22-1.59-1.97-2.82-1.97h0Z"/>
  </g>
  <rect class="st7" x="18" y="11" width="25" height="35" rx="3" ry="3" transform="translate(-4.49 5.73) rotate(-10)"/>
  <g>
    <path class="st3" d="M23.66,46.43c-.97,0-1.8-.7-1.97-1.65l-5.04-28.56c-.09-.53.02-1.06.33-1.49.31-.44.76-.73,1.29-.82l18.71-3.3c.12-.02.24-.03.35-.03.97,0,1.8.69,1.97,1.65l5.04,28.56c.19,1.09-.54,2.12-1.62,2.32l-18.71,3.3c-.12.02-.24.03-.35.03Z"/>
    <path class="st1" d="M37.34,11.57c.48,0,.9.35.98.83l5.04,28.56c.1.54-.27,1.06-.81,1.16l-18.71,3.3c-.06.01-.12.02-.18.02-.48,0-.9-.35-.98-.83l-5.04-28.56c-.06-.35.08-.62.17-.75.09-.13.29-.35.65-.41l18.71-3.3c.06-.01.12-.02.18-.02M37.34,9.57c-.17,0-.35.02-.52.05l-18.71,3.3c-1.63.29-2.72,1.84-2.43,3.48l5.04,28.56c.26,1.46,1.52,2.48,2.95,2.48.17,0,.35-.02.52-.05l18.71-3.3c1.63-.29,2.72-1.84,2.43-3.48l-5.04-28.56c-.26-1.46-1.52-2.48-2.95-2.48h0Z"/>
  </g>
  <rect class="st7" x="20" y="12" width="25" height="35" rx="3" ry="3"/>
  <g>
    <rect class="st3" x="21" y="13" width="23" height="33" rx="2" ry="2"/>
    <path class="st1" d="M42,14c.55,0,1,.45,1,1v29c0,.55-.45,1-1,1h-19c-.55,0-1-.45-1-1V15c0-.55.45-1,1-1h19M42,12h-19c-1.66,0-3,1.34-3,3v29c0,1.66,1.34,3,3,3h19c1.66,0,3-1.34,3-3V15c0-1.66-1.34-3-3-3h0Z"/>
  </g>
  <g>
    <circle class="st6" cx="32.75" cy="29.75" r="8.75"/>
    <g>
      <circle class="st8" cx="32.5" cy="29.5" r="8.5"/>
      <path class="st9" d="M32.5,22c4.14,0,7.5,3.36,7.5,7.5s-3.36,7.5-7.5,7.5-7.5-3.36-7.5-7.5,3.36-7.5,7.5-7.5M32.5,21c-4.69,0-8.5,3.81-8.5,8.5s3.81,8.5,8.5,8.5,8.5-3.81,8.5-8.5-3.81-8.5-8.5-8.5h0Z"/>
    </g>
    <path class="st0" d="M32.5,24c3.03,0,5.5,2.47,5.5,5.5s-2.47,5.5-5.5,5.5-5.5-2.47-5.5-5.5,2.47-5.5,5.5-5.5M32.5,22c-4.14,0-7.5,3.36-7.5,7.5s3.36,7.5,7.5,7.5,7.5-3.36,7.5-7.5-3.36-7.5-7.5-7.5h0Z"/>
    <path class="st5" d="M25.44,32c1.03,2.91,3.8,5,7.06,5s6.03-2.09,7.06-5h-14.13Z"/>
    <g>
      <circle class="st4" cx="32.5" cy="29.5" r="2.25"/>
      <path class="st2" d="M32.5,27.5c1.1,0,2,.9,2,2s-.9,2-2,2-2-.9-2-2,.9-2,2-2M32.5,27c-1.38,0-2.5,1.12-2.5,2.5s1.12,2.5,2.5,2.5,2.5-1.12,2.5-2.5-1.12-2.5-2.5-2.5h0Z"/>
    </g>
  </g>
</svg>