<?xml version="1.0" encoding="UTF-8"?>
<svg id="Knight" xmlns="http://www.w3.org/2000/svg" version="1.1" xmlns:xlink="http://www.w3.org/1999/xlink" viewBox="0 0 98 134">
  <!-- Generator: Adobe Illustrator 29.8.1, SVG Export Plug-In . SVG Version: 2.1.1 Build 2)  -->
  <defs>
    <style>
      .st0 {
        fill: #8d8f90;
      }

      .st1 {
        opacity: .6;
      }

      .st1, .st2, .st3, .st4, .st5 {
        isolation: isolate;
      }

      .st1, .st3, .st6 {
        fill: #6b737c;
      }

      .st2 {
        fill: #624f3b;
        opacity: .7;
      }

      .st3, .st4 {
        opacity: .3;
      }

      .st7 {
        fill: #50565d;
      }

      .st8, .st5 {
        fill: #8e99a5;
      }

      .st9 {
        fill: #fff;
      }

      .st10 {
        fill: #e5e5e5;
      }

      .st11 {
        font-family: CooperBlack, 'Cooper Black';
        font-size: 14px;
      }

      .st12 {
        fill: #937659;
      }

      .st13 {
        clip-path: url(#clippath-1);
      }

      .st14 {
        fill: #bcbec0;
      }

      .st15 {
        fill: #231f20;
      }

      .st16 {
        fill: none;
        stroke: #000;
        stroke-miterlimit: 10;
        stroke-width: 2px;
      }

      .st17 {
        fill: #414042;
      }

      .st18 {
        fill: #d88252;
      }

      .st4 {
        fill: #bbc2c9;
      }

      .st19 {
        clip-path: url(#clippath-2);
      }

      .st20 {
        clip-path: url(#clippath);
      }

      .st5 {
        opacity: .4;
      }

      .st21 {
        fill: #c49d76;
      }
    </style>
    <clipPath id="clippath">
      <rect class="st18" x="11" y="9" width="76" height="114"/>
    </clipPath>
    <clipPath id="clippath-1">
      <path class="st8" d="M73.69,101.59h-12.48l13.55-6.17v-3.05l-17.52-8.3-2.62,2.62,12.69,6.6-18.49,8.71-18.49-8.71,12.69-6.6-2.62-2.62-17.52,8.3v3.05l13.55,6.17h-16.4v10.67s9.99,21.65,28.75,26.67v.02s.03,0,.05-.01c.02,0,.03,0,.05.01v-.02c18.76-5.02,28.75-26.67,28.75-26.67v-10.67h-3.92Z"/>
    </clipPath>
    <clipPath id="clippath-2">
      <path class="st21" d="M68.12,117.67l-7.69-11.2h-23.23l-7.69,11.2c7.07,10.2,18.02,15.84,19.24,16.45v.06s.02-.01.06-.03c.04.02.06.03.06.03v-.06c1.22-.61,12.17-6.25,19.24-16.45Z"/>
    </clipPath>
  </defs>
  <path class="st16" d="M83.2,4H14.8c-5.98,0-10.8,4.82-10.8,10.8v104.4c0,5.98,4.82,10.8,10.8,10.8h68.4c5.98,0,10.8-4.82,10.8-10.8V14.8c0-5.98-4.82-10.8-10.8-10.8h0Z"/>
  <rect class="st10" x="7.6" y="7.6" width="82.8" height="118.8" rx="2" ry="2"/>
  <g>
    <rect class="st18" x="11" y="9" width="76" height="114"/>
    <g class="st20">
      <g>
        <rect class="st7" x="6" y="104" width="84" height="26"/>
        <g>
          <circle class="st6" cx="76.5" cy="71.51" r="4.37"/>
          <path class="st6" d="M71.38,91.28l5.23-17.02-2.46-1.18-11.06,18.02s2.09,6.24,8.28.18Z"/>
        </g>
        <g>
          <g>
            <path class="st15" d="M48.85,82.48h0s-.04,0-.06,0c-.02,0-.04,0-.06,0h0c-15.65.28-28.71,4.81-28.71,4.81v24.97s9.98,21.61,28.7,26.66v.04s.05-.01.07-.02c.02,0,.05.01.07.02v-.04c18.72-5.04,28.7-26.66,28.7-26.66v-24.97s-13.06-4.52-28.71-4.8Z"/>
            <g>
              <path class="st8" d="M73.69,101.59h-12.48l13.55-6.17v-3.05l-17.52-8.3-2.62,2.62,12.69,6.6-18.49,8.71-18.49-8.71,12.69-6.6-2.62-2.62-17.52,8.3v3.05l13.55,6.17h-16.4v10.67s9.99,21.65,28.75,26.67v.02s.03,0,.05-.01c.02,0,.03,0,.05.01v-.02c18.76-5.02,28.75-26.67,28.75-26.67v-10.67h-3.92Z"/>
              <g class="st13">
                <path class="st6" d="M48.85,82.48h0s-.04,0-.06,0c-.02,0-.04,0-.06,0h0c-.06,0-.12,0-.18,0v56.37c.06.02.11.03.17.05v.04s.05-.01.07-.02c.02,0,.05.01.07.02v-.04c18.72-5.04,28.7-26.66,28.7-26.66v-24.97s-13.06-4.52-28.71-4.8Z"/>
              </g>
            </g>
            <path class="st21" d="M48.85,139c-4.3-1.14-8.49-3.25-12.46-6.28-3.18-2.42-6.22-5.44-9.04-8.95-4.81-5.99-7.35-11.44-7.37-11.49l.1-.05c.03.05,2.56,5.5,7.36,11.47,2.82,3.51,5.85,6.52,9.02,8.93,3.96,3.02,8.14,5.13,12.42,6.26l-.03.11Z"/>
            <g>
              <path class="st21" d="M68.12,117.67l-7.69-11.2h-23.23l-7.69,11.2c7.07,10.2,18.02,15.84,19.24,16.45v.06s.02-.01.06-.03c.04.02.06.03.06.03v-.06c1.22-.61,12.17-6.25,19.24-16.45Z"/>
              <g class="st19">
                <rect class="st12" x="48.5" y="92" width="25" height="57"/>
              </g>
            </g>
          </g>
          <g>
            <g>
              <path class="st8" d="M3.66,112.81s-1.01-10.59,3.1-17.47c4.11-6.88,10.93-9.58,19.02-9.58,0,0-.2,10.05,2.09,16.59,2.29,6.54,4.32,10.99-6.07,11.67-10.39.67-18.14-1.21-18.14-1.21Z"/>
              <path class="st5" d="M27.87,102.36c-2.29-6.54-2.09-16.59-2.09-16.59-1.42,0-2.81.09-4.14.26.23.66.4,1.34.53,2.02.31,1.63.37,3.29.35,4.94-.02,1.54-.14,3.08-.37,4.6-.24,1.61-.6,3.21-1.18,4.73-.55,1.46-1.31,2.87-2.36,4.03-.46.51-.98.98-1.56,1.36-.47.31-.98.57-1.5.79-1.17.5-2.43.8-3.69.95-1.31.16-2.64.16-3.94-.03-1.2-.18-2.4-.54-3.44-1.18-.31-.19-.61-.42-.88-.66-.16,3.04.05,5.23.05,5.23,0,0,7.76,1.89,18.14,1.21,10.39-.67,8.36-5.13,6.07-11.67Z"/>
            </g>
            <g>
              <path class="st12" d="M25.7,82.08c.59-.02,1.22.62,1.23,1.22.06,3.96.48,7.93,1.41,11.78.93,3.89,2.68,7.5,3.64,11.37.53,2.14,1.04,4.85-.18,6.85-.91,1.49-2.6,2.13-4.25,2.35-5.22.7-10.51.6-15.77.46-2.28-.06-4.56-.06-6.84-.18-1.36-.07-3.33-.34-3.52-2.02,0-.06-.01-.13-.01-.19-.11-3.2,5.41-1.86,7.2-1.71,3.79.3,7.61.48,11.41.25,1.61-.1,3.24-.26,4.81-.65,2.78-.68,3.33-2.49,2.63-5.07-1.01-3.72-2.5-7.19-2.91-11.07-.42-3.94-.55-8.4.26-12.29.05-.26.12-.53.28-.75.17-.23.39-.34.61-.34Z"/>
              <path class="st2" d="M31.98,106.45c-.45-1.81-1.08-3.57-1.71-5.32.48,1.36.93,2.72,1.28,4.12.54,2.15,1.04,4.88-.18,6.89-.91,1.5-2.61,2.14-4.28,2.36-5.25.71-10.57.6-15.86.46-2.29-.06-4.59-.06-6.88-.18-.95-.05-2.19-.2-2.93-.85.21,1.66,2.16,1.93,3.52,2,2.27.12,4.56.12,6.84.18,5.26.14,10.54.25,15.77-.46,1.65-.22,3.34-.86,4.25-2.35,1.22-2,.71-4.71.18-6.85Z"/>
            </g>
          </g>
          <g>
            <g>
              <path class="st8" d="M94.34,112.81s1.01-10.59-3.1-17.47c-4.11-6.88-10.93-9.58-19.02-9.58,0,0,.2,10.05-2.09,16.59-2.29,6.54-4.32,10.99,6.07,11.67,10.39.67,18.14-1.21,18.14-1.21Z"/>
              <path class="st5" d="M70.13,102.36c2.29-6.54,2.09-16.59,2.09-16.59,1.42,0,2.81.09,4.14.26-.23.66-.4,1.34-.53,2.02-.31,1.63-.37,3.29-.35,4.94.02,1.54.14,3.08.37,4.6.24,1.61.6,3.21,1.18,4.73.55,1.46,1.31,2.87,2.36,4.03.46.51.98.98,1.56,1.36.47.31.98.57,1.5.79,1.17.5,2.43.8,3.69.95,1.31.16,2.64.16,3.94-.03,1.2-.18,2.4-.54,3.44-1.18.31-.19.61-.42.88-.66.16,3.04-.05,5.23-.05,5.23,0,0-7.76,1.89-18.14,1.21-10.39-.67-8.36-5.13-6.07-11.67Z"/>
            </g>
            <g>
              <path class="st21" d="M72.3,82.08c-.59-.02-1.22.62-1.23,1.22-.06,3.96-.48,7.93-1.4,11.78-.93,3.89-2.68,7.5-3.64,11.37-.53,2.14-1.04,4.85.18,6.85.91,1.49,2.6,2.13,4.25,2.35,5.22.7,10.51.6,15.77.46,2.28-.06,4.56-.06,6.84-.18,1.36-.07,3.33-.34,3.52-2.02,0-.06.01-.13.01-.19.11-3.2-5.41-1.86-7.2-1.71-3.79.3-7.61.48-11.41.25-1.61-.1-3.24-.26-4.81-.65-2.78-.68-3.33-2.49-2.63-5.07,1.01-3.72,2.5-7.19,2.91-11.07.42-3.94.55-8.4-.26-12.29-.05-.26-.12-.53-.28-.75-.17-.23-.39-.34-.61-.34Z"/>
              <path class="st2" d="M66.02,106.45c.45-1.81,1.08-3.57,1.71-5.32-.48,1.36-.93,2.72-1.28,4.12-.54,2.15-1.04,4.88.18,6.89.91,1.5,2.61,2.14,4.28,2.36,5.25.71,10.57.6,15.86.46,2.29-.06,4.59-.06,6.88-.18.95-.05,2.19-.2,2.93-.85-.21,1.66-2.16,1.93-3.52,2-2.27.12-4.56.12-6.84.18-5.26.14-10.54.25-15.77-.46-1.65-.22-3.34-.86-4.25-2.35-1.22-2-.71-4.71-.18-6.85Z"/>
            </g>
          </g>
          <g>
            <path class="st8" d="M67.17,84.19c-.27-2.15-3.59-2.11-3.59-2.11,0,0,.54-.81.85-1.93.31-1.12-4.44-3.14-4.44-3.14l-11.18.67-11.18-.67s-4.76,2.02-4.44,3.14.85,1.93.85,1.93c0,0-3.32-.04-3.59,2.11,0,0,4.29,10.11,18.33,10.14h0s.02,0,.04,0,.02,0,.04,0h0c14.03-.04,18.33-10.14,18.33-10.14Z"/>
            <path class="st1" d="M61.02,77.48s0,.01,0,.02c3.46,1.7,3.45,4.08-1.98,7.01-4.79,2.59-8.6,3.58-10.23,3.92-1.63-.34-5.44-1.33-10.23-3.92-5.43-2.94-5.44-5.31-1.98-7.01,0,0,0-.01,0-.02-1.38.67-3.63,1.89-3.41,2.67.31,1.12.85,1.93.85,1.93,1.7,2.19,5.83,7.08,14.74,8.05h0s.02,0,.04,0c.01,0,.02,0,.04,0h0c8.91-.97,13.04-5.86,14.74-8.06,0,0,.54-.81.85-1.93.22-.78-2.03-2-3.41-2.67Z"/>
            <path class="st1" d="M59.88,77.01l-11.08.66-11.08-.66c-.41.16-.79.32-1.13.49,1,3.11,3.89,7.48,12.17,8.86h0s.02,0,.04,0c.01,0,.02,0,.04,0h0c8.29-1.39,11.18-5.77,12.17-8.87-.34-.17-.72-.33-1.13-.49Z"/>
          </g>
        </g>
        <g>
          <g>
            <path class="st8" d="M64.9,60.64s.69-7.66-2.91-13.8c-3.11-5.29-10.43-11.91-12.4-13.64-.3-.26-.68-.26-.98,0-1.96,1.73-9.29,8.35-12.4,13.64-3.61,6.14-2.91,13.8-2.91,13.8,0,0,16.19-8.45,31.6,0Z"/>
            <path class="st4" d="M34.85,53.59c.32.35.72.54,1.12.62.63.12,1.29.04,1.91-.12,1.3-.33,2.52-1.09,3.66-1.98,1.06-.83,2.06-1.78,2.94-2.93.82-1.07,1.54-2.28,2.14-3.6.6-1.31,1.08-2.71,1.47-4.16.19-.73.36-1.48.51-2.23.17-.88.29-1.77.37-2.67.1-1.17.14-2.35.13-3.53-.17,0-.34.07-.49.2-1.96,1.73-9.29,8.35-12.4,13.64-.97,1.66-1.63,3.42-2.08,5.12.11.63.34,1.22.72,1.63Z"/>
            <path class="st3" d="M61.99,46.84c-3.11-5.29-10.43-11.91-12.4-13.64-.12-.11-.26-.17-.39-.19v23.88c4.85-.09,10.32.8,15.7,3.75,0,0,.69-7.66-2.91-13.8Z"/>
          </g>
          <g>
            <path class="st14" d="M63.89,61.2l1.74-.54-.11-5.7c-11.52,4.76-16.49-6.12-16.71-6.62v-.02s0,0,0,.01c0,0,0-.01,0-.01v.02c-.22.5-5.19,11.38-16.71,6.62l-.11,5.7,1.74.54-.08,2.12-.72-.17,1.88,14.01,14,7.91h0s0,0,0,0h0s0,0,0,0l14-7.91,1.88-14.01-.72.17-.08-2.12Z"/>
            <path class="st0" d="M48.8,48.32s4.93,11.51,16.72,6.64l.11,5.7-1.74.54.08,2.12.72-.17-1.88,14.01-14.01,7.92s0-37.09,0-36.76Z"/>
            <g>
              <g>
                <g>
                  <g>
                    <circle class="st17" cx="45.52" cy="70.35" r=".99"/>
                    <circle class="st17" cx="45.52" cy="73.54" r=".99"/>
                    <path class="st17" d="M46.51,76.73c0,.55-.44.99-.99.99s-.99-.44-.99-.99.44-.99.99-.99.99.44.99.99Z"/>
                  </g>
                  <g>
                    <circle class="st17" cx="39.22" cy="68.73" r=".99"/>
                    <circle class="st17" cx="39.22" cy="71.92" r=".99"/>
                    <circle class="st17" cx="39.22" cy="75.11" r=".99"/>
                  </g>
                  <g>
                    <circle class="st17" cx="42.51" cy="71.59" r=".99"/>
                    <circle class="st17" cx="42.51" cy="74.78" r=".99"/>
                  </g>
                </g>
                <polygon class="st17" points="45.35 63.51 33.73 61.2 33.64 63.33 45.35 66.84 45.35 63.51"/>
              </g>
              <g>
                <g>
                  <g>
                    <circle class="st17" cx="52.09" cy="70.35" r=".99"/>
                    <circle class="st17" cx="52.09" cy="73.54" r=".99"/>
                    <path class="st17" d="M51.1,76.73c0,.55.44.99.99.99s.99-.44.99-.99-.44-.99-.99-.99-.99.44-.99.99Z"/>
                  </g>
                  <g>
                    <circle class="st17" cx="58.39" cy="68.73" r=".99"/>
                    <circle class="st17" cx="58.39" cy="71.92" r=".99"/>
                    <circle class="st17" cx="58.39" cy="75.11" r=".99"/>
                  </g>
                  <g>
                    <circle class="st17" cx="55.11" cy="71.59" r=".99"/>
                    <circle class="st17" cx="55.11" cy="74.78" r=".99"/>
                  </g>
                </g>
                <polygon class="st17" points="52.27 63.51 63.89 61.2 63.97 63.33 52.27 66.84 52.27 63.51"/>
              </g>
            </g>
          </g>
        </g>
      </g>
    </g>
  </g>
  <text class="st11" transform="translate(25.86 27.43)"><tspan x="0" y="0">K</tspan></text>
  <text class="st11" transform="translate(37.44 27.43) scale(.7)"><tspan x="0" y="0">NIGHT</tspan></text>
  <path class="st9" d="M83.2,11.2c1.98,0,3.6,1.62,3.6,3.6v104.4c0,1.98-1.62,3.6-3.6,3.6H14.8c-1.98,0-3.6-1.62-3.6-3.6V14.8c0-1.98,1.62-3.6,3.6-3.6h68.4M83.2,4H14.8c-5.98,0-10.8,4.82-10.8,10.8v104.4c0,5.98,4.82,10.8,10.8,10.8h68.4c5.98,0,10.8-4.82,10.8-10.8V14.8c0-5.98-4.82-10.8-10.8-10.8h0Z"/>
</svg>