<?xml version="1.0" encoding="UTF-8"?>
<svg id="Layer_1" xmlns="http://www.w3.org/2000/svg" version="1.1" xmlns:xlink="http://www.w3.org/1999/xlink" viewBox="0 0 54 54">
  <!-- Generator: Adobe Illustrator 29.8.1, SVG Export Plug-In . SVG Version: 2.1.1 Build 2)  -->
  <defs>
    <style>
      .st0 {
        fill: #ad7156;
      }

      .st1 {
        fill: url(#linear-gradient1);
        opacity: .74;
      }

      .st1, .st2, .st3 {
        isolation: isolate;
      }

      .st4 {
        fill: url(#radial-gradient);
      }

      .st5 {
        fill: #965b44;
      }

      .st6 {
        fill: #ffcc80;
      }

      .st2 {
        fill: #b5772c;
        opacity: .82;
      }

      .st7 {
        fill: #ce8963;
      }

      .st8 {
        fill: #633d35;
      }

      .st9 {
        fill: url(#linear-gradient);
      }

      .st3 {
        fill: #7f441c;
        opacity: .66;
      }
    </style>
    <linearGradient id="linear-gradient" x1="3.34" y1="56.44" x2="3.34" y2="56.44" gradientTransform="translate(21 371) scale(6.25 -6.25)" gradientUnits="userSpaceOnUse">
      <stop offset="0" stop-color="#ce8963"/>
      <stop offset="1" stop-color="#d08a61" stop-opacity="0"/>
    </linearGradient>
    <radialGradient id="radial-gradient" cx="102.69" cy="57.56" fx="102.69" fy="57.56" r="1.51" gradientTransform="translate(780.15 344.02) rotate(-180) scale(7.37 5.88)" gradientUnits="userSpaceOnUse">
      <stop offset=".06" stop-color="#ffa726"/>
      <stop offset=".14" stop-color="#ffa726"/>
      <stop offset="1" stop-color="#ffa726" stop-opacity=".1"/>
    </radialGradient>
    <linearGradient id="linear-gradient1" x1="111.66" y1="58.32" x2="112.84" y2="58.32" gradientTransform="translate(725.69 371) rotate(-180) scale(6.25)" gradientUnits="userSpaceOnUse">
      <stop offset="0" stop-color="#8a5140"/>
      <stop offset="1" stop-color="#8a5140"/>
    </linearGradient>
  </defs>
  <path class="st8" d="M13.64,48.44l-3.66,1.95v-8.77l4.58,4.87-.91,1.95Z"/>
  <path class="st0" d="M40.92,7.83c0,1.31.22,9.35.22,9.35,0,0,.11.86.76,1.08.43.14,1.36-.16,2.49-1.05.15-.12.36-.13.52-.04.44.26,1.37.77,1.96,2.31.65,1.71.53,3.14.43,3.75-.03.2-.13.39-.25.54-1.06,1.31-6.35,8.08-6.35,12.39,0,0,.09,6.29.09,9.99,0,3.37-5.7,6.19-13.27,6.84l-4.23-1.16-4.87.87c-1.55-.24-2.99-.57-4.29-.98l-3.25-9.15-.91,7.8s-2.44-2.5-2.44-4.23c0-3.73-.91-38.3-.91-38.3l34.3-.02h0Z"/>
  <path class="st9" d="M41.9,18.26"/>
  <path class="st7" d="M17.86,14.64c-.14,2.42-.4,4.82-.67,7.21l-.4,3.58c-.13,1.19-.29,2.37-.26,3.52,0,1.17.06,2.38.12,3.57l.16,3.6c.1,2.41.2,4.81.18,7.24-.52-2.37-.89-4.76-1.19-7.15-.3-2.4-.53-4.8-.57-7.25,0-1.27.17-2.48.34-3.68.19-1.2.38-2.39.62-3.57.47-2.37,1-4.73,1.67-7.06h0Z"/>
  <path class="st7" d="M12.2,26.82c.12.3.13.64.17.95.02.32.04.64.05.97.02.64.03,1.29.02,1.93,0,1.29-.06,2.57-.13,3.86-.07,1.28-.15,2.56-.26,3.84-.09,1.28-.23,2.56-.35,3.84v-.16s.6,2.27.6,2.27l.59,2.28c.38,1.52.74,3.05,1.05,4.59-.57-1.46-1.1-2.95-1.6-4.43l-.74-2.23-.7-2.23-.02-.07v-.08c.12-1.27.21-2.55.33-3.83.11-1.27.23-2.55.36-3.83l.39-3.82.19-1.91c.03-.32.06-.64.08-.96,0-.32.05-.64-.01-.96h0Z"/>
  <path class="st7" d="M22.87,40.96v10.88l3.48.87s-2.18-6.53-3.48-11.75Z"/>
  <path class="st5" d="M35.92,33.56c2.47-5.63,11.17-11.72,11.17-11.72l.26-.19c.05.77,0,1.32-.06,1.63-.03.13-.13.36-.2.44-.84,1.03-6.38,8.01-6.38,12.44,0,0,.09,6.29.09,9.99,0,1.66-1.83,3.94-5.74,5.24l1.74-12.62-3.92,3.92s1.31-5.17,3.05-9.13h0Z"/>
  <path class="st5" d="M41.14,16.9c.11,1.76,1.34,1.36,1.34,1.36-1.41.66-3.45,1.03-4.64.24-1.31-.87-1.92-5.39-1.92-5.39l.87-2.61,4.11-2.41.24,8.8Z"/>
  <path class="st6" d="M22.86,1.01c-8.72.2-15.66,3.25-15.66,6.98s7.42,6.98,16.57,6.98,16.57-3.13,16.57-6.98-6.87-6.75-15.54-6.97"/>
  <path class="st7" d="M22.86,1.01c-3.12.25-6.23.74-9.13,1.81-1.44.53-2.85,1.18-4.03,2.09-.58.46-1.11.97-1.47,1.56-.37.58-.51,1.24-.41,1.86.1.62.46,1.21.94,1.72.48.5,1.07.95,1.7,1.33,1.27.75,2.71,1.29,4.17,1.69,2.94.81,6.02,1.15,9.09,1.14,3.07,0,6.15-.32,9.09-1.12,1.46-.4,2.9-.93,4.18-1.67.64-.37,1.24-.8,1.72-1.31.49-.5.87-1.08.99-1.7.14-.62,0-1.27-.34-1.87-.34-.59-.86-1.12-1.43-1.58-1.16-.93-2.57-1.58-4.01-2.12-2.89-1.08-6-1.58-9.12-1.84.78-.01,1.57,0,2.35.02.78.04,1.57.1,2.35.2,1.56.19,3.12.47,4.65.93,1.52.47,3.02,1.07,4.37,2.03.67.48,1.3,1.06,1.77,1.81.47.74.73,1.71.56,2.64-.15.93-.65,1.73-1.23,2.36-.58.64-1.26,1.14-1.97,1.58-1.41.86-2.93,1.45-4.47,1.91-3.1.89-6.3,1.24-9.49,1.25-3.19-.03-6.39-.38-9.48-1.28-1.54-.47-3.06-1.07-4.46-1.94-.7-.44-1.37-.96-1.95-1.61-.57-.64-1.04-1.47-1.17-2.4-.06-.46-.03-.94.09-1.38.11-.45.32-.85.56-1.22.48-.74,1.13-1.3,1.8-1.78,1.36-.93,2.86-1.53,4.39-1.99,1.53-.44,3.09-.72,4.66-.91.78-.09,1.57-.15,2.35-.19s1.58-.03,2.36-.02h0Z"/>
  <path class="st4" d="M6.94,6.83c0,3.06,6.24,5.54,13.93,5.54s13.93-2.48,13.93-5.54S32.09.25,20.88,1.29c-7.66.72-13.93,2.48-13.93,5.54Z"/>
  <path class="st3" d="M10.93,7.26c0,.6.35,1.15.78,1.57.44.42.96.74,1.51,1.02,1.09.54,2.27.89,3.46,1.16,2.38.5,4.83.68,7.26.65s4.86-.27,7.21-.85c1.17-.3,2.32-.67,3.37-1.22.52-.27,1.01-.6,1.42-.98.39-.39.68-.86.67-1.34,0-.47-.3-.93-.7-1.31-.41-.37-.9-.69-1.43-.94-1.05-.52-2.21-.87-3.37-1.14-1.17-.27-2.36-.45-3.56-.57-1.2-.13-2.41-.19-3.61-.2-2.41-.02-4.84.1-7.22.56-1.18.24-2.36.56-3.46,1.07-.54.26-1.07.57-1.51.98-.43.4-.8.94-.8,1.54ZM10.84,7.26c0-.64.36-1.21.8-1.65.45-.44.96-.79,1.51-1.08,1.09-.6,2.26-1.02,3.45-1.35,2.38-.66,4.86-.99,7.34-1.01,1.24,0,2.48.05,3.72.17,1.24.13,2.46.34,3.68.64,1.21.31,2.41.7,3.54,1.29.57.3,1.11.65,1.6,1.12.23.24.46.51.63.82.17.31.28.68.27,1.06s-.12.74-.29,1.05-.4.57-.64.8c-.49.45-1.04.8-1.61,1.07-1.14.56-2.33.93-3.54,1.21-2.42.54-4.89.74-7.35.73-2.46-.04-4.93-.31-7.31-.93-1.19-.31-2.36-.7-3.45-1.27-.55-.28-1.07-.62-1.52-1.04-.44-.43-.82-.98-.82-1.63h0Z"/>
  <path class="st2" d="M13.86,6.77c0,1.61,4.2,2.92,9.39,2.92s9.39-1.31,9.39-2.92-4.2-2.92-9.39-2.92-9.39,1.31-9.39,2.92h0ZM15.46,6.77c0-1.21,3.32-2.19,7.41-2.19s7.41.98,7.41,2.19-3.32,2.19-7.41,2.19-7.41-.98-7.41-2.19h0Z"/>
  <ellipse class="st1" cx="24.13" cy="6.52" rx="3.69" ry=".97"/>
</svg>