<?xml version="1.0" encoding="UTF-8"?>
<svg id="Monopoly" xmlns="http://www.w3.org/2000/svg" version="1.1" xmlns:xlink="http://www.w3.org/1999/xlink" viewBox="0 0 98 134">
  <!-- Generator: Adobe Illustrator 29.8.1, SVG Export Plug-In . SVG Version: 2.1.1 Build 2)  -->
  <defs>
    <style>
      .st0 {
        fill: #97bfcc;
      }

      .st1 {
        fill: #fff;
      }

      .st2 {
        fill: #e5e5e5;
      }

      .st3 {
        font-family: CooperBlack, 'Cooper Black';
        font-size: 14px;
      }

      .st4 {
        fill: #783530;
      }

      .st5 {
        fill: none;
        stroke: #000;
        stroke-miterlimit: 10;
        stroke-width: 2px;
      }

      .st6 {
        fill: #f0a561;
      }

      .st7 {
        fill: #ffe8cf;
      }

      .st8 {
        clip-path: url(#clippath);
      }
    </style>
    <clipPath id="clippath">
      <rect class="st0" x="11" y="9" width="76" height="114"/>
    </clipPath>
  </defs>
  <path class="st5" d="M83.2,4H14.8c-5.98,0-10.8,4.82-10.8,10.8v104.4c0,5.98,4.82,10.8,10.8,10.8h68.4c5.98,0,10.8-4.82,10.8-10.8V14.8c0-5.98-4.82-10.8-10.8-10.8h0Z"/>
  <rect class="st2" x="7.6" y="7.6" width="82.8" height="118.8" rx="2" ry="2"/>
  <g>
    <rect class="st0" x="11" y="9" width="76" height="114"/>
    <g class="st8">
      <g>
        <path class="st7" d="M68.43,119.95c0-.86.23-2.08-.07-2.96-.03-.09-.06-.18-.1-.26-.87-1.71-3.75-1.49-5.34-1.45,1.71-.91,4.56-.24,5.34-2.47.37-1.07.19-2.41.2-3.52.02-1.55.07-3.1-.2-4.63-.24-1.32.05-2.89-.34-4.2-1.67.36-3.46.33-5.11.78.71.08,3.14.38,3.38.89v.04c.27,1.04-2.59,2.14-3.28,2.63-.87.54-9.83,6.76-10.47,6.01-.77.98-1.57,2.01-2.4,3.1-2.54,3.35-3.36,6.64-3.68,6.43-.32-.21.33-4.45,2.99-7.71.92-1.13,1.8-2.19,2.66-3.2-.33-2.06-.18-5.46-.18-6.3,0-.49.17-.89.54-1.35.08-.12,1.12-1.04,1.1-1.07.42.55,1.15,1.11,1.7,1.52-.05-.83-.32-1.61-.28-2.47.03-.74.23-1.49.27-2.22.07-1.11.23-2.21.57-3.31.95-.34,1.71-.76,2.59-1.16.84-.39,2.09-1.3,3.01-1.4.44.61.46,1.25.65,1.93.04.14.09.3.15.46.18-.02.37-.04.56-.05.07-.44.12-.89.21-1.35.14-.72.75-1.43,1.06-2.12.14-.31.16-.73.44-.98.29-.25,1.05-.46,1.58-.63-.29-.16-.58-.33-.9-.44-.66-.22-2-.08-2.35-.74.59-.31,1.29-.51,1.82-.91.87-.65,1.39-1.82,1.47-2.86.22-2.68.91-5.35,1.27-8.03.17-1.26-.1-2.51-.02-3.76.07-.98.45-1.76.73-2.67.67-2.16.13-4.68-.17-6.86-.81-.19-1.69-.06-2.52-.17-1.23-.16-2.43-.53-3.66-.69.77-.31,1.64-.49,2.45-.79.69-.25,1.9-.23,2.48-.57.78-.46.68-1.42.79-2.2.19-1.33-.06-2.68.09-4.01.1-.87.57-1.57.75-2.41.03-.17.07-.57.09-1.14.12-2.55.17-8.41.16-11.15,0-.9-.01-1.46-.02-1.46H6.92s0,.63,0,1.46c0,1.61,0,3.99,0,4.18,0,1.79.27,3.8-.22,5.54-.14.49-.24.96-.31,1.43-.2,1.28-.17,2.52.02,3.93.19,1.38-.41,3.98.24,5.21.54,1.04,1.94,1.82,2.75,2.66.94.97,1.23,1.91,2.42,2.7-.69.41-1.73.32-2.31.86-.65.61-.62,1.83-1.11,2.57-.41.61-1.09.88-1.35,1.58-.3.82-.49,2.16-.64,3.04-.4,2.35.25,4.89.1,7.27-.19,2.92-.02,5.88.02,8.8.01.93-.22,2.16.28,2.95.64,1.02,2.12,1.56,3.05,2.28-1.24.94-2.35,1.21-2.63,2.86-.24,1.4,0,3.18.18,4.59.21,1.71,2.25,1.97,3.56,2.59,1.6.75,3.21,1.45,4.91,1.96,1.62.48,3.42.85,5.09,1.13-.96.48-2.23.44-3.31.61-.62.1-1.26.31-1.88.31-.77,0-1.51-.26-2.32-.12-2.15.37-4.39-.1-5.73,2.01-1.41-.76-.77,3.81-.8,4.59-.02.65-.03,1.29-.04,1.95,0,1.34.01,2.68.03,4.01.03,2.38,0,4.76.01,7.14,0,.2,0,.41,0,.61,0,.07,0,1.25,0,1.25h61.52s0-.85,0-1.86c0-1.43,0-3.18,0-3.3,0-1.63-.02-3.26-.01-4.89h0Z"/>
        <path class="st6" d="M79.32,45.11c0-.85-2.65-1.57-5.04-1.8v3.6c2.4-.23,5.04-.95,5.04-1.8h0Z"/>
        <path class="st6" d="M-3.96,45.11c0,.85,2.65,1.57,5.04,1.8v-3.6c-2.4.23-5.04.95-5.04,1.8h0Z"/>
        <path class="st6" d="M74.27,120.77v3.6c2.4-.23,5.04-.95,5.04-1.8s-2.65-1.57-5.04-1.8h0Z"/>
        <path class="st6" d="M-3.96,122.57c0,.85,2.65,1.57,5.04,1.8v-3.6c-2.4.23-5.04.95-5.04,1.8h0Z"/>
        <path class="st6" d="M52.01,109.43c-.86,1.01-1.74,2.07-2.66,3.2-2.65,3.26-3.3,7.5-2.99,7.71.32.21,1.14-3.08,3.68-6.43.82-1.09,1.62-2.12,2.4-3.1,13.61-17.22,19.58-18.23,19.28-18.44-.3-.2-6.27,1.22-19.71,17.06h0Z"/>
        <path class="st4" d="M6.92,39.53h-3.75v1.5H1.08v8.14h2.09v1.5h3.22c.07-.47.18-.94.31-1.43.49-1.73.21-3.75.22-5.54,0-.18,0-2.57,0-4.18h0Z"/>
        <path class="st4" d="M72.9,50.68v-1.5h1.37v-8.14h-1.37v-1.5h-4.44c0,2.74-.04,8.6-.16,11.15h4.6Z"/>
        <path class="st4" d="M72.9,117h-4.54c.29.88.07,2.1.07,2.96,0,1.63,0,3.26.01,4.89,0,.12,0,1.87,0,3.3h4.46v-1.5h1.37v-8.14h-1.37v-1.5h0Z"/>
        <path class="st4" d="M6.87,117h-3.7v1.5H1.08v8.14h2.09v1.5h3.75c0-2.38.02-4.76-.01-7.14-.02-1.33-.04-2.67-.03-4.01h0Z"/>
        <path class="st4" d="M80.22,88.59c-.28.46-1.2,1.05-1.93,1.27-.8-1.15.14-1.79-2.43-2.14-1.73-.22-3.95-.57-5.52-.24-1.45.3-2.85.89-4.16,1.38-.06.02-.13.04-.2.07-.52.17-1.29.38-1.58.63-.29.25-.31.67-.44.98-.31.69-.92,1.41-1.06,2.12-.09.46-.14.91-.21,1.35-.07.44-.16.87-.32,1.33.04-.39-.1-.85-.24-1.28-.05-.16-.1-.32-.15-.46-.19-.67-.21-1.32-.65-1.93-.92.1-2.18,1.01-3.01,1.4-.89.4-1.65.82-2.59,1.16-.35,1.1-.5,2.2-.57,3.31-.05.73-.24,1.49-.27,2.22-.03.86.24,1.64.28,2.47-.55-.41-1.28-.97-1.7-1.52.02.03-1.02.95-1.1,1.07-.36.46-.53.86-.54,1.35,0,.84-.15,4.24.18,6.3,13.44-15.83,19.42-17.26,19.71-17.06.3.2-5.67,1.22-19.28,18.44.64.75,9.59-5.48,10.47-6.01.69-.49,3.55-1.59,3.3-2.63v-.04c-.26-.51-2.68-.81-3.4-.89,1.65-.45,3.44-.42,5.11-.78.04,0,.08-.01.11-.02,2.78-.63,5.21-1.78,7.91-2.6,1.81-.51,1.27-.9-.6-1.44-1.34-.37-2.67-.73-4.05-.92.79-.24,2.37-.02,3.32.04,1.49.08,2.52.14,3.9-.02,1.38-.2,4.84-.46,4.94-1.59-1.41-.69-2.87-1.29-4.36-1.76,1.16.19,3.94-.12,4.57-.56,1.33-.98-1.7-2.68-3.45-3.01h0Z"/>
        <path class="st4" d="M60.44,55.18c-.47,0-.88.08-1.27.17-.39.09-.76.19-1.17.25-.14.02-.26.03-.38.03-.26,0-.48-.04-.73-.1-.25-.06-.52-.13-.84-.18-.32-.05-.64-.07-.96-.07-1.38,0-2.72.36-3.99.35h-.04c-.54,0-1.06-.1-1.59-.2-.53-.1-1.07-.2-1.65-.2-.21,0-.43.01-.66.05-.36.05-.71.07-1.06.07-.6,0-1.19-.05-1.83-.05-.2,0-.4,0-.61.02-.77.05-1.5.24-2.22.41-.72.17-1.41.34-2.11.37-.04,0-.09,0-.13,0-.67,0-1.26-.21-1.89-.47-.63-.25-1.29-.54-2.09-.61-.17-.02-.34-.02-.51-.02-.63,0-1.22.1-1.78.2-.56.1-1.1.19-1.64.19-.43,0-.85-.06-1.3-.22-.7-.25-1.29-.54-1.89-.78-.6-.24-1.23-.42-1.97-.41-.31,0-.63.03-.98.1-.65.12-1.22.37-1.77.57-.55.21-1.07.37-1.63.37h-.01c-.6,0-1.19-.12-1.86-.14-.18,0-.34,0-.49,0-.29,0-.53.02-.79.09-.26.07-.51.2-.81.38-.3.19-.57.43-.83.64-.26.21-.51.36-.75.42-.16.04-.26.2-.22.37.04.16.2.26.37.22.39-.09.7-.31.98-.53.28-.22.54-.45.77-.6.28-.17.47-.26.65-.31.18-.05.36-.07.63-.07.14,0,.29,0,.48,0,.61.01,1.2.13,1.88.14h.01c.68,0,1.28-.2,1.84-.41.57-.21,1.1-.44,1.67-.55.32-.06.6-.09.87-.09.65,0,1.18.15,1.75.37.57.22,1.17.52,1.91.78.52.19,1.02.25,1.5.25.61,0,1.18-.1,1.74-.2.56-.1,1.11-.19,1.67-.19.15,0,.3,0,.45.02.69.06,1.29.32,1.93.57.64.25,1.31.51,2.12.51.05,0,.1,0,.15,0,.78-.03,1.52-.21,2.23-.38.72-.18,1.42-.35,2.12-.4.19-.01.38-.02.57-.02.6,0,1.2.05,1.83.05.37,0,.75-.02,1.15-.08.19-.03.38-.04.57-.04.51,0,1.01.09,1.54.19.53.1,1.09.2,1.7.21h.04c1.38,0,2.72-.36,3.99-.35.29,0,.58.02.87.06.28.04.53.11.79.17.26.06.55.12.87.12.15,0,.31-.01.47-.04.45-.07.84-.18,1.21-.26.37-.08.73-.15,1.14-.15.17,0,.3-.14.3-.31,0-.17-.14-.3-.31-.3h0Z"/>
        <path class="st4" d="M60.44,58.79c-.47,0-.88.08-1.27.17-.39.09-.76.19-1.17.26-.14.02-.26.03-.38.03-.26,0-.48-.04-.73-.1-.25-.06-.52-.13-.84-.18-.32-.05-.64-.07-.96-.07-1.38,0-2.72.36-3.99.35h-.04c-.54,0-1.06-.1-1.59-.2-.53-.1-1.07-.2-1.65-.2-.21,0-.43.01-.66.05-.36.05-.71.07-1.06.07-.6,0-1.19-.05-1.83-.06-.2,0-.4,0-.61.02-.77.05-1.5.24-2.22.41-.72.17-1.41.34-2.11.37-.04,0-.09,0-.13,0-.67,0-1.26-.21-1.89-.47-.63-.25-1.29-.54-2.09-.61-.17-.02-.34-.02-.51-.02-.63,0-1.22.1-1.78.2-.56.1-1.1.19-1.64.19-.43,0-.85-.06-1.3-.22-.7-.25-1.29-.54-1.89-.78-.6-.24-1.23-.42-1.97-.41-.31,0-.63.03-.98.1-.65.12-1.22.37-1.77.57-.55.21-1.07.37-1.63.37h-.01c-.6,0-1.19-.12-1.86-.14-.18,0-.34,0-.49,0-.29,0-.53.02-.79.09-.26.07-.51.19-.81.38-.3.19-.57.43-.83.64-.26.2-.51.36-.75.42-.16.04-.26.2-.22.37.04.16.2.26.37.22.39-.09.7-.31.98-.53.28-.22.54-.45.77-.6.28-.17.47-.26.65-.31.18-.05.36-.07.63-.07.14,0,.29,0,.48,0,.61.01,1.2.13,1.88.14h.01c.68,0,1.28-.2,1.84-.41.57-.21,1.1-.44,1.67-.55.32-.06.6-.09.87-.09.65,0,1.18.15,1.75.37.57.22,1.17.52,1.91.78.52.19,1.02.25,1.5.25.61,0,1.18-.1,1.74-.2.56-.1,1.11-.19,1.67-.19.15,0,.3,0,.45.02.69.06,1.29.32,1.93.57.64.25,1.31.51,2.12.51.05,0,.1,0,.15,0,.78-.03,1.52-.21,2.23-.38s1.42-.35,2.12-.4c.19-.01.38-.02.57-.02.6,0,1.2.05,1.83.06.37,0,.75-.02,1.15-.08.19-.03.38-.04.57-.04.51,0,1.01.09,1.54.19.53.1,1.09.2,1.7.21h.04c1.38,0,2.72-.36,3.99-.35.29,0,.58.02.87.06.28.04.53.11.79.17.26.06.55.12.87.12.15,0,.31-.01.47-.04.45-.07.84-.18,1.21-.26.37-.08.73-.15,1.14-.15.17,0,.3-.14.3-.31,0-.17-.14-.3-.31-.3h0Z"/>
        <path class="st4" d="M60.44,62.39c-.47,0-.88.08-1.27.17-.39.09-.76.19-1.17.25-.14.02-.26.03-.38.03-.26,0-.48-.04-.73-.1-.25-.06-.52-.13-.84-.18-.32-.05-.64-.07-.96-.07-1.38,0-2.72.36-3.99.35h-.04c-.54,0-1.06-.1-1.59-.2-.53-.1-1.07-.2-1.65-.2-.21,0-.43.01-.66.05-.36.05-.71.07-1.06.07-.6,0-1.19-.05-1.83-.05-.2,0-.4,0-.61.02-.77.05-1.5.24-2.22.41-.72.17-1.41.34-2.11.37-.04,0-.09,0-.13,0-.67,0-1.26-.21-1.89-.46-.63-.25-1.29-.54-2.09-.61-.17-.02-.34-.02-.51-.02-.63,0-1.22.1-1.78.2-.56.1-1.1.19-1.64.19-.43,0-.85-.06-1.3-.22-.7-.25-1.29-.54-1.89-.78-.6-.24-1.23-.42-1.97-.41-.31,0-.63.03-.98.1-.65.12-1.22.37-1.77.57-.55.21-1.07.37-1.63.37h-.01c-.6,0-1.19-.12-1.86-.14-.18,0-.34,0-.49,0-.29,0-.53.02-.79.09-.26.07-.51.2-.81.38-.3.19-.57.43-.83.64-.26.2-.51.36-.75.42-.16.04-.26.2-.22.37.04.16.2.26.37.22.39-.09.7-.31.98-.53.28-.22.54-.45.77-.6.28-.17.47-.26.65-.31.18-.05.36-.07.63-.07.14,0,.29,0,.48,0,.61.01,1.2.13,1.88.14h.01c.68,0,1.28-.2,1.84-.41.57-.21,1.1-.44,1.67-.55.32-.06.6-.09.87-.09.65,0,1.18.15,1.75.37.57.22,1.17.52,1.91.78.52.19,1.02.25,1.5.25.61,0,1.18-.1,1.74-.2.56-.1,1.11-.19,1.67-.19.15,0,.3,0,.45.02.69.06,1.29.32,1.93.57.64.25,1.31.51,2.12.51.05,0,.1,0,.15,0,.78-.03,1.52-.21,2.23-.38.72-.18,1.42-.35,2.12-.4.19-.01.38-.02.57-.02.6,0,1.2.05,1.83.05.37,0,.75-.02,1.15-.08.19-.03.38-.04.57-.04.51,0,1.01.09,1.54.19.53.1,1.09.2,1.7.21h.04c1.38,0,2.72-.36,3.99-.35.29,0,.58.02.87.06.28.04.53.11.79.17.26.06.55.12.87.12.15,0,.31-.01.47-.04.45-.07.84-.18,1.21-.26.37-.08.73-.15,1.14-.15.17,0,.3-.14.3-.31,0-.17-.14-.3-.31-.3h0Z"/>
        <path class="st4" d="M60.44,66c-.47,0-.88.08-1.27.17-.39.09-.76.19-1.17.26-.14.02-.26.03-.38.03-.26,0-.48-.04-.73-.1-.25-.06-.52-.13-.84-.18-.32-.05-.64-.07-.96-.07-1.38,0-2.72.36-3.99.35h-.04c-.54,0-1.06-.1-1.59-.2-.53-.1-1.07-.2-1.65-.2-.21,0-.43.01-.66.05-.36.05-.71.07-1.06.07-.6,0-1.19-.05-1.83-.06-.2,0-.4,0-.61.02-.77.05-1.5.24-2.22.41-.72.17-1.41.34-2.11.37-.04,0-.09,0-.13,0-.67,0-1.26-.21-1.89-.46-.63-.25-1.29-.54-2.09-.61-.17-.02-.34-.02-.51-.02-.63,0-1.22.1-1.78.2-.56.1-1.1.19-1.64.19-.43,0-.85-.06-1.3-.22-.7-.25-1.29-.54-1.89-.78-.6-.24-1.23-.42-1.97-.41-.31,0-.63.03-.98.1-.65.12-1.22.37-1.77.57-.55.21-1.07.37-1.63.37h-.01c-.6,0-1.19-.12-1.86-.14-.18,0-.34,0-.49,0-.29,0-.53.02-.79.09-.26.07-.51.19-.81.38-.3.19-.57.43-.83.64-.26.21-.51.37-.75.42-.16.04-.26.2-.22.37.04.16.2.26.37.22.39-.09.7-.31.98-.53.28-.22.54-.45.77-.6.28-.17.47-.26.65-.31.18-.05.36-.07.63-.07.14,0,.29,0,.48,0,.61.01,1.2.13,1.88.14h.01c.68,0,1.28-.2,1.84-.41.57-.21,1.1-.44,1.67-.55.32-.06.6-.09.87-.09.65,0,1.18.15,1.75.37.57.22,1.17.52,1.91.78.52.19,1.02.25,1.5.25.61,0,1.18-.1,1.74-.2.56-.1,1.11-.19,1.67-.19.15,0,.3,0,.45.02.69.06,1.29.32,1.93.57.64.25,1.31.51,2.12.51.05,0,.1,0,.15,0,.78-.03,1.52-.21,2.23-.38.72-.17,1.42-.35,2.12-.4.19-.01.38-.02.57-.02.6,0,1.2.05,1.83.06.37,0,.75-.02,1.15-.08.19-.03.38-.04.57-.04.51,0,1.01.09,1.54.19.53.1,1.09.2,1.7.21h.04c1.38,0,2.72-.36,3.99-.35.29,0,.58.02.87.06.28.04.53.11.79.17.26.06.55.12.87.12.15,0,.31-.01.47-.04.45-.07.84-.18,1.21-.26.37-.08.73-.15,1.14-.15.17,0,.3-.14.3-.31,0-.17-.14-.3-.31-.3h0Z"/>
        <path class="st4" d="M60.44,69.6c-.47,0-.88.08-1.27.17-.39.09-.76.19-1.17.25-.14.02-.26.03-.38.03-.26,0-.48-.04-.73-.1-.25-.06-.52-.13-.84-.18-.32-.05-.64-.07-.96-.07-1.38,0-2.72.36-3.99.35h-.04c-.54,0-1.06-.1-1.59-.2-.53-.1-1.07-.2-1.65-.2-.21,0-.43.01-.66.05-.36.05-.71.07-1.06.07-.6,0-1.19-.05-1.83-.05-.2,0-.4,0-.61.02-.77.05-1.5.24-2.22.41-.72.17-1.41.34-2.11.37-.04,0-.09,0-.13,0-.67,0-1.26-.21-1.89-.47-.63-.25-1.29-.54-2.09-.61-.17-.02-.34-.02-.51-.02-.63,0-1.22.1-1.78.2-.56.1-1.1.19-1.64.19-.43,0-.85-.06-1.3-.22-.7-.25-1.29-.54-1.89-.78-.6-.24-1.23-.42-1.97-.41-.31,0-.63.03-.98.1-.65.12-1.22.37-1.77.57-.55.21-1.07.37-1.63.37h-.01c-.6,0-1.19-.12-1.86-.14-.18,0-.34,0-.49,0-.29,0-.53.02-.79.09-.26.07-.51.2-.81.38-.3.19-.57.43-.83.64-.26.21-.51.36-.75.42-.16.04-.26.2-.22.37.04.16.2.26.37.22.39-.09.7-.31.98-.53.28-.22.54-.45.77-.6.28-.17.47-.26.65-.31.18-.05.36-.07.63-.07.14,0,.29,0,.48,0,.61.01,1.2.13,1.88.14h.01c.68,0,1.28-.2,1.84-.41.57-.21,1.1-.44,1.67-.55.32-.06.6-.09.87-.09.65,0,1.18.15,1.75.37.57.22,1.17.52,1.91.78.52.19,1.02.25,1.5.25.61,0,1.18-.1,1.74-.2.56-.1,1.11-.19,1.67-.19.15,0,.3,0,.45.02.69.06,1.29.32,1.93.57.64.25,1.31.51,2.12.51.05,0,.1,0,.15,0,.78-.03,1.52-.21,2.23-.38.72-.18,1.42-.35,2.12-.4.19-.01.38-.02.57-.02.6,0,1.2.05,1.83.05.37,0,.75-.02,1.15-.08.19-.03.38-.04.57-.04.51,0,1.01.09,1.54.19.53.1,1.09.2,1.7.21h.04c1.38,0,2.72-.36,3.99-.35.29,0,.58.02.87.06.28.04.53.11.79.17.26.06.55.12.87.12.15,0,.31-.01.47-.04.45-.07.84-.18,1.21-.26.37-.08.73-.15,1.14-.15.17,0,.3-.14.3-.31,0-.17-.14-.3-.31-.3h0Z"/>
        <path class="st4" d="M60.44,73.21c-.47,0-.88.08-1.27.17-.39.09-.76.19-1.17.26-.14.02-.26.03-.38.03-.26,0-.48-.04-.73-.1-.25-.06-.52-.13-.84-.18-.32-.05-.64-.07-.96-.07-1.38,0-2.72.36-3.99.35h-.04c-.54,0-1.06-.1-1.59-.2-.53-.1-1.07-.2-1.65-.2-.21,0-.43.01-.66.05-.36.05-.71.07-1.06.07-.6,0-1.19-.05-1.83-.06-.2,0-.4,0-.61.02-.77.05-1.5.24-2.22.41-.72.17-1.41.34-2.11.37-.04,0-.09,0-.13,0-.67,0-1.26-.21-1.89-.47-.63-.25-1.29-.54-2.09-.61-.17-.02-.34-.02-.51-.02-.63,0-1.22.1-1.78.2-.56.1-1.1.19-1.64.19-.43,0-.85-.06-1.3-.22-.7-.25-1.29-.54-1.89-.78-.6-.24-1.23-.42-1.97-.41-.31,0-.63.03-.98.1-.65.12-1.22.37-1.77.57-.55.21-1.07.37-1.63.37h-.01c-.6,0-1.19-.12-1.86-.14-.18,0-.34,0-.49,0-.29,0-.53.02-.79.09-.26.07-.51.19-.81.38-.3.19-.57.43-.83.64-.26.2-.51.36-.75.42-.16.04-.26.2-.22.37.04.16.2.26.37.22.39-.09.7-.31.98-.53.28-.22.54-.45.77-.6.28-.17.47-.26.65-.31.18-.05.36-.07.63-.07.14,0,.29,0,.48,0,.61.01,1.2.13,1.88.14h.01c.68,0,1.28-.2,1.84-.41.57-.21,1.1-.44,1.67-.55.32-.06.6-.09.87-.09.65,0,1.18.15,1.75.37.57.22,1.17.52,1.91.78.52.19,1.02.25,1.5.25.61,0,1.18-.1,1.74-.2.56-.1,1.11-.19,1.67-.19.15,0,.3,0,.45.02.69.06,1.29.32,1.93.57.64.25,1.31.51,2.12.51.05,0,.1,0,.15,0,.78-.03,1.52-.21,2.23-.38s1.42-.35,2.12-.4c.19-.01.38-.02.57-.02.6,0,1.2.05,1.83.06.37,0,.75-.02,1.15-.08.19-.03.38-.04.57-.04.51,0,1.01.09,1.54.19.53.1,1.09.2,1.7.21h.04c1.38,0,2.72-.36,3.99-.35.29,0,.58.02.87.06.28.04.53.11.79.17.26.06.55.12.87.12.15,0,.31-.01.47-.04.45-.07.84-.18,1.21-.26.37-.08.73-.15,1.14-.15.17,0,.3-.14.3-.31,0-.17-.14-.3-.31-.3h0Z"/>
        <path class="st4" d="M60.44,76.82c-.47,0-.88.08-1.27.17-.39.09-.76.19-1.17.25-.14.02-.26.03-.38.03-.26,0-.48-.04-.73-.1-.25-.06-.52-.13-.84-.18-.32-.05-.64-.07-.96-.07-1.38,0-2.72.36-3.99.35h-.04c-.54,0-1.06-.1-1.59-.2-.53-.1-1.07-.2-1.65-.2-.21,0-.43.01-.66.05-.36.05-.71.07-1.06.07-.6,0-1.19-.05-1.83-.05-.2,0-.4,0-.61.02-.77.05-1.5.24-2.22.41-.72.17-1.41.34-2.11.37-.04,0-.09,0-.13,0-.67,0-1.26-.21-1.89-.46-.63-.25-1.29-.54-2.09-.61-.17-.02-.34-.02-.51-.02-.63,0-1.22.1-1.78.2-.56.1-1.1.19-1.64.19-.43,0-.85-.06-1.3-.22-.7-.25-1.29-.54-1.89-.78-.6-.24-1.23-.42-1.97-.41-.31,0-.63.03-.98.1-.65.12-1.22.37-1.77.57-.55.21-1.07.37-1.63.37h-.01c-.6,0-1.19-.12-1.86-.14-.18,0-.34,0-.49,0-.29,0-.53.02-.79.09-.26.07-.51.2-.81.38-.3.19-.57.43-.83.64-.26.2-.51.36-.75.42-.16.04-.26.2-.22.37.04.16.2.26.37.22.39-.09.7-.31.98-.53.28-.22.54-.45.77-.6.28-.17.47-.26.65-.31.18-.05.36-.07.63-.07.14,0,.29,0,.48,0,.61.01,1.2.13,1.88.14h.01c.68,0,1.28-.2,1.84-.41.57-.21,1.1-.44,1.67-.55.32-.06.6-.09.87-.09.65,0,1.18.15,1.75.37.57.22,1.17.52,1.91.78.52.19,1.02.25,1.5.25.61,0,1.18-.1,1.74-.2.56-.1,1.11-.19,1.67-.19.15,0,.3,0,.45.02.69.06,1.29.32,1.93.57.64.25,1.31.51,2.12.51.05,0,.1,0,.15,0,.78-.03,1.52-.21,2.23-.38.72-.18,1.42-.35,2.12-.4.19-.01.38-.02.57-.02.6,0,1.2.05,1.83.05.37,0,.75-.02,1.15-.08.19-.03.38-.04.57-.04.51,0,1.01.09,1.54.19.53.1,1.09.2,1.7.21h.04c1.38,0,2.72-.36,3.99-.35.29,0,.58.02.87.06.28.04.53.11.79.17.26.06.55.12.87.12.15,0,.31-.01.47-.04.45-.07.84-.18,1.21-.26.37-.08.73-.15,1.14-.15.17,0,.3-.14.3-.31,0-.17-.14-.3-.31-.3h0Z"/>
        <path class="st4" d="M58.1,81.45c.45-.07.84-.18,1.21-.26.37-.08.73-.15,1.14-.15.17,0,.3-.14.3-.31,0-.17-.14-.3-.31-.3-.47,0-.88.08-1.27.17-.39.09-.76.19-1.17.26-.14.02-.26.03-.38.03-.26,0-.48-.04-.73-.1-.25-.06-.52-.13-.84-.18-.32-.05-.64-.07-.96-.07-1.38,0-2.72.36-3.99.35h-.04c-.54,0-1.06-.1-1.59-.2-.53-.1-1.07-.2-1.65-.2-.21,0-.43.01-.66.05-.36.05-.71.07-1.06.07-.6,0-1.19-.05-1.83-.06-.2,0-.4,0-.61.02-.77.05-1.5.24-2.22.41-.72.17-1.41.34-2.11.37-.04,0-.09,0-.13,0-.67,0-1.26-.21-1.89-.46-.63-.25-1.29-.54-2.09-.61-.17-.02-.34-.02-.51-.02-.63,0-1.22.1-1.78.2-.56.1-1.1.19-1.64.19-.43,0-.85-.06-1.3-.22-.7-.25-1.29-.54-1.89-.78-.6-.24-1.23-.42-1.97-.41-.31,0-.63.03-.98.1-.65.12-1.22.37-1.77.57-.55.21-1.07.37-1.63.37h-.01c-.6,0-1.19-.12-1.86-.14-.18,0-.34,0-.49,0-.29,0-.53.02-.79.09-.26.07-.51.19-.81.38-.3.19-.57.43-.83.64-.26.21-.51.37-.75.42-.16.04-.26.2-.22.37.04.16.2.26.37.22.39-.09.7-.31.98-.53.28-.22.54-.45.77-.6.28-.17.47-.26.65-.31.18-.05.36-.07.63-.07.14,0,.29,0,.48,0,.61.02,1.2.13,1.88.14h.01c.68,0,1.28-.2,1.84-.41.57-.21,1.1-.44,1.67-.55.32-.06.6-.09.87-.09.65,0,1.18.15,1.75.37.57.22,1.17.52,1.91.78.52.19,1.02.25,1.5.25.61,0,1.18-.1,1.74-.2.56-.1,1.11-.19,1.67-.19.15,0,.3,0,.45.02.69.06,1.29.32,1.93.57.64.25,1.31.51,2.12.51.05,0,.1,0,.15,0,.78-.03,1.52-.21,2.23-.38s1.42-.35,2.12-.4c.19-.01.38-.02.57-.02.6,0,1.2.05,1.83.05.37,0,.75-.02,1.15-.08.19-.03.38-.04.57-.04.51,0,1.01.09,1.54.19.53.1,1.09.2,1.7.21h.04c1.38,0,2.72-.36,3.99-.35.29,0,.58.02.87.06.28.04.53.11.79.17.26.06.55.12.87.12.15,0,.31-.01.47-.04h0Z"/>
        <path class="st4" d="M31.42,83.92c-1.53-.06-2.98-.27-4.23-.95-.15-.08-.33-.03-.41.12-.08.15-.03.33.12.41,1.38.75,2.93.96,4.49,1.02,1.57.06,3.16-.01,4.65.14h.03c.39,0,.71.13,1.03.31.32.18.62.41.96.58.03.01.05.02.08.03.19.04.38.05.57.05.75,0,1.46-.26,2.13-.5.68-.24,1.33-.47,1.93-.46,3.66,0,7,0,10.72.26.17.01.31-.11.33-.28.01-.17-.11-.31-.28-.33-3.74-.27-7.1-.27-10.76-.27-.75,0-1.46.26-2.13.5-.68.24-1.32.47-1.93.46-.14,0-.27-.01-.41-.04-.26-.13-.55-.35-.9-.54-.36-.2-.79-.37-1.3-.38h0c-1.55-.16-3.16-.08-4.69-.14h0Z"/>
        <path class="st4" d="M57.23,88.33c.01-.17-.11-.31-.28-.33-2.67-.2-5.44-.42-8.13-.42-1.12,0-2.24.04-3.32.13h0c-1.94.18-3.96.55-5.87.55-1.42,0-2.78-.2-4.02-.82-.05-.03-.11-.04-.17-.03-.75.08-1.48.11-2.2.11-2.15,0-4.17-.34-6.2-1.01-.17-.06-.34-.08-.5-.08-.5,0-.99.19-1.45.35-.45.17-.88.32-1.19.32h-.05c-.4.07-.8.09-1.21.09-.68,0-1.38-.06-2.1-.06-.74,0-1.52.06-2.31.34-.16.05-.24.23-.19.39.05.16.23.24.39.19.7-.24,1.4-.3,2.11-.3.69,0,1.39.06,2.1.06.43,0,.87-.02,1.31-.1h0c.46-.02.91-.19,1.35-.35.45-.17.89-.32,1.24-.32.11,0,.22.01.31.05,2.08.7,4.18,1.04,6.39,1.04.71,0,1.44-.04,2.18-.11,1.33.65,2.76.85,4.21.85,1.99,0,4.02-.38,5.93-.55h0c1.07-.09,2.16-.13,3.27-.13,2.66,0,5.41.21,8.09.41.17.01.31-.11.33-.28h0Z"/>
        <path class="st4" d="M56.11,91.64c-.03-.17-.18-.28-.35-.25-.82.13-1.64.17-2.48.17-1.9,0-3.86-.23-5.9-.23-1.22,0-2.46.08-3.74.36-1.1.11-2.16.18-3.19.18-1.79,0-3.49-.21-5.2-.78h-.04c-.24-.06-.48-.08-.71-.08-.55,0-1.06.12-1.55.22-.48.11-.95.21-1.41.21-.19,0-.39-.02-.59-.06-1.49-.3-3.01-.9-4.57-1.22h0c-.27-.05-.54-.07-.8-.07-.8,0-1.54.19-2.23.4-.68.21-1.32.45-1.93.57-.56,0-1.3-.13-2.02-.13-.37,0-.74.03-1.09.15-.05.02-.08.04-.12.07-.27.27-.62.49-1,.69-.37.21-.77.41-1.11.68-.13.1-.15.3-.05.43.1.13.3.15.43.05h0c.27-.22.64-.41,1.03-.62.36-.2.74-.43,1.07-.74.25-.08.53-.11.84-.11.66,0,1.4.13,2.05.13h.06c.69-.14,1.35-.39,2.02-.6.67-.21,1.34-.38,2.04-.37.23,0,.46.02.69.06,1.48.3,3,.9,4.56,1.22.24.05.48.07.71.07.55,0,1.06-.12,1.55-.22.48-.11.95-.21,1.41-.21.19,0,.38.02.58.06,1.77.59,3.53.8,5.36.8,1.06,0,2.15-.07,3.27-.18h.03c1.23-.27,2.44-.35,3.63-.35,1.99,0,3.94.23,5.9.23.86,0,1.71-.05,2.57-.18.17-.03.28-.18.25-.35h0Z"/>
        <path class="st4" d="M53.34,95.4c-.02-.17-.18-.28-.34-.26-.62.08-1.22.14-1.82.14-.46,0-.91-.03-1.38-.11-.88-.14-1.72-.17-2.55-.17-.43,0-.87,0-1.3,0-.3,0-.59,0-.9-.01-.1,0-.2,0-.29,0-1.61,0-3.01.43-4.52.68-.26.04-.5.06-.74.06-.55,0-1.05-.1-1.56-.26-.52-.15-1.05-.36-1.67-.55-.51-.16-1-.21-1.49-.21-1.02,0-1.98.24-2.97.33-.12,0-.23.01-.34.01-.63,0-1.2-.15-1.78-.36-.58-.21-1.17-.48-1.83-.71-.58-.2-1.13-.29-1.68-.29-.87,0-1.71.22-2.57.54-.77.28-1.44.34-2.15.34-.52,0-1.07-.03-1.67-.03-.13,0-.27,0-.41,0-.38.01-.71.1-1.01.24-.44.2-.79.48-1.13.73-.34.25-.67.46-1.06.57-.16.05-.26.21-.21.38.05.16.21.26.37.21.68-.19,1.15-.6,1.6-.92.22-.16.44-.31.67-.41.23-.1.48-.17.77-.18.13,0,.26,0,.39,0,.58,0,1.12.03,1.67.03.75,0,1.51-.07,2.36-.38.83-.31,1.6-.5,2.36-.5.48,0,.96.08,1.48.26.62.22,1.21.49,1.82.71.61.22,1.26.39,1.99.39.13,0,.26,0,.39-.02,1.05-.09,1.99-.33,2.91-.32.43,0,.86.05,1.31.19.59.18,1.12.39,1.67.55.55.16,1.11.29,1.74.29.27,0,.54-.02.84-.07,1.56-.26,2.92-.67,4.42-.67.09,0,.18,0,.27,0,.31.01.61.01.92.01.44,0,.87,0,1.3,0,.82,0,1.62.02,2.45.16.5.08.99.12,1.48.12.63,0,1.26-.06,1.9-.15.17-.02.28-.18.26-.34h0Z"/>
        <path class="st4" d="M52.35,99.18c0-.17-.12-.31-.29-.32-2.2-.12-4.34-.31-6.48-.31-.95,0-1.89.04-2.84.13h-.01c-1.23.18-2.55.35-3.84.35-.94,0-1.87-.09-2.74-.34h0c-.67-.25-1.33-.32-1.97-.32-1.07,0-2.11.2-3.1.2-.74,0-1.46-.1-2.17-.46-.45-.3-.85-.54-1.25-.7-.41-.17-.84-.25-1.33-.25h-.07c-2.42.61-4.52.91-6.93.91-.36,0-.7.09-1,.22-.3.13-.55.3-.74.48-.3.31-.53.52-.72.66-.2.14-.36.21-.63.25-.17.02-.28.18-.26.34.02.17.18.28.34.26.35-.04.64-.17.9-.35.26-.19.5-.42.8-.73.12-.12.32-.25.55-.35.23-.1.5-.17.76-.17,2.45,0,4.6-.31,7.04-.91.41,0,.74.07,1.08.21.35.14.71.36,1.16.66l.03.02c.83.41,1.65.53,2.46.53,1.07,0,2.11-.2,3.1-.2.61,0,1.2.07,1.78.29h.02c.94.28,1.92.37,2.9.37,1.34,0,2.68-.18,3.91-.35.92-.09,1.85-.13,2.78-.13,2.1,0,4.24.18,6.44.31.17,0,.31-.12.32-.29h0Z"/>
        <path class="st4" d="M25.14,101.42h1.76c.68.14,1.25.49,1.87.84.61.35,1.28.69,2.13.69,1.53,0,2.91-.08,4.26-.08s2.71.08,4.2.37h0c.64.16,1.27.22,1.9.22,1.8,0,3.54-.47,5.17-.47.06,0,.12,0,.19,0,.17,0,.31-.13.31-.3,0-.17-.13-.31-.3-.31-.07,0-.13,0-.2,0-1.74,0-3.47.47-5.17.47-.59,0-1.18-.05-1.77-.2h-.01c-1.55-.31-2.94-.39-4.32-.39-1.38,0-2.75.08-4.26.08-.68,0-1.23-.27-1.83-.61-.6-.34-1.24-.74-2.07-.91h-.06c-.61,0-1.22,0-1.83,0h-.07c-1.18.31-2.38.38-3.57.5-1.19.11-2.36.27-3.48.75h-.02c-.34.18-.66.42-.96.65-.31.23-.6.46-.88.61-.15.08-.2.27-.12.41.08.15.27.2.41.12.33-.19.65-.43.95-.66.3-.23.59-.45.86-.58,1.01-.43,2.12-.58,3.29-.7,1.16-.11,2.38-.19,3.62-.49h0Z"/>
        <path class="st4" d="M21.39,106.01c.68-.02.98-.02,1.59-.02.06,0,.12-.02.17-.05.72-.49,1.63-.95,2.51-.94.2,0,.39.02.59.07,1.81.6,3.35,1.22,5.21,1.53h.05c.48,0,.94-.18,1.4-.35.45-.17.89-.32,1.24-.32.11,0,.21.02.31.05,1.83.84,3.72,1.11,5.6,1.11,2.3,0,4.59-.4,6.78-.66.17-.02.29-.17.27-.34-.02-.17-.17-.29-.34-.27-2.21.26-4.48.65-6.7.65-1.83,0-3.63-.26-5.37-1.06h-.03c-.17-.07-.34-.09-.5-.09-.5,0-.99.19-1.45.35-.45.17-.87.31-1.17.32-1.77-.3-3.27-.9-5.1-1.51h-.02c-.25-.07-.5-.1-.74-.1-1.05,0-2.01.5-2.77.99-.55,0-.86,0-1.52.02-.17,0-.3.14-.3.31,0,.17.14.3.31.3h0Z"/>
        <path class="st4" d="M47.04,109.41c-.43-.06-.86-.08-1.28-.08-1.82,0-3.58.46-5.31.77-.37.07-.69.1-1,.1-.54,0-1.03-.1-1.65-.32-.44-.16-.87-.36-1.33-.52-.46-.16-.94-.29-1.48-.29-.04,0-.07,0-.11,0-1.28.04-2.38.28-3.45.28-.79,0-1.56-.12-2.39-.53-.9-.45-1.79-.61-2.67-.61-1.12,0-2.21.25-3.36.49-.16.03-.27.2-.24.36.03.16.2.27.36.24h0c1.16-.24,2.22-.48,3.24-.48.81,0,1.59.14,2.4.54.93.46,1.81.6,2.66.6,1.15,0,2.25-.24,3.47-.28.03,0,.06,0,.09,0,.44,0,.85.11,1.27.26.42.15.86.35,1.33.52.66.24,1.24.36,1.85.36.35,0,.71-.04,1.11-.11,1.76-.32,3.48-.76,5.2-.76.4,0,.8.02,1.2.08.17.02.32-.09.34-.26s-.09-.32-.26-.34h0Z"/>
        <path class="st4" d="M9.45,50.73h56.45c.17,0,.31-.14.31-.3s-.14-.3-.31-.3H9.45c-.17,0-.3.14-.3.3s.14.3.3.3h0Z"/>
        <path class="st4" d="M41.03,116.69c-5.22-.02-10.49-.03-15.77-.03s-10.57,0-15.81.03c-.17,0-.3.14-.3.31,0,.17.14.3.31.3,5.24-.02,10.52-.03,15.8-.03s10.55,0,15.77.03c.17,0,.3-.13.31-.3,0-.17-.14-.31-.3-.31h0Z"/>
        <path class="st4" d="M65.9,116.69c-2.27-.02-4.48-.03-6.7-.03s-4.47,0-6.82.03c-.17,0-.3.14-.3.31,0,.17.14.3.31.3,2.35-.02,4.59-.03,6.81-.03s4.42,0,6.7.03c.17,0,.31-.13.31-.3,0-.17-.13-.31-.3-.31h0Z"/>
      </g>
    </g>
  </g>
  <text class="st3" transform="translate(17.03 27.43)"><tspan x="0" y="0">M</tspan></text>
  <text class="st3" transform="translate(29.4 27.43) scale(.7)"><tspan x="0" y="0">ONOPOLY</tspan></text>
  <path class="st1" d="M83.2,11.2c1.98,0,3.6,1.62,3.6,3.6v104.4c0,1.98-1.62,3.6-3.6,3.6H14.8c-1.98,0-3.6-1.62-3.6-3.6V14.8c0-1.98,1.62-3.6,3.6-3.6h68.4M83.2,4H14.8c-5.98,0-10.8,4.82-10.8,10.8v104.4c0,5.98,4.82,10.8,10.8,10.8h68.4c5.98,0,10.8-4.82,10.8-10.8V14.8c0-5.98-4.82-10.8-10.8-10.8h0Z"/>
</svg>