<?xml version="1.0" encoding="UTF-8"?>
<svg id="Layer_1" xmlns="http://www.w3.org/2000/svg" version="1.1" xmlns:xlink="http://www.w3.org/1999/xlink" viewBox="0 0 54 54">
  <!-- Generator: Adobe Illustrator 29.8.1, SVG Export Plug-In . SVG Version: 2.1.1 Build 2)  -->
  <defs>
    <style>
      .st0 {
        fill: url(#linear-gradient2);
      }

      .st1 {
        fill: url(#linear-gradient1);
      }

      .st2 {
        fill: url(#linear-gradient4);
      }

      .st3 {
        fill: url(#linear-gradient5);
      }

      .st4 {
        fill: url(#linear-gradient3);
      }

      .st5 {
        fill: url(#linear-gradient6);
      }

      .st6 {
        fill: url(#linear-gradient);
      }
    </style>
    <linearGradient id="linear-gradient" x1="2.81" y1="58.22" x2="-.52" y2="49.75" gradientTransform="translate(21 371) scale(6.25 -6.25)" gradientUnits="userSpaceOnUse">
      <stop offset="0" stop-color="#9e958e"/>
      <stop offset=".46" stop-color="#8e8884"/>
      <stop offset="1" stop-color="#757575"/>
    </linearGradient>
    <linearGradient id="linear-gradient1" x1="-2.89" y1="51.05" x2="-.11" y2="54.13" gradientTransform="translate(21 371) scale(6.25 -6.25)" gradientUnits="userSpaceOnUse">
      <stop offset="0" stop-color="#37474f"/>
      <stop offset=".61" stop-color="#42565f" stop-opacity=".19"/>
      <stop offset=".76" stop-color="#455a64" stop-opacity="0"/>
    </linearGradient>
    <linearGradient id="linear-gradient2" x1="3.68" y1="54.92" x2="1.88" y2="58.9" gradientTransform="translate(21 371) scale(6.25 -6.25)" gradientUnits="userSpaceOnUse">
      <stop offset="0" stop-color="#9e958e"/>
      <stop offset=".44" stop-color="#aea298"/>
      <stop offset="1" stop-color="#c9b8a9"/>
    </linearGradient>
    <linearGradient id="linear-gradient3" x1="-.81" y1="52.18" x2="-.09" y2="56.1" gradientTransform="translate(21 371) scale(6.25 -6.25)" gradientUnits="userSpaceOnUse">
      <stop offset="0" stop-color="#4c5c64"/>
      <stop offset="1" stop-color="#455a64" stop-opacity="0"/>
    </linearGradient>
    <linearGradient id="linear-gradient4" x1="-.51" y1="58.27" x2="1.6" y2="58.27" xlink:href="#linear-gradient3"/>
    <linearGradient id="linear-gradient5" x1="2.79" y1="54.2" x2="5.27" y2="53.18" gradientTransform="translate(21 371) scale(6.25 -6.25)" gradientUnits="userSpaceOnUse">
      <stop offset="0" stop-color="#9e958e"/>
      <stop offset=".25" stop-color="#aea298"/>
      <stop offset=".57" stop-color="#c9b8a9"/>
    </linearGradient>
    <linearGradient id="linear-gradient6" x1="4.05" y1="50.82" x2="3.54" y2="52.83" gradientTransform="translate(21 371) scale(6.25 -6.25)" gradientUnits="userSpaceOnUse">
      <stop offset="0" stop-color="#37474f"/>
      <stop offset=".81" stop-color="#42565f" stop-opacity=".19"/>
      <stop offset="1" stop-color="#455a64" stop-opacity="0"/>
    </linearGradient>
  </defs>
  <path class="st6" d="M2.99,38.64c-.24-.57-.47-1.13-.7-1.7-1.71-4.3.43-8.18,2.34-11.98l2.77-5.5c.56-1.11,1.41-2.04,2.46-2.69l7.96-4.94,7.87-8.13c.49-.51,1.11-.86,1.8-1.03l5.36-1.29c2.59-.62,3.71-.52,4.54.67,2.9,4.12,4.84,7.51,7.42,11.61,1.41,2.23,4.66,7.37,4.86,7.71.62,1.05.37,1.93.35,3.13-.05,2.77.43,5.56,1.45,8.14.3.77.65,1.53.81,2.34.14.73-.05,5.36-.2,6.92-.12,1.27-3.13,6.02-4.2,6.59-1.19.63-9.97,3.86-11.91,4.42s-10.36-1.37-14.73-2.04c-2.7-.41-5.41-.83-8.11-1.24-2.34-.36-4.67-.09-5.99-2.45-1.54-2.77-2.93-5.61-4.16-8.53h0Z"/>
  <path class="st1" d="M13.13,49.62c2.7.41,5.41.83,8.11,1.24,1.41.22,3.23.56,5.13.91-1.28-1.51-3.18-3.3-4.46-4.81-.28-.33-.56-.67-.66-1.08-.1-.44.01-.9.14-1.34.39-1.44.49-3,.88-4.44-2.41.56-7.97,1.63-8.42,1.5-.51-.14-.92-.51-1.31-.87-2.86-2.61-5.1-5.25-7.29-8.44-.26-.38-.52-.76-.62-1.21-.09-.42-.02-.86.05-1.28.16-1.05.52-3.96.81-6.52l-.85,1.69c-1.9,3.8-4.04,7.68-2.33,11.98.23.57.46,1.14.7,1.7,1.23,2.91,2.61,5.76,4.15,8.52,1.31,2.37,3.64,2.1,5.99,2.46Z"/>
  <path class="st0" d="M37.43,2.09c-.56-.66-1.64-.53-2.78.51l-4.1,4.1c-.25.25-.39.6-.37.96l.44,8.37c.01.28.12.54.3.76,1.46,1.7,6.6,9.88,8.1,9.88s4.09-5.8,5.42-5.77c.23,0,1.41.08,2.56.43,1.08.33,1.5-1.15,1.28-2.2-1.11-1.76-2.61-4.13-3.45-5.47-2.57-4.09-4.51-7.46-7.39-11.56h0Z"/>
  <path class="st4" d="M18.35,18.57c1.51-.23,6.53-1.08,7.48-1.45,1.85-.73,3.47-3.83,4.55-5.5,0,0,.37,5.44,0,7.57-.26,1.48-1.23,9.22-2.21,11.07l-5.91,9.84-8.68-8.68c-.74-.74-1.21-1.13-1.47-2.17-.61-2.39-1.72-5.91-1.72-7.99s5.59-2.33,7.97-2.69h0Z"/>
  <path class="st2" d="M29.33,6.98c-.58-.69-.74-1.67-.54-2.55.17-.73,1.69-2.15,2.18-2.6l-3.48.84c-.68.17-1.31.52-1.8,1.03l-7.87,8.13s7.62-3.18,11.5-4.85Z"/>
  <path class="st3" d="M51.46,32.63c-.76-1.94-1.23-3.98-1.38-6.06-2.6,1.78-4.05,4.09-8.23,4.65-1.11.15-2.82.36-3.9.64-1.34.35-2.58,1.34-4.59,1.53-1.43.14-5.04.03-4.49.84s3.78,2.43,4.58,3.09c1.14.92,2.14,2,3.09,3.11.5.58,1.24,2,2.11,2.38.22.1.46.13.69.05.41-.12.74-.42,1.06-.71,3.11-2.76,6.62-5.05,10.39-6.79.4-.19.84-.39,1.04-.79.09-.18.12-.42.13-.67-.16-.43-.33-.85-.5-1.27Z"/>
  <path class="st5" d="M52.27,34.97c-.06-.29-.14-.58-.24-.87-.08.27-.24.56-.61.84-1.04.8-5.05,2.02-9.47,5.89-2.88,2.52-2.89,2.86-3.51,5.65-1.01,4.56-2.62,6.21-2.93,6.49.17-.02.32-.04.44-.08,1.95-.55,10.73-3.78,11.91-4.42,1.08-.57,4.08-5.32,4.2-6.59.15-1.56.35-6.18.2-6.91Z"/>
</svg>