<?xml version="1.0" encoding="UTF-8"?>
<svg id="Layer_1" xmlns="http://www.w3.org/2000/svg" version="1.1" xmlns:xlink="http://www.w3.org/1999/xlink" viewBox="0 0 54 54">
  <!-- Generator: Adobe Illustrator 29.8.1, SVG Export Plug-In . SVG Version: 2.1.1 Build 2)  -->
  <defs>
    <style>
      .st0 {
        fill: #faec7f;
      }

      .st1 {
        fill: #1d301d;
      }

      .st2 {
        fill: #4d587c;
      }

      .st3 {
        fill: #bc896c;
      }

      .st4 {
        fill: #a5be62;
      }

      .st5 {
        fill: #dddcd9;
      }

      .st6 {
        fill: #a6a68d;
      }

      .st7 {
        fill: none;
        stroke: #5e5e5e;
        stroke-linejoin: round;
        stroke-width: .5px;
      }

      .st8 {
        clip-path: url(#clippath);
      }
    </style>
    <clipPath id="clippath">
      <path class="st4" d="M46,42c-6-3-9-3-8-5s-2,1-2-2-3,2-3-1,2-7,1-9-1.64-5.24.18-4.12,1.82.12,3.82-.88,3,1,5-1,7-2,5-1-4,4-2,4,3,1,3,2,1,2-1,3-2.61,2.18-1.3,2.59,3.3-2.59,2.3-.59c-.62,1.24-2.39,2.48-3.65,3.24-.58.35-.6,1.18-.03,1.55.49.32,1.07.72,1.68,1.21,1.59,1.28,0,2,0,4s2,3,1,3,0,1-2,0"/>
    </clipPath>
  </defs>
  <rect class="st7" x="7" y="14" width="25" height="35" rx="3" ry="3" transform="translate(-14.91 45.23) rotate(-80)"/>
  <g>
    <path class="st2" d="M32.13,45.37c-.12,0-.23,0-.35-.03l-28.56-5.04c-.53-.09-.98-.38-1.29-.82-.31-.44-.42-.97-.33-1.5l3.3-18.71c.17-.96,1-1.65,1.97-1.65.12,0,.23,0,.35.03l28.56,5.04c.53.09.99.38,1.29.82.31.44.42.97.33,1.49l-3.3,18.71c-.17.96-1,1.65-1.97,1.65Z"/>
    <path class="st5" d="M6.87,18.63c.06,0,.12,0,.18.02l28.56,5.04c.35.06.56.28.65.41s.23.39.17.75l-3.3,18.71c-.08.48-.5.83-.98.83-.06,0-.12,0-.18-.02l-28.56-5.04c-.35-.06-.56-.28-.65-.41-.09-.13-.23-.39-.17-.75l3.3-18.71c.08-.48.5-.83.98-.83M6.87,16.63c-1.43,0-2.69,1.02-2.95,2.48L.62,37.82c-.29,1.63.8,3.19,2.43,3.48l28.56,5.04c.18.03.35.05.52.05,1.43,0,2.69-1.02,2.95-2.48l3.3-18.71c.29-1.63-.8-3.19-2.43-3.48l-28.56-5.04c-.18-.03-.35-.05-.52-.05h0Z"/>
  </g>
  <rect class="st7" x="9" y="12" width="25" height="35" rx="3" ry="3" transform="translate(-13.57 39.61) rotate(-70)"/>
  <g>
    <path class="st2" d="M31.88,45.39c-.23,0-.46-.04-.68-.12L3.94,35.35c-1.04-.38-1.57-1.53-1.19-2.56l6.5-17.85c.29-.79,1.04-1.32,1.88-1.32.23,0,.46.04.68.12l27.25,9.92c.5.18.9.55,1.13,1.03.23.48.25,1.03.07,1.53l-6.5,17.85c-.29.79-1.04,1.32-1.88,1.32Z"/>
    <path class="st5" d="M11.12,14.61c.12,0,.23.02.34.06l27.25,9.92c.34.12.5.38.56.52s.16.43.03.76l-6.5,17.85c-.17.46-.59.66-.94.66-.12,0-.23-.02-.34-.06l-27.25-9.92c-.34-.12-.5-.38-.56-.52-.07-.14-.16-.43-.03-.76l6.5-17.85c.17-.46.59-.66.94-.66M11.12,12.61c-1.23,0-2.38.76-2.82,1.97L1.81,32.44c-.57,1.56.24,3.28,1.79,3.85l27.25,9.92c.34.12.69.18,1.03.18,1.23,0,2.38-.76,2.82-1.97l6.5-17.85c.57-1.56-.24-3.28-1.79-3.85L12.15,12.79c-.34-.12-.69-.18-1.03-.18h0Z"/>
  </g>
  <rect class="st7" x="12" y="11" width="25" height="35" rx="3" ry="3" transform="translate(-12.43 35.47) rotate(-60)"/>
  <g>
    <path class="st2" d="M32.3,45.98c-.35,0-.69-.09-1-.27L6.19,31.21c-.46-.27-.79-.7-.93-1.21-.14-.52-.07-1.05.2-1.52L14.96,12.02c.36-.62,1.02-1,1.73-1,.35,0,.69.09,1,.27l25.11,14.5c.96.55,1.28,1.78.73,2.73l-9.5,16.46c-.36.62-1.02,1-1.73,1Z"/>
    <path class="st5" d="M16.7,12.02c.18,0,.34.05.5.13l25.11,14.5c.48.28.64.89.37,1.37l-9.5,16.45c-.18.31-.51.5-.87.5-.18,0-.34-.05-.5-.13L6.69,30.34c-.48-.28-.64-.89-.37-1.37L15.83,12.52c.18-.31.51-.5.87-.5M16.7,10.02c-1.04,0-2.05.54-2.6,1.5L4.59,27.98c-.83,1.43-.34,3.27,1.1,4.1l25.11,14.5c.47.27.99.4,1.5.4,1.04,0,2.05-.54,2.6-1.5l9.5-16.45c.83-1.43.34-3.27-1.1-4.1l-25.11-14.5c-.47-.27-.99-.4-1.5-.4h0Z"/>
  </g>
  <rect class="st7" x="14" y="10" width="25" height="35" rx="3" ry="3" transform="translate(-11.6 30.12) rotate(-50)"/>
  <g>
    <path class="st2" d="M31.5,46.1c-.47,0-.92-.17-1.28-.47L8,26.99c-.41-.34-.66-.83-.71-1.36-.05-.53.12-1.05.46-1.46l12.21-14.56c.38-.45.94-.71,1.53-.71.47,0,.92.17,1.28.47l22.22,18.64c.84.71.96,1.97.25,2.82l-12.21,14.55c-.38.45-.94.71-1.53.71Z"/>
    <path class="st5" d="M21.5,9.9h0c.17,0,.41.04.64.23l22.22,18.64c.28.23.34.52.35.68.01.15,0,.45-.23.73l-12.21,14.55c-.19.23-.47.36-.77.36-.17,0-.41-.04-.64-.23L8.64,26.22c-.28-.23-.34-.52-.35-.68-.01-.15,0-.45.23-.73l12.21-14.55c.19-.23.47-.36.77-.36M21.5,7.9c-.86,0-1.71.36-2.3,1.07l-12.21,14.55c-1.07,1.27-.9,3.16.37,4.23l22.22,18.64c.56.47,1.25.7,1.93.7.86,0,1.71-.36,2.3-1.07l12.21-14.55c1.07-1.27.9-3.16-.37-4.23L23.43,8.6c-.56-.47-1.25-.7-1.93-.7h0Z"/>
  </g>
  <rect class="st7" x="17" y="9" width="25" height="35" rx="3" ry="3" transform="translate(-10.13 25.16) rotate(-40)"/>
  <g>
    <path class="st2" d="M31.54,45.71c-.59,0-1.15-.26-1.53-.71L11.37,22.78c-.71-.85-.6-2.11.25-2.82l14.56-12.21c.36-.3.82-.47,1.28-.47.59,0,1.15.26,1.53.71l18.64,22.22c.34.41.51.93.46,1.46-.05.53-.3,1.01-.71,1.36l-14.55,12.21c-.36.3-.82.47-1.28.47Z"/>
    <path class="st5" d="M27.46,8.29c.3,0,.58.13.77.36l18.64,22.22c.35.42.3,1.05-.12,1.41l-14.55,12.21c-.23.19-.48.23-.64.23-.3,0-.58-.13-.77-.36L12.14,22.14c-.35-.42-.3-1.05.12-1.41l14.55-12.21c.23-.19.48-.23.64-.23M27.46,6.29c-.68,0-1.36.23-1.93.7l-14.55,12.21c-1.27,1.07-1.43,2.96-.37,4.23l18.64,22.22c.59.71,1.44,1.07,2.3,1.07.68,0,1.36-.23,1.93-.7l14.55-12.21c1.27-1.07,1.43-2.96.37-4.23L29.76,7.36c-.59-.71-1.44-1.07-2.3-1.07h0Z"/>
  </g>
  <rect class="st7" x="20" y="9" width="25" height="35" rx="3" ry="3" transform="translate(-8.9 19.8) rotate(-30)"/>
  <g>
    <path class="st2" d="M31.53,45.81c-.71,0-1.38-.38-1.73-1l-14.5-25.11c-.27-.46-.34-1-.2-1.52.14-.52.47-.95.93-1.21l16.45-9.5c.3-.18.65-.27,1-.27.71,0,1.38.38,1.73,1l14.5,25.11c.27.46.34,1,.2,1.52-.14.52-.47.95-.93,1.21l-16.46,9.5c-.3.18-.65.27-1,.27Z"/>
    <path class="st5" d="M33.47,8.19c.36,0,.69.19.87.5l14.5,25.11c.28.48.11,1.09-.37,1.37l-16.45,9.5c-.15.09-.32.13-.5.13-.36,0-.69-.19-.87-.5l-14.5-25.11c-.28-.48-.11-1.09.37-1.37l16.45-9.5c.15-.09.32-.13.5-.13M33.47,6.19c-.51,0-1.02.13-1.5.4l-16.45,9.5c-1.43.83-1.93,2.66-1.1,4.1l14.5,25.11c.56.96,1.56,1.5,2.6,1.5.51,0,1.02-.13,1.5-.4l16.45-9.5c1.43-.83,1.93-2.66,1.1-4.1l-14.5-25.11c-.56-.96-1.56-1.5-2.6-1.5h0Z"/>
  </g>
  <rect class="st7" x="23" y="10" width="25" height="35" rx="3" ry="3" transform="translate(-7.26 13.8) rotate(-20)"/>
  <g>
    <path class="st2" d="M31.53,46.38c-.84,0-1.59-.53-1.88-1.32l-9.92-27.25c-.38-1.04.16-2.19,1.2-2.56l17.85-6.5c.22-.08.45-.12.68-.12.84,0,1.59.53,1.88,1.32l9.92,27.25c.18.5.16,1.04-.07,1.53s-.63.85-1.13,1.03l-17.85,6.5c-.22.08-.45.12-.69.12Z"/>
    <path class="st5" d="M39.47,9.62c.35,0,.77.2.94.66l9.92,27.25c.12.34.03.62-.03.76-.07.14-.23.39-.56.52l-17.85,6.5c-.11.04-.23.06-.34.06-.35,0-.77-.2-.94-.66l-9.92-27.25c-.12-.34-.03-.62.03-.76.07-.14.23-.39.56-.52l17.85-6.5c.11-.04.23-.06.34-.06M39.47,7.62c-.34,0-.69.06-1.03.18l-17.85,6.5c-1.56.57-2.36,2.29-1.79,3.85l9.92,27.25c.44,1.22,1.59,1.97,2.82,1.97.34,0,.69-.06,1.03-.18l17.85-6.5c1.56-.57,2.36-2.29,1.79-3.85l-9.92-27.25c-.44-1.22-1.59-1.97-2.82-1.97h0Z"/>
  </g>
  <rect class="st7" x="26" y="11" width="25" height="35" rx="3" ry="3" transform="translate(-4.36 7.12) rotate(-10)"/>
  <g>
    <path class="st2" d="M31.66,46.43c-.97,0-1.8-.7-1.97-1.65l-5.04-28.56c-.09-.53.02-1.06.33-1.49.31-.44.76-.73,1.29-.82l18.71-3.3c.12-.02.24-.03.35-.03.97,0,1.8.69,1.97,1.65l5.04,28.56c.19,1.09-.54,2.12-1.62,2.32l-18.71,3.3c-.12.02-.24.03-.35.03Z"/>
    <path class="st5" d="M45.34,11.57c.48,0,.9.35.98.83l5.04,28.56c.1.54-.27,1.06-.81,1.16l-18.71,3.3c-.06.01-.12.02-.18.02-.48,0-.9-.35-.98-.83l-5.04-28.56c-.06-.35.08-.62.17-.75.09-.13.29-.35.65-.41l18.71-3.3c.06-.01.12-.02.18-.02M45.34,9.57c-.17,0-.35.02-.52.05l-18.71,3.3c-1.63.29-2.72,1.84-2.43,3.48l5.04,28.56c.26,1.46,1.52,2.48,2.95,2.48.17,0,.35-.02.52-.05l18.71-3.3c1.63-.29,2.72-1.84,2.43-3.48l-5.04-28.56c-.26-1.46-1.52-2.48-2.95-2.48h0Z"/>
  </g>
  <rect class="st7" x="28" y="12" width="25" height="35" rx="3" ry="3"/>
  <g>
    <rect class="st2" x="29" y="13" width="23" height="33" rx="2" ry="2"/>
    <path class="st5" d="M50,14c.55,0,1,.45,1,1v29c0,.55-.45,1-1,1h-19c-.55,0-1-.45-1-1V15c0-.55.45-1,1-1h19M50,12h-19c-1.66,0-3,1.34-3,3v29c0,1.66,1.34,3,3,3h19c1.66,0,3-1.34,3-3V15c0-1.66-1.34-3-3-3h0Z"/>
  </g>
  <g>
    <path class="st4" d="M46,42c-6-3-9-3-8-5s-2,1-2-2-3,2-3-1,2-7,1-9-1.64-5.24.18-4.12,1.82.12,3.82-.88,3,1,5-1,7-2,5-1-4,4-2,4,3,1,3,2,1,2-1,3-2.61,2.18-1.3,2.59,3.3-2.59,2.3-.59c-.62,1.24-2.39,2.48-3.65,3.24-.58.35-.6,1.18-.03,1.55.49.32,1.07.72,1.68,1.21,1.59,1.28,0,2,0,4s2,3,1,3,0,1-2,0"/>
    <g class="st8">
      <path class="st1" d="M50,28s-1-1-3,1-3,4-4,3-1-1-1,0,0,1-2,0,0-1-1-2-4-1-4-1l2,10,11,5,2-3v-13Z"/>
      <path class="st3" d="M37,23c5,0,6-2,7-1s-.5,2.5,1.5,3.5,5,1,5,1l-3.5-12.5-10,9Z"/>
      <path class="st0" d="M31,43h18s-4.78-3.39-8-5c-2-1,1.12-1.45,1-2-.34-1.56-4.93-2.4-5-4-.02-.35.99-.61,1-.96.01-.71-2-1.33-2-2.04,0-1.06,2.76-1.97,3-3,.18-.77-1.36-2.3-1-3,1.2-2.32,10-3,10-3l1-3-18-2v28Z"/>
      <path class="st6" d="M46.5,41.3c-1.94-1.1-3.83-2.16-5.84-3.13-.21-.12-.39-.22-.54-.45-.57-.95,1.12-1.46,1.5-1.78-.06.05,0,.2-.03.13-.13-.32-.41-.52-.74-.76-1.27-.84-2.73-1.14-3.89-2.31-.23-.22-.4-.62-.44-.97,0-.66.67-.83,1.02-1.13.04-.03-.02-.02-.03.14-.29-.34-.95-.69-1.42-1.07-1.11-.81-.34-1.94.51-2.48.71-.55,1.54-.87,1.97-1.54.04-.08.04-.11,0-.27-.21-.9-1.19-1.73-.88-2.77,1.42-2.02,4.59-2.12,6.81-2.47-2.04.62-4.89.96-6.2,2.72.06.93,1.07,1.64,1.14,2.65-.15,1.57-2.21,1.96-2.91,3.05-.05.09-.04.15-.04.11,0,.02.1.14.22.23.64.51,2.53,1.36,1.5,2.42-.22.2-.54.34-.71.48-.04.02-.06.08-.01-.03.03-.03,0-.15.02-.07.03.13.06.22.19.35.94.93,2.5,1.4,3.65,2.23.85.58,1.74,1.7.27,2.25-.35.18-.79.33-.93.54,1.9,1.27,4.02,2.45,5.82,3.92h0Z"/>
    </g>
  </g>
</svg>