<?xml version="1.0" encoding="UTF-8"?>
<svg id="Road_Building" xmlns="http://www.w3.org/2000/svg" version="1.1" xmlns:xlink="http://www.w3.org/1999/xlink" viewBox="0 0 98 134">
  <!-- Generator: Adobe Illustrator 29.8.1, SVG Export Plug-In . SVG Version: 2.1.1 Build 2)  -->
  <defs>
    <style>
      .st0 {
        fill: #ccad60;
      }

      .st1 {
        fill: #bee6ff;
      }

      .st2 {
        fill: #5f4648;
      }

      .st3 {
        fill: #fff;
      }

      .st4 {
        fill: #ad903d;
      }

      .st5 {
        fill: #e5e5e5;
      }

      .st6 {
        fill: #88be64;
      }

      .st7 {
        font-family: CooperBlack, 'Cooper Black';
        font-size: 14px;
      }

      .st8 {
        fill: #d2eeff;
      }

      .st9 {
        fill: #74b75a;
      }

      .st10 {
        fill: none;
        stroke: #000;
        stroke-miterlimit: 10;
        stroke-width: 2px;
      }

      .st11 {
        fill: #5faf50;
      }

      .st12 {
        fill: #e6aa55;
      }

      .st13 {
        fill: #5f8c6e;
      }

      .st14 {
        fill: #aac864;
      }

      .st15 {
        fill: #a7d9ff;
      }

      .st16 {
        clip-path: url(#clippath);
      }

      .st17 {
        fill: #5f9d5f;
      }

      .st18 {
        fill: #e6c35a;
      }
    </style>
    <clipPath id="clippath">
      <rect class="st15" x="11" y="9" width="76" height="114"/>
    </clipPath>
  </defs>
  <path class="st10" d="M83.2,4H14.8c-5.98,0-10.8,4.82-10.8,10.8v104.4c0,5.98,4.82,10.8,10.8,10.8h68.4c5.98,0,10.8-4.82,10.8-10.8V14.8c0-5.98-4.82-10.8-10.8-10.8h0Z"/>
  <rect class="st5" x="7.6" y="7.6" width="82.8" height="118.8" rx="2" ry="2"/>
  <g>
    <rect class="st15" x="11" y="9" width="76" height="114"/>
    <g class="st16">
      <g>
        <circle class="st15" cx="48.5" cy="85.5" r="52.5"/>
        <path class="st1" d="M22.25,95.34c0,17.44,8.52,32.89,21.61,42.44,1.53.13,3.08.22,4.64.22,28.99,0,52.5-23.51,52.5-52.5,0-17.44,6-40.5-21.61-42.44-1.53-.13-3.08-.22-4.64-.22-28.99,0-52.5,23.51-52.5,52.5Z"/>
        <path class="st8" d="M25.53,106.83c0,10.83,3.28,20.89,8.9,29.25,4.48,1.24,9.19,1.92,14.07,1.92,28.99,0,52.5-23.51,52.5-52.5,0-10.83-3.28-20.89-8.9-29.25-4.48-1.24-9.19-1.92-14.07-1.92-28.99,0-52.5,23.51-52.5,52.5Z"/>
        <path class="st14" d="M52.26,68s-1.64.55-2.22.12c-.97-.72-2.41-1.05-3.02-.23-.87,1.16-2.41,1.96-2.41,1.96l.82,7.86,6.63-.07.21-9.64Z"/>
        <path class="st6" d="M56.16,66.91s-3.63-.63-4.65.07c-1.08.74-.88,1.86-2.12,2.6-1.35.8-1.19,4.11-.3,5.55.89,1.44-.18,2.97-.18,2.97l4.72.03,2.53-11.21Z"/>
        <path class="st14" d="M-4,85.5c0,28.99,23.51,52.5,52.5,52.5s52.5-23.51,52.5-52.5c0-2.79-.22-5.53-.64-8.2H-3.36c-.42,2.67-.64,5.41-.64,8.2Z"/>
        <path class="st17" d="M58.96,78.94s-6.27-.41-8.74-1.64c0,0-1.1-4.65-.42-5.88s1.11-1.01,1.64-1.64c.68-.82.89-2.09,1.71-2.73.66-.51,2.39-.34,3.28-1.91.89-1.57,3.28-.75,3.28-.75l-.75,14.56Z"/>
        <path class="st0" d="M84.73,99.58c0-7.79-33.97-8.96-33.97-11.98,0-1.97,9.71-2.65,9.71-6.14,0-2.48-8.25-2.16-10.24-4.17l-3.67-.05c-3.17,1.36,3.59,2.98,3.59,3.61,0,2.03-22.15,1.63-22.15,7.38,0,6.29,22.15,5.67,22.15,9.98,0,6.32-33.4,2.75-37.8,25.33,9.42,8.95,22.14,14.46,36.16,14.46,10.81,0,20.85-3.27,29.2-8.87-9.52-5.07-13.62-10.42-13.62-14.23,0-5.61,20.64-8.75,20.64-15.31Z"/>
        <path class="st6" d="M44.13,77.78l3.2-.52s.61-5.55-.6-7.14c-.63-.83-1.5-3.14-2.12-3.55s-2.39.89-2.39.89l1.91,10.32Z"/>
        <path class="st17" d="M40.43,81.26s3.96-.41,4.1-2.05-1.7-13.46-2.26-13.95c-1.09-.96-1.28,1.55-2.8-1.09-1.85-3.21-4.79-2.6-4.79-2.6l5.74,19.69Z"/>
        <g>
          <path class="st4" d="M64.09,114.89c0-5.61,20.64-8.75,20.64-15.31,0-7.17-28.77-8.73-33.34-11.29,2.18,2.09,30.28,6.06,31.05,10.23,1.13,6.05-12.68,6.4-18.76,12.92-5.82,6.24,4.01,15.61,9.76,20.23,1.46-.79,2.9-1.62,4.27-2.55-9.52-5.07-13.62-10.42-13.62-14.23Z"/>
          <path class="st4" d="M51.3,97.33c-2.73-3.14-16.47-3.35-21.12-6.22-.1-.06-.23-.09-.35-.12,5.31,3.47,20.31,3.69,20.31,7.23,0,6.32-33.4,2.75-37.8,25.33,1.19,1.13,2.43,2.2,3.72,3.22-.09-6.22,5.03-16.93,15.83-19.93,16.04-4.47,22.15-6.36,19.41-9.5Z"/>
        </g>
        <path class="st4" d="M41.34,88.65c-.29-.26-.4-.44-.19-.65.22-.22.58-.39.92-.53,0,0,0,0,.01,0-.16.12-.33.25-.42.5-.11.31.06.62.21.78.32.35.69.54,1.05.72.16.08.33.14.49.22-.74-.29-1.51-.59-2.08-1.04Z"/>
        <path class="st9" d="M100.6,79.12c-13.5-.35-38.36-1.64-38.36-.53,0,6.7-7.38,7.31-7.38,8.61,0,2.12,29.35,4.28,33.43,11.28,2.87,4.92-15.45,12.44-16.68,15.79-1.46,3.99,3.6,8.74,9.6,12.27,12.06-9.62,19.79-24.43,19.79-41.05,0-2.16-.15-4.29-.4-6.38Z"/>
        <path class="st13" d="M100.18,76.31l-24.34-4.89-12.58,4.24s.68,6.84-3.28,9.84c-3.57,2.71,26.25,4.24,31.17,11.48s-5.88,11.07-11.07,15.04c-3.87,2.95-2.05,7.93,5.19,10.94,9.71-9.53,15.73-22.79,15.73-37.46,0-3.14-.29-6.21-.82-9.19Z"/>
        <path class="st9" d="M45.7,97.87c0-1.71-15.45-4.03-16.88-7.45l-32.51.68c1.16,10.88,5.64,20.77,12.41,28.63,2.67-6.04,9.84-13.91,19.96-16.25,12.71-2.94,17.02-4.24,17.02-5.61Z"/>
        <path class="st13" d="M31.99,94.11c-6.33-2.18-8.84-6.63-11.28-8.31-4.76-3.26-16.73-10.74-22.76-14.49-1.26,4.51-1.95,9.26-1.95,14.18,0,10.45,3.07,20.18,8.33,28.37,7.54-7.59,15.55-11.66,28.07-13.91,9.06-1.63,5.54-3.79-.41-5.84Z"/>
        <rect class="st2" x="26.4" y="79.41" width="1.78" height="17.92"/>
        <path class="st13" d="M33.97,84.36c0,5.13-2.99,7.7-6.68,7.7s-6.68-2.57-6.68-7.7,4.09-25.11,6.68-25.11,6.68,19.99,6.68,25.11Z"/>
        <path class="st17" d="M27.29,59.25c-.51,0-1.08.79-1.67,2.09,2.11,3.2,4.84,18.99,4.84,23.38s-1.91,6.7-4.44,7.23c.41.07.83.11,1.27.11,3.69,0,6.68-2.57,6.68-7.7s-4.09-25.11-6.68-25.11Z"/>
        <rect class="st2" x="66.21" y="82.27" width="1.41" height="6.51"/>
        <path class="st13" d="M72.2,77.49c0,4.06-2.37,6.09-5.29,6.09s-5.29-2.04-5.29-6.09,3.24-19.88,5.29-19.88,5.29,15.82,5.29,19.88Z"/>
        <path class="st17" d="M66.91,57.61c-.41,0-.86.63-1.32,1.65,1.67,2.53,3.83,15.04,3.83,18.51s-1.51,5.3-3.51,5.72c.33.06.66.09,1,.09,2.92,0,5.29-2.04,5.29-6.09s-3.24-19.88-5.29-19.88Z"/>
        <rect class="st2" x="15.89" y="95.41" width="1.5" height="6.97"/>
        <path class="st11" d="M22.25,90.19c0,4.31-2.51,6.47-5.61,6.47s-5.61-2.16-5.61-6.47,3.44-21.1,5.61-21.1,5.61,16.79,5.61,21.1Z"/>
        <path class="st9" d="M16.64,69.09c-.43,0-.91.67-1.4,1.76,1.77,2.69,4.07,15.95,4.07,19.64s-1.6,5.63-3.73,6.07c.34.06.7.1,1.06.1,3.1,0,5.61-2.16,5.61-6.47s-3.44-21.1-5.61-21.1Z"/>
        <rect class="st2" x="34.37" y="77.77" width="1.78" height="19.83"/>
        <path class="st12" d="M41.94,82.72c0,5.13-2.99,7.7-6.68,7.7s-6.68-2.57-6.68-7.7,4.09-25.11,6.68-25.11,6.68,19.99,6.68,25.11Z"/>
        <path class="st18" d="M35.26,57.61c-.51,0-1.08.79-1.67,2.09,2.11,3.2,4.84,18.99,4.84,23.38s-1.91,6.7-4.44,7.23c.41.07.83.11,1.27.11,3.69,0,6.68-2.57,6.68-7.7s-4.09-25.11-6.68-25.11Z"/>
        <rect class="st2" x="61.57" y="80.42" width="1.5" height="8.36"/>
        <path class="st12" d="M56.7,75.42c0,4.31,2.51,6.47,5.61,6.47s5.61-2.16,5.61-6.47-3.44-21.1-5.61-21.1-5.61,16.79-5.61,21.1Z"/>
        <path class="st18" d="M62.31,54.33c.43,0,.91.67,1.4,1.76-1.77,2.69-4.07,15.95-4.07,19.64s1.6,5.63,3.73,6.07c-.34.06-.7.1-1.06.1-3.1,0-5.61-2.16-5.61-6.47s3.44-21.1,5.61-21.1Z"/>
        <rect class="st2" x="4.16" y="98.28" width="2.28" height="10.66"/>
        <path class="st17" d="M-3.25,89.76c0,6.56,3.83,9.85,8.55,9.85s8.55-3.29,8.55-9.85-5.24-32.15-8.55-32.15S-3.25,83.19-3.25,89.76Z"/>
        <path class="st13" d="M5.3,57.61c.66,0,1.39,1.01,2.14,2.68-2.7,4.09-6.2,24.31-6.2,29.93s2.44,8.58,5.68,9.25c-.53.09-1.07.15-1.62.15-4.72,0-8.55-3.29-8.55-9.85S1.99,57.61,5.3,57.61Z"/>
        <path class="st2" d="M95.49,100.27h-2.56v13.12h.04c.91-1.45,1.75-2.95,2.52-4.49v-8.64h0Z"/>
        <path class="st13" d="M84.59,90.49c0,7.38,4.31,11.09,9.62,11.09,1.67,0,3.24-.37,4.61-1.1,1.41-4.75,2.18-9.77,2.18-14.98,0-10.74-3.23-20.73-8.77-29.05-3.53,6.78-7.64,27.87-7.64,34.04Z"/>
        <path class="st17" d="M92.23,56.45c-3.53,6.78-7.64,27.87-7.64,34.04,0,7.38,4.31,11.09,9.62,11.09.62,0,1.23-.06,1.82-.16-3.64-.76-6.39-4.24-6.39-10.41,0-5.24,2.7-21.74,5.36-29.87-.85-1.61-1.77-3.17-2.77-4.68Z"/>
        <rect class="st2" x="21.04" y="84.34" width="2.03" height="17.57"/>
        <path class="st6" d="M34.26,71.03c0-5.26-3.44-19.98-12.21-19.98s-12.21,14.73-12.21,19.98c0,2.55,1.29,4.86,3.39,6.57.42,4.5,4.2,8.03,8.82,8.03s8.4-3.53,8.82-8.03c2.09-1.71,3.39-4.02,3.39-6.57Z"/>
        <path class="st14" d="M22.05,51.05c-.58,0-1.13.07-1.66.19,6.28,1.72,8.78,14.88,8.78,19.79,0,2.55-1.08,4.86-2.82,6.57-.3,3.95-2.77,7.15-5.96,7.88.54.1,1.1.16,1.66.16,4.61,0,8.4-3.53,8.82-8.03,2.09-1.71,3.39-4.02,3.39-6.57,0-5.26-3.44-19.98-12.21-19.98Z"/>
        <rect class="st2" x="69.01" y="76.22" width="1.64" height="14.2"/>
        <path class="st6" d="M59.98,65.52c0-4.24,2.78-16.12,9.84-16.12s9.84,11.88,9.84,16.12c0,2.06-1.04,3.92-2.73,5.3-.34,3.63-3.39,6.48-7.11,6.48s-6.77-2.85-7.11-6.48c-1.69-1.38-2.73-3.24-2.73-5.3Z"/>
        <path class="st14" d="M69.83,49.41c.47,0,.91.05,1.34.15-5.07,1.38-7.08,12-7.08,15.96,0,2.06.87,3.92,2.28,5.3.25,3.18,2.23,5.76,4.81,6.35-.43.08-.88.13-1.34.13-3.72,0-6.77-2.85-7.11-6.48-1.69-1.38-2.73-3.24-2.73-5.3,0-4.24,2.78-16.12,9.84-16.12Z"/>
        <g>
          <rect class="st2" x="9.52" y="90.9" width="2.49" height="20.85"/>
          <rect class="st2" x="82.02" y="93.23" width="2.74" height="23.45"/>
        </g>
        <path class="st11" d="M93.68,83.16c0-5.9-.24-29.09-3.68-38.16-1.42-1.51-6.2,1.6-7.79.26-3.94,4.83-9.1,30.75-9.1,37.9,0,7.89,4.6,11.86,10.29,11.86s10.29-3.96,10.29-11.86Z"/>
        <path class="st9" d="M82.21,45.26c-3.94,4.83-9.1,30.75-9.1,37.9,0,7.89,4.61,11.86,10.29,11.86.67,0,1.32-.07,1.95-.17-3.9-.82-6.83-4.53-6.83-11.13s3.89-29.26,7.08-35.36c2.4-6.35,3.9-6.89,3.4-7.35-.63-.58-4,1-6.79,4.26Z"/>
        <path class="st11" d="M10.77,49.41c-.13,0-.26.02-.39.02-7.19,7.6-12.15,17.34-13.78,28.18.71,1.64,1.86,3.12,3.36,4.35.51,5.52,5.15,9.85,10.81,9.85s10.3-4.32,10.81-9.85c2.57-2.09,4.15-4.93,4.15-8.05,0-6.44-4.22-24.5-14.96-24.5Z"/>
        <path class="st9" d="M10.77,49.41c-.13,0-.26.02-.39.02-.2.21-.4.41-.6.63,6.92,3.22,9.72,18.11,9.72,23.84,0,3.13-1.32,5.96-3.46,8.05-.37,4.84-3.39,8.76-7.31,9.65.66.13,1.34.19,2.04.19,5.66,0,10.3-4.32,10.81-9.85,2.57-2.09,4.15-4.93,4.15-8.05,0-6.44-4.22-24.49-14.96-24.49Z"/>
      </g>
    </g>
  </g>
  <text class="st7" transform="translate(31.77 27.43)"><tspan x="0" y="0">R</tspan></text>
  <text class="st7" transform="translate(42.64 27.43) scale(.7)"><tspan x="0" y="0">OAD</tspan></text>
  <text class="st7" transform="translate(20.92 39.43)"><tspan x="0" y="0">B</tspan></text>
  <text class="st7" transform="translate(30.96 39.43) scale(.7)"><tspan x="0" y="0">UILDING</tspan></text>
  <path class="st3" d="M83.2,11.2c1.98,0,3.6,1.62,3.6,3.6v104.4c0,1.98-1.62,3.6-3.6,3.6H14.8c-1.98,0-3.6-1.62-3.6-3.6V14.8c0-1.98,1.62-3.6,3.6-3.6h68.4M83.2,4H14.8c-5.98,0-10.8,4.82-10.8,10.8v104.4c0,5.98,4.82,10.8,10.8,10.8h68.4c5.98,0,10.8-4.82,10.8-10.8V14.8c0-5.98-4.82-10.8-10.8-10.8h0Z"/>
</svg>