<?xml version="1.0" encoding="UTF-8"?>
<svg id="Victory_Point" xmlns="http://www.w3.org/2000/svg" version="1.1" xmlns:xlink="http://www.w3.org/1999/xlink" viewBox="0 0 98 134">
  <!-- Generator: Adobe Illustrator 29.8.1, SVG Export Plug-In . SVG Version: 2.1.1 Build 2)  -->
  <defs>
    <style>
      .st0 {
        fill: #6f6a67;
      }

      .st1 {
        fill: #89847e;
      }

      .st2 {
        fill: #8f6d61;
      }

      .st3 {
        fill: #fff;
      }

      .st4 {
        fill: #fe2a22;
      }

      .st5 {
        fill: #d8d0c5;
      }

      .st6 {
        fill: #e5e5e5;
      }

      .st7 {
        font-family: CooperBlack, 'Cooper Black';
        font-size: 14px;
      }

      .st8 {
        fill: #2f2f2f;
      }

      .st9 {
        fill: none;
        stroke: #000;
        stroke-miterlimit: 10;
        stroke-width: 2px;
      }

      .st10 {
        fill: #2e2e2f;
      }

      .st11 {
        fill: #d9d1c6;
      }

      .st12 {
        fill: #ff2a23;
      }

      .st13 {
        fill: #a62714;
      }

      .st14 {
        fill: #aca299;
      }

      .st15 {
        fill: #e5ddd2;
      }

      .st16 {
        fill: #6e4d42;
      }

      .st17 {
        fill: #f4ea92;
      }

      .st18 {
        clip-path: url(#clippath);
      }

      .st19 {
        fill: #6f6b67;
      }
    </style>
    <clipPath id="clippath">
      <rect class="st17" x="11" y="9" width="76" height="114"/>
    </clipPath>
  </defs>
  <path class="st9" d="M83.2,4H14.8c-5.98,0-10.8,4.82-10.8,10.8v104.4c0,5.98,4.82,10.8,10.8,10.8h68.4c5.98,0,10.8-4.82,10.8-10.8V14.8c0-5.98-4.82-10.8-10.8-10.8h0Z"/>
  <rect class="st6" x="7.6" y="7.6" width="82.8" height="118.8" rx="2" ry="2"/>
  <g>
    <rect class="st17" x="11" y="9" width="76" height="114"/>
    <g class="st18">
      <rect class="st15" x="11" y="90" width="8" height="9"/>
      <rect class="st15" x="81" y="90" width="8" height="9"/>
      <g>
        <path class="st14" d="M36.29,62.03h25.19v32.79h-25.19v-32.79Z"/>
        <path class="st13" d="M49.35,46c-1.97.03-2.79,2.74-7.3,8.73-3.5,4.65-5.52,6.36-5.73,7.13-.11.4-.05.63-.05.63h25.23s.07-.52-.18-.89c-.16-.25-3.1-4.02-4.94-6.55-4.86-6.7-5.2-9.06-7.03-9.04Z"/>
        <path class="st8" d="M45.03,68.63v7.19c0,.66-.25,1.17.73,1.1.59-.05,7.08,0,7.08,0,0,0,0-7.37-.04-8.21s-.98-3.4-3.91-3.36c-2.92.04-3.83,2.15-3.87,3.29h0Z"/>
        <path class="st11" d="M36.28,76.61l25.2.03v2.74l-3.42,1.44-3.29,2.63-4.16-2.74s-2.95,0-3.1.11c-.14.11-3.29,2.85-3.29,2.85l-3.5-2.88-4.43-1.03s-.03-3.12,0-3.15h0Z"/>
        <path class="st19" d="M36.28,81.53s2.78-.36,4.3.27c1.75.73,3.5,3.36,3.76,3.36.55,0,1.7-3.39,5.07-3.65,3.36-.26,4.71,3.98,5.44,4.02.55.03,1.84-3.04,3.36-3.87,1.58-.86,3.27-.88,3.27-.88v-1.41s-2.08-.2-3.78.58c-1.92.89-2.59,2.67-2.91,2.69-.23.01-1.9-2.88-5.52-2.76-3.4.11-4.65,2.58-4.94,2.58-.12,0-1.48-1.62-3.17-2.29-2.01-.8-4.88-.43-4.88-.43v1.79s0,0,0,0Z"/>
        <path class="st14" d="M15.49,95.72l-32.07,1.4s-.27,23.78-.4,24.48.4,1.4,2,1.4,127.06-.28,128.4-.28,2.27-.98,2.27-1.83v-22.31l-20.97-2.8-79.23-.07h0Z"/>
        <path class="st15" d="M26.82,97.2h44.56l-1.86-6.87s-8.97-.07-9.43-.07c-.38,0-.63.32-.63.8,0,.35,0,2.64,0,2.64h-5.98v-2.51c0-.6-.37-.91-1.03-.89-.52.01-5.79-.02-6.19,0-.59.03-.66.38-.66.93s-.02,2.35-.02,2.35h-6.45s-.02-2.13-.02-2.43-.15-.66-.88-.7c-.74-.04-9.3,0-9.3,0l-2.09,6.75h0Z"/>
        <path class="st14" d="M78.36,78.04l-10.52,3.79s.1,1.99.48,5.32c.25,2.2.8,4.83.8,4.83l10.01,2.58,7.72-4.19s.52-2.38.77-5.24c.17-1.94.3-3.49.18-3.59-1.22-.99-9.43-3.49-9.43-3.49h0Z"/>
        <path class="st14" d="M10.54,82.56s.23,2.6.44,4.39c.2,1.79.59,3.86.59,3.86l9.74,2.25,8.06-2.36s.32-2.27.44-4.49c.11-2.11.07-3.61,0-3.66-.18-.14-9.28-4.2-9.28-4.2l-9.99,4.21Z"/>
        <path class="st1" d="M11.56,90.79l17.82-.1s-.4,2.76-.64,3.95c-.23,1.18-.78,2.56-.78,2.56v25.75s-1.88,0-1.88,0v-23.48h-11.38s-1.68-1.45-2.35-4.35c-.57-2.48-.8-4.34-.8-4.34Z"/>
        <path class="st1" d="M68.77,90.26l18.07.11s-.4,2.11-1.16,4.59c-.5,1.63-1.47,4.5-1.47,4.5h-11.94l-.22,23.31h-1.58s.12-24.65.12-24.65c0,0-.59-2.54-1.07-4.33-.38-1.48-.74-3.53-.74-3.53h0Z"/>
        <path class="st10" d="M71.77,80.27v2.96c0,1.7.01,2.86.05,3.79.02.74.44,1.16,1.09,1.13.74-.03.83-.65.83-1.09s-.08-6.83-.08-6.83l-1.88.04h0Z"/>
        <path class="st10" d="M77.22,80.23s.01,6.36,0,6.83c-.01.65.35,1.17.95,1.17s.95-.57.91-1.09.08-7.14.08-7.14l-1.93.22Z"/>
        <path class="st10" d="M82.94,80.57s-.05,6.27-.05,6.62.08,1.1.91,1.04c.74-.05.83-.83.83-1.35s.04-6.27.04-6.27l-1.73-.05h0Z"/>
        <path class="st4" d="M77.08,66.88s-.06-8.74-.06-9.09.43-.8,1-.65c1.45.37,3.08,1.35,5.37,1.72,2.29.37,5.09-.08,5.53-.08s.91.61.08,1.04-2.19,1.9-5.11,2.73c-2.56.72-3.59.84-4.62,1.35-.43.22-.22,2.81-.22,2.81l-1.98.18h0Z"/>
        <path class="st13" d="M67.84,81.82s3.24-.9,10.2-.81,9.75.52,9.75.52c0,0-.22-.74-.87-1.35s-4.26-4.39-6.18-9.45c-1.05-2.76-.98-5.1-2.88-5.05-1.66.05-1.74,1.61-2.91,4.96-1.17,3.35-1.88,4.24-3.14,6.03-1.26,1.79-2.49,2.78-3.16,3.55-.85,1-.82,1.6-.82,1.6h0Z"/>
        <path class="st10" d="M13.49,81.41s.14,5.76.16,6.23c.03.41.22,1.05.96,1.02.74-.03.8-.83.8-1.05s-.16-6.51-.16-6.51l-1.77.31h0Z"/>
        <path class="st10" d="M19.59,81.45s.04,5.74.06,6.1c.03.52.23,1.13.96,1.13s.93-.69.91-1.13c-.02-.33-.03-6.12-.03-6.12l-1.9.03h0Z"/>
        <path class="st10" d="M25.45,81.5s.03,5.67.03,6.06c0,.52.22,1.11.87,1.11s.88-.41.91-1.05.03-6.01.03-6.01l-1.83-.1h0Z"/>
        <path class="st12" d="M19.1,67.79s-.03-9.02-.03-9.36c.02-1.38,1.88-.34,2.01-.31,1.4.36,3.17.91,4.77,1.19,1.6.27,5.22.58,5.55.61.33.03.61.5.05.77s-4.86,2.1-6.51,2.76c-1.66.66-4,1.08-4,1.08l-.03,3.59-1.82-.32h0Z"/>
        <path class="st13" d="M20.04,66.61c-1.85.02-2.95,5.44-4.68,8.64s-3.56,5.32-4.08,5.8c-.91.85-.72,1.51-.72,1.51,0,0,4.15-.52,9.75-.55,5.59-.04,9.56.61,9.56.61,0,0-.1-.88-.8-1.66-.48-.53-2.52-2.71-4.17-5.89-1.81-3.51-2.95-8.49-4.85-8.47h0Z"/>
        <path class="st0" d="M38.7,122.91s-.25-10.18,1.17-13.66c1.51-3.71,3.63-5.71,5.05-7.26,1.43-1.55,3.83-3.67,4.61-3.75.79-.08,3.31,2.32,5.26,4.36,1.86,1.94,4.2,4,5.18,7.46.73,2.58.5,12.76.5,12.76l-21.77.09h0Z"/>
        <path class="st1" d="M49.53,100.68c-.37,0-6.69,5.2-7.86,9.9-.93,3.77-.75,12.32-.75,12.32l17.58-.08s.49-9.87-.76-12.9c-1.95-4.74-7.85-9.24-8.22-9.24h0Z"/>
        <path class="st16" d="M43.6,122.9s-.1-9.8-.06-11.1c.05-1.3,1.86-5.2,6.13-5.11,4.28.09,6.13,3.67,6.18,5.11s0,11.04,0,11.04l-12.26.06h0Z"/>
        <path class="st2" d="M45.25,122.89h1.44v-15.52s-.59.34-.88.59c-.28.23-.57.52-.57.52v14.41Z"/>
        <path class="st2" d="M49.18,122.87v-16.17s.44-.02.64-.01c.27.01.63.07.63.07l.1,16.12h-1.38s0,0,0,0Z"/>
        <path class="st2" d="M53.25,107.79s.41.28.72.56c.27.25.54.57.54.57v13.92s-1.35,0-1.35,0l.09-15.06Z"/>
        <path class="st5" d="M62.4,111.85v-2.36s4.22-.03,4.28.04.04,2.33.04,2.33h-4.32s0-.01,0-.01Z"/>
        <path class="st5" d="M74.06,114.39c-.11.16-.15,2.38-.01,2.42.14.04,4.03,0,4.03,0v-2.52s-3.88-.09-4.02.1Z"/>
        <path class="st5" d="M80.98,102.39c-.11.16-.15,2.38-.01,2.42.14.04,4.03,0,4.03,0v-2.52s-3.88-.09-4.02.1Z"/>
        <path class="st5" d="M39.56,103.62v2.36s-4.23.1-4.34-.03c-.1-.13-.09-2.25-.01-2.3s4.35-.03,4.35-.03h0Z"/>
        <path class="st5" d="M32.59,107.96s4.18-.03,4.26.03.07,2.35.07,2.35c0,0-4.2.07-4.28-.01-.08-.08-.04-2.37-.04-2.37h0Z"/>
        <path class="st5" d="M19.96,102.11s-.1,2.2.04,2.29c.13.1,4.35.11,4.44.04s.08-2.28,0-2.33c-.07-.05-4.48,0-4.48,0h0Z"/>
        <path class="st5" d="M17.96,118.11s-.1,2.2.04,2.29c.13.1,4.35.11,4.44.04s.08-2.28,0-2.33c-.07-.05-4.48,0-4.48,0h0Z"/>
        <path class="st5" d="M14.96,114.11s-.1,2.2.04,2.29c.13.1,4.35.11,4.44.04s.08-2.28,0-2.33c-.07-.05-4.48,0-4.48,0h0Z"/>
      </g>
    </g>
  </g>
  <text class="st7" transform="translate(22.96 27.43)"><tspan x="0" y="0">V</tspan></text>
  <text class="st7" transform="translate(34.19 27.43) scale(.7)"><tspan x="0" y="0">ICTORY</tspan></text>
  <text class="st7" transform="translate(30.87 39.43)"><tspan x="0" y="0">P</tspan></text>
  <text class="st7" transform="translate(40.45 39.43) scale(.7)"><tspan x="0" y="0">OINT</tspan></text>
  <path class="st3" d="M83.2,11.2c1.98,0,3.6,1.62,3.6,3.6v104.4c0,1.98-1.62,3.6-3.6,3.6H14.8c-1.98,0-3.6-1.62-3.6-3.6V14.8c0-1.98,1.62-3.6,3.6-3.6h68.4M83.2,4H14.8c-5.98,0-10.8,4.82-10.8,10.8v104.4c0,5.98,4.82,10.8,10.8,10.8h68.4c5.98,0,10.8-4.82,10.8-10.8V14.8c0-5.98-4.82-10.8-10.8-10.8h0Z"/>
</svg>