<?xml version="1.0" encoding="UTF-8"?>
<svg id="Victory_Point" xmlns="http://www.w3.org/2000/svg" version="1.1" xmlns:xlink="http://www.w3.org/1999/xlink" viewBox="0 0 98 134">
  <!-- Generator: Adobe Illustrator 29.8.1, SVG Export Plug-In . SVG Version: 2.1.1 Build 2)  -->
  <defs>
    <style>
      .st0 {
        fill: #6f6a67;
      }

      .st1 {
        fill: #89847e;
      }

      .st2 {
        fill: #8f6d61;
      }

      .st3 {
        fill: #fff;
      }

      .st4 {
        fill: #fe2a22;
      }

      .st5, .st6 {
        fill: none;
      }

      .st7 {
        fill: #d8d0c5;
      }

      .st8 {
        fill: #e5e5e5;
      }

      .st9 {
        fill: #2f2f2f;
      }

      .st6 {
        stroke: #000;
        stroke-miterlimit: 10;
        stroke-width: 2px;
      }

      .st10 {
        isolation: isolate;
      }

      .st11 {
        fill: #2e2e2f;
      }

      .st12 {
        fill: #d9d1c6;
      }

      .st13 {
        fill: #ff2a23;
      }

      .st14 {
        fill: #a62714;
      }

      .st15 {
        fill: #aca299;
      }

      .st16 {
        fill: #e5ddd2;
      }

      .st17 {
        fill: #6e4d42;
      }

      .st18 {
        fill: #f4ea92;
      }

      .st19 {
        clip-path: url(#clippath);
      }

      .st20 {
        fill: #6f6b67;
      }
    </style>
    <clipPath id="clippath">
      <rect class="st5" x="11" y="9" width="76" height="114"/>
    </clipPath>
  </defs>
  <path class="st6" d="M83.2,4H14.8c-5.98,0-10.8,4.82-10.8,10.8v104.4c0,5.98,4.82,10.8,10.8,10.8h68.4c5.98,0,10.8-4.82,10.8-10.8V14.8c0-5.98-4.82-10.8-10.8-10.8h0Z"/>
  <rect class="st8" x="7.6" y="7.6" width="82.8" height="118.8" rx="2" ry="2"/>
  <g>
    <rect class="st18" x="11" y="9" width="76" height="114"/>
    <g class="st19">
      <g>
        <rect class="st16" x="11" y="90" width="8" height="9"/>
        <rect class="st16" x="81" y="90" width="8" height="9"/>
        <g>
          <path class="st15" d="M36.29,62.03h25.19v32.79h-25.19v-32.79Z"/>
          <path class="st14" d="M49.35,46c-1.97.03-2.79,2.74-7.3,8.73-3.5,4.65-5.52,6.36-5.73,7.13-.11.4-.05.63-.05.63h25.23s.07-.52-.18-.89c-.16-.25-3.1-4.02-4.94-6.55-4.86-6.7-5.2-9.06-7.03-9.04h0Z"/>
          <path class="st9" d="M45.03,68.63v7.19c0,.66-.25,1.17.73,1.1.59-.05,7.08,0,7.08,0,0,0,0-7.37-.04-8.21s-.98-3.4-3.91-3.36c-2.92.04-3.83,2.15-3.87,3.29h.01Z"/>
          <path class="st12" d="M36.28,76.61l25.2.03v2.74l-3.42,1.44-3.29,2.63-4.16-2.74s-2.95,0-3.1.11c-.14.11-3.29,2.85-3.29,2.85l-3.5-2.88-4.43-1.03s-.03-3.12,0-3.15h0Z"/>
          <path class="st20" d="M36.28,81.53s2.78-.36,4.3.27c1.75.73,3.5,3.36,3.76,3.36.55,0,1.7-3.39,5.07-3.65,3.36-.26,4.71,3.98,5.44,4.02.55.03,1.84-3.04,3.36-3.87,1.58-.86,3.27-.88,3.27-.88v-1.41s-2.08-.2-3.78.58c-1.92.89-2.59,2.67-2.91,2.69-.23.01-1.9-2.88-5.52-2.76-3.4.11-4.65,2.58-4.94,2.58-.12,0-1.48-1.62-3.17-2.29-2.01-.8-4.88-.43-4.88-.43v1.79h0Z"/>
          <path class="st15" d="M15.49,95.72l-32.07,1.4s-.27,23.78-.4,24.48.4,1.4,2,1.4,127.06-.28,128.4-.28,2.27-.98,2.27-1.83v-22.31l-20.97-2.8-79.23-.07h0Z"/>
          <path class="st16" d="M26.82,97.2h44.56l-1.86-6.87s-8.97-.07-9.43-.07c-.38,0-.63.32-.63.8v2.64h-5.98v-2.51c0-.6-.37-.91-1.03-.89-.52.01-5.79-.02-6.19,0-.59.03-.66.38-.66.93s-.02,2.35-.02,2.35h-6.45s-.02-2.13-.02-2.43-.15-.66-.88-.7c-.74-.04-9.3,0-9.3,0l-2.09,6.75h-.02Z"/>
          <path class="st15" d="M78.36,78.04l-10.52,3.79s.1,1.99.48,5.32c.25,2.2.8,4.83.8,4.83l10.01,2.58,7.72-4.19s.52-2.38.77-5.24c.17-1.94.3-3.49.18-3.59-1.22-.99-9.43-3.49-9.43-3.49h-.01Z"/>
          <path class="st15" d="M10.54,82.56s.23,2.6.44,4.39c.2,1.79.59,3.86.59,3.86l9.74,2.25,8.06-2.36s.32-2.27.44-4.49c.11-2.11.07-3.61,0-3.66-.18-.14-9.28-4.2-9.28-4.2,0,0-9.99,4.21-9.99,4.21Z"/>
          <path class="st1" d="M11.56,90.79l17.82-.1s-.4,2.76-.64,3.95c-.23,1.18-.78,2.56-.78,2.56v25.75h-1.88v-23.48h-11.38s-1.68-1.45-2.35-4.35c-.57-2.48-.8-4.34-.8-4.34h0Z"/>
          <path class="st1" d="M68.77,90.26l18.07.11s-.4,2.11-1.16,4.59c-.5,1.63-1.47,4.5-1.47,4.5h-11.94l-.22,23.31h-1.58l.12-24.65s-.59-2.54-1.07-4.33c-.38-1.48-.74-3.53-.74-3.53h0Z"/>
          <path class="st11" d="M71.77,80.27v2.96c0,1.7.01,2.86.05,3.79.02.74.44,1.16,1.09,1.13.74-.03.83-.65.83-1.09s-.08-6.83-.08-6.83l-1.88.04h-.01Z"/>
          <path class="st11" d="M77.22,80.23s.01,6.36,0,6.83c-.01.65.35,1.17.95,1.17s.95-.57.91-1.09.08-7.14.08-7.14l-1.93.22h-.01Z"/>
          <path class="st11" d="M82.94,80.57s-.05,6.27-.05,6.62.08,1.1.91,1.04c.74-.05.83-.83.83-1.35s.04-6.27.04-6.27l-1.73-.05h0Z"/>
          <path class="st4" d="M77.08,66.88s-.06-8.74-.06-9.09.43-.8,1-.65c1.45.37,3.08,1.35,5.37,1.72,2.29.37,5.09-.08,5.53-.08s.91.61.08,1.04-2.19,1.9-5.11,2.73c-2.56.72-3.59.84-4.62,1.35-.43.22-.22,2.81-.22,2.81l-1.98.18h.01Z"/>
          <path class="st14" d="M67.84,81.82s3.24-.9,10.2-.81,9.75.52,9.75.52c0,0-.22-.74-.87-1.35s-4.26-4.39-6.18-9.45c-1.05-2.76-.98-5.1-2.88-5.05-1.66.05-1.74,1.61-2.91,4.96-1.17,3.35-1.88,4.24-3.14,6.03s-2.49,2.78-3.16,3.55c-.85,1-.82,1.6-.82,1.6h.01Z"/>
          <path class="st11" d="M13.49,81.41s.14,5.76.16,6.23c.03.41.22,1.05.96,1.02.74-.03.8-.83.8-1.05s-.16-6.51-.16-6.51l-1.77.31h.01Z"/>
          <path class="st11" d="M19.59,81.45s.04,5.74.06,6.1c.03.52.23,1.13.96,1.13s.93-.69.91-1.13c-.02-.33-.03-6.12-.03-6.12l-1.9.03h0Z"/>
          <path class="st11" d="M25.45,81.5s.03,5.67.03,6.06c0,.52.22,1.11.87,1.11s.88-.41.91-1.05.03-6.01.03-6.01l-1.83-.1h-.01Z"/>
          <path class="st13" d="M19.1,67.79s-.03-9.02-.03-9.36c.02-1.38,1.88-.34,2.01-.31,1.4.36,3.17.91,4.77,1.19,1.6.27,5.22.58,5.55.61.33.03.61.5.05.77s-4.86,2.1-6.51,2.76c-1.66.66-4,1.08-4,1.08l-.03,3.59-1.82-.32h.01Z"/>
          <path class="st14" d="M20.04,66.61c-1.85.02-2.95,5.44-4.68,8.64s-3.56,5.32-4.08,5.8c-.91.85-.72,1.51-.72,1.51,0,0,4.15-.52,9.75-.55,5.59-.04,9.56.61,9.56.61,0,0-.1-.88-.8-1.66-.48-.53-2.52-2.71-4.17-5.89-1.81-3.51-2.95-8.49-4.85-8.47h-.01Z"/>
          <path class="st0" d="M38.7,122.91s-.25-10.18,1.17-13.66c1.51-3.71,3.63-5.71,5.05-7.26,1.43-1.55,3.83-3.67,4.61-3.75.79-.08,3.31,2.32,5.26,4.36,1.86,1.94,4.2,4,5.18,7.46.73,2.58.5,12.76.5,12.76l-21.77.09h0Z"/>
          <path class="st1" d="M49.53,100.68c-.37,0-6.69,5.2-7.86,9.9-.93,3.77-.75,12.32-.75,12.32l17.58-.08s.49-9.87-.76-12.9c-1.95-4.74-7.85-9.24-8.22-9.24h0Z"/>
          <path class="st17" d="M43.6,122.9s-.1-9.8-.06-11.1c.05-1.3,1.86-5.2,6.13-5.11,4.28.09,6.13,3.67,6.18,5.11s0,11.04,0,11.04l-12.26.06h.01Z"/>
          <path class="st2" d="M45.25,122.89h1.44v-15.52s-.59.34-.88.59c-.28.23-.57.52-.57.52v14.41h.01Z"/>
          <path class="st2" d="M49.18,122.87v-16.17s.44-.02.64-.01c.27.01.63.07.63.07l.1,16.12h-1.38.01Z"/>
          <path class="st2" d="M53.25,107.79s.41.28.72.56c.27.25.54.57.54.57v13.92h-1.35l.09-15.06h0Z"/>
          <path class="st7" d="M62.4,111.85v-2.36s4.22-.03,4.28.04.04,2.33.04,2.33h-4.32Z"/>
          <path class="st7" d="M74.06,114.39c-.11.16-.15,2.38-.01,2.42s4.03,0,4.03,0v-2.52s-3.88-.09-4.02.1Z"/>
          <path class="st7" d="M80.98,102.39c-.11.16-.15,2.38-.01,2.42s4.03,0,4.03,0v-2.52s-3.88-.09-4.02.1Z"/>
          <path class="st7" d="M39.56,103.62v2.36s-4.23.1-4.34-.03c-.1-.13-.09-2.25,0-2.3s4.35-.03,4.35-.03h0Z"/>
          <path class="st7" d="M32.59,107.96s4.18-.03,4.26.03.07,2.35.07,2.35c0,0-4.2.07-4.28-.01-.08-.08-.04-2.37-.04-2.37h0Z"/>
          <path class="st7" d="M19.96,102.11s-.1,2.2.04,2.29c.13.1,4.35.11,4.44.04s.08-2.28,0-2.33c-.07-.05-4.48,0-4.48,0h0Z"/>
          <path class="st7" d="M17.96,118.11s-.1,2.2.04,2.29c.13.1,4.35.11,4.44.04s.08-2.28,0-2.33c-.07-.05-4.48,0-4.48,0h0Z"/>
          <path class="st7" d="M14.96,114.11s-.1,2.2.04,2.29c.13.1,4.35.11,4.44.04s.08-2.28,0-2.33c-.07-.05-4.48,0-4.48,0h0Z"/>
        </g>
      </g>
    </g>
  </g>
  <g class="st10">
    <g class="st10">
      <path d="M32.65,20.22l-3.14,6.35c-.19.39-.37.66-.55.81-.17.15-.39.22-.66.22-.22,0-.41-.05-.59-.14-.13-.07-.24-.16-.31-.26-.08-.1-.17-.28-.28-.53l-2.8-6.16c-.15-.35-.29-.58-.42-.71-.13-.13-.3-.21-.54-.25-.27-.05-.41-.22-.41-.51,0-.35.24-.62.72-.81.48-.19,1.16-.28,2.06-.28s1.61.07,2.05.21.66.36.66.66c0,.19-.12.37-.36.53-.18.12-.27.24-.27.35,0,.1.04.24.12.43l.85,1.93c.12.28.26.42.42.42s.28-.08.4-.23.28-.45.48-.89c.36-.79.57-1.26.63-1.4.06-.14.09-.25.09-.33,0-.16-.11-.29-.32-.4-.24-.12-.36-.28-.36-.47,0-.54.73-.81,2.18-.81.72,0,1.24.06,1.53.17.3.12.45.32.45.6,0,.34-.2.53-.59.58-.28.03-.46.08-.54.14-.15.1-.32.36-.52.77Z"/>
    </g>
  </g>
  <g class="st10">
    <g class="st10">
      <path d="M36.43,20.8c.36,0,.71.03,1.03.1.43.09.65.27.65.55,0,.09-.02.16-.06.21-.04.05-.15.11-.33.2-.15.07-.24.23-.29.48-.05.25-.07.73-.07,1.45,0,1.22.03,1.97.09,2.26.02.09.06.16.1.21.05.05.13.1.24.16.21.1.32.23.32.42,0,.26-.19.43-.58.53-.42.1-.94.15-1.55.15-1.04,0-1.56-.2-1.56-.59,0-.14.1-.28.31-.4.16-.1.25-.23.28-.39.06-.36.09-1.14.09-2.32,0-.82-.04-1.34-.12-1.57-.04-.13-.15-.25-.32-.35-.13-.09-.22-.16-.26-.22-.04-.06-.07-.13-.07-.22,0-.14.07-.25.2-.33.13-.08.37-.15.7-.22.4-.08.8-.12,1.21-.12Z"/>
      <path d="M42.08,20.76c.47,0,.92.1,1.35.31.2.1.35.14.43.14.06,0,.15-.01.28-.04.04,0,.09-.01.14-.01.17,0,.31.08.44.23.31.37.46.83.46,1.38,0,.39-.13.67-.4.85-.14.1-.3.14-.48.14-.16,0-.29-.04-.4-.11s-.2-.19-.3-.37c-.14-.25-.25-.43-.33-.54-.09-.11-.19-.21-.32-.3-.31-.22-.63-.33-.97-.33s-.59.12-.78.36c-.19.24-.29.56-.29.96,0,.55.14,1.05.42,1.51.38.61.92.91,1.62.91.26,0,.51-.04.77-.13.25-.09.45-.2.59-.33.12-.11.22-.17.3-.17.11,0,.21.05.29.16.08.1.12.23.12.38,0,.19-.06.39-.17.62-.11.23-.25.41-.4.54-.07.05-.21.1-.42.14-.12.02-.28.08-.48.18-.47.23-.96.34-1.47.34s-1.06-.12-1.59-.36c-.62-.28-1.1-.7-1.46-1.28-.35-.56-.53-1.14-.53-1.75,0-.71.22-1.35.66-1.94.38-.51.88-.89,1.5-1.16.47-.2.95-.31,1.45-.31Z"/>
      <path d="M47.53,20.9h2.52c.27,0,.52-.05.74-.11.1-.03.18-.04.25-.04.26,0,.51.19.75.57.24.38.37.78.37,1.18,0,.28-.08.48-.25.61-.13.1-.28.14-.46.14-.17,0-.32-.05-.44-.14-.12-.09-.25-.25-.37-.47-.11-.2-.19-.33-.25-.39s-.13-.09-.22-.09c-.12,0-.2.05-.25.15-.05.1-.08.26-.08.49v2.68c0,.27.03.47.09.6s.17.22.33.29c.17.07.29.14.35.21.06.07.09.16.09.27,0,.23-.16.4-.47.51-.31.11-.79.17-1.43.17-.79,0-1.38-.07-1.76-.2-.32-.11-.48-.28-.48-.53,0-.13.06-.23.17-.31.03-.02.14-.05.34-.11.12-.04.21-.1.25-.2.05-.1.08-.29.11-.57.03-.25.05-.65.07-1.21.02-.56.03-1.04.03-1.45,0-.29-.02-.49-.07-.61-.04-.12-.12-.18-.22-.18-.12,0-.25.09-.36.27-.21.33-.39.54-.53.65-.16.12-.32.19-.47.19-.17,0-.31-.06-.43-.19s-.17-.29-.17-.5.04-.42.13-.65.21-.46.36-.66c.24-.33.48-.49.72-.49.06,0,.14,0,.22.03.17.04.31.06.42.07.11.01.24.02.38.02Z"/>
      <path d="M55.98,20.76c.82,0,1.54.23,2.15.7.42.32.75.74,1.01,1.25.25.51.38,1.02.38,1.53,0,.75-.25,1.43-.75,2.02-.42.5-.97.87-1.65,1.09-.42.13-.84.2-1.26.2-.55,0-1.08-.12-1.58-.34-.61-.28-1.09-.7-1.43-1.26-.33-.54-.5-1.14-.5-1.79,0-.76.22-1.43.65-2.01.38-.52.9-.9,1.54-1.14.43-.17.92-.25,1.45-.25ZM55.53,22.14c-.27,0-.48.12-.64.36-.12.18-.18.39-.18.64,0,.36.07.78.22,1.25s.33.89.56,1.26c.1.16.22.28.37.37.15.09.29.14.44.14.24,0,.44-.09.59-.27.15-.18.22-.42.22-.72,0-.39-.06-.8-.19-1.25-.12-.45-.29-.83-.48-1.14-.12-.19-.26-.35-.42-.46-.16-.11-.32-.17-.48-.18Z"/>
      <path d="M63.06,24.68c-.12,0-.2.04-.23.11-.03.07-.05.24-.05.51,0,.41.03.72.08.95.02.06.04.11.07.15.03.04.09.08.18.13.19.1.29.24.29.42,0,.21-.13.36-.4.45-.27.09-.72.13-1.35.13-1.18,0-1.77-.22-1.77-.67,0-.08.02-.14.05-.18.04-.05.12-.11.24-.19.14-.09.24-.2.29-.33.05-.13.08-.34.1-.65.02-.23.02-1.04.02-2.44,0-.44-.02-.75-.07-.9-.04-.16-.14-.28-.29-.35-.14-.07-.23-.13-.28-.18-.05-.06-.07-.13-.07-.22,0-.12.05-.22.14-.31.09-.09.22-.15.38-.19.14-.04.33-.05.56-.05.11,0,.37.02.79.05.08,0,.21,0,.38,0,.29,0,.67-.02,1.15-.06.3-.02.52-.03.64-.03.68,0,1.25.16,1.69.49.4.3.6.71.6,1.23,0,.29-.07.56-.21.8-.14.24-.33.42-.58.54-.1.05-.15.11-.15.18,0,.09.08.17.23.23.33.12.58.3.74.55s.27.62.33,1.13c.03.21.07.35.12.41.05.06.18.12.38.18.06.02.11.06.15.12.04.06.06.13.06.21,0,.1-.04.2-.11.3-.08.1-.18.18-.3.24-.27.12-.63.19-1.1.19-.62,0-1.07-.16-1.33-.49-.12-.15-.22-.33-.31-.56-.08-.22-.18-.57-.3-1.04-.07-.3-.17-.52-.28-.64-.11-.12-.28-.19-.49-.2ZM62.79,22.24l-.05,1.11v.04c0,.12.02.19.05.23.03.04.1.06.2.06.28,0,.49-.07.61-.22.13-.15.19-.38.19-.7,0-.62-.22-.92-.66-.92-.12,0-.21.03-.26.09-.05.06-.08.16-.09.31Z"/>
      <path d="M68.95,20.8c.62,0,1.1.03,1.43.1.15.03.27.09.36.17s.14.18.14.29c0,.08-.04.17-.11.25-.1.13-.15.23-.15.28,0,.12.09.3.27.55.12.16.23.24.34.24.07,0,.13-.02.2-.07.06-.05.15-.14.25-.27.12-.16.19-.28.19-.37,0-.06,0-.1-.02-.13-.01-.03-.07-.1-.16-.21-.06-.07-.1-.17-.1-.3,0-.36.49-.54,1.46-.54.55,0,.91.03,1.08.08.11.03.19.09.26.18s.1.19.1.29c0,.13-.04.23-.12.3-.08.07-.22.12-.42.15-.18.04-.34.1-.47.21-.13.1-.38.35-.74.73-.43.47-.7.81-.81,1.04-.11.22-.16.55-.16.99,0,.37.01.71.04,1.03.02.19.05.33.09.4.04.08.14.15.28.22.23.12.35.27.35.45,0,.43-.64.65-1.92.65-.53,0-1.02-.05-1.49-.15-.4-.09-.59-.26-.59-.51,0-.2.12-.34.36-.43.18-.06.3-.15.34-.24.1-.22.15-.74.15-1.56,0-.26-.03-.45-.08-.6-.05-.14-.16-.33-.33-.55-.36-.47-.73-.89-1.12-1.27-.17-.16-.33-.27-.48-.33-.22-.08-.35-.14-.39-.18-.09-.08-.13-.18-.13-.31,0-.21.16-.37.48-.46.32-.09.86-.14,1.62-.14Z"/>
    </g>
  </g>
  <g class="st10">
    <g class="st10">
      <path d="M32.29,36.21v-3.6c0-.46-.03-.76-.1-.89-.06-.12-.24-.23-.52-.3-.41-.12-.62-.32-.62-.62,0-.21.09-.36.26-.47s.42-.16.75-.16c.11,0,.38,0,.81.02h.41c.76,0,1.2-.01,1.33-.02.13,0,.59-.05,1.39-.12.26-.03.51-.04.72-.04.75,0,1.41.15,2,.46,1.02.53,1.52,1.37,1.52,2.52,0,.93-.36,1.67-1.07,2.24-.67.52-1.48.79-2.43.79-.24,0-.54-.02-.89-.05-.19-.01-.3-.02-.35-.02-.13,0-.2.08-.2.23v.04l.05,1.12c0,.22.05.38.12.49.07.11.22.22.43.33.3.16.44.33.44.52,0,.29-.22.51-.66.66s-1.06.23-1.86.23c-1.69,0-2.53-.29-2.53-.87,0-.14.04-.24.11-.31s.24-.18.51-.31c.16-.09.26-.21.29-.36s.05-.65.05-1.5ZM35.37,31.75v2.32c0,.18.04.29.12.32.13.06.3.1.5.1.3,0,.55-.08.76-.25.3-.24.44-.65.44-1.22s-.17-1.02-.52-1.29c-.22-.17-.48-.25-.79-.25-.34,0-.51.09-.51.27Z"/>
    </g>
  </g>
  <g class="st10">
    <g class="st10">
      <path d="M44.32,32.76c.82,0,1.54.23,2.15.7.41.32.75.74,1.01,1.25.25.51.38,1.02.38,1.53,0,.75-.25,1.43-.75,2.02-.42.5-.97.87-1.65,1.09-.42.13-.84.2-1.26.2-.55,0-1.08-.12-1.58-.34-.61-.28-1.09-.7-1.43-1.26-.33-.54-.5-1.14-.5-1.79,0-.76.22-1.43.65-2.01.38-.52.9-.9,1.55-1.14.43-.17.92-.25,1.44-.25ZM43.86,34.14c-.27,0-.48.12-.64.36-.12.18-.18.39-.18.64,0,.36.07.78.22,1.25.15.47.33.89.56,1.26.1.16.22.28.37.37.15.09.29.14.44.14.24,0,.44-.09.59-.27.15-.18.22-.42.22-.72,0-.39-.06-.8-.19-1.25-.12-.45-.29-.83-.48-1.14-.12-.19-.26-.35-.42-.46s-.32-.17-.48-.18Z"/>
      <path d="M50.32,32.8c.37,0,.71.03,1.03.1.43.09.65.27.65.55,0,.09-.02.16-.06.21-.04.05-.15.11-.33.2-.15.07-.24.23-.29.48-.05.25-.07.73-.07,1.45,0,1.22.03,1.97.09,2.26.02.09.06.16.1.21.05.05.13.1.24.16.21.1.31.23.31.42,0,.26-.19.43-.58.53-.42.1-.94.15-1.54.15-1.04,0-1.56-.2-1.56-.59,0-.14.1-.28.31-.4.16-.1.25-.23.28-.39.06-.36.09-1.14.09-2.32,0-.82-.04-1.34-.12-1.57-.04-.13-.15-.25-.32-.35-.13-.09-.22-.16-.26-.22-.04-.06-.07-.13-.07-.22,0-.14.07-.25.2-.33.13-.08.37-.15.7-.22.4-.08.8-.12,1.21-.12Z"/>
      <path d="M54.95,33.13l2.38,2.09c.22.19.38.29.48.29.17,0,.25-.18.25-.53,0-.4-.02-.68-.07-.82-.05-.15-.15-.26-.3-.33-.12-.06-.21-.12-.26-.19-.05-.07-.08-.16-.08-.27,0-.27.18-.44.55-.52.15-.03.41-.05.79-.05.48,0,.82.03,1,.09.29.09.44.26.44.51,0,.21-.12.36-.36.47-.1.04-.16.08-.2.11-.04.03-.07.08-.09.14-.09.21-.13.61-.13,1.2v1.56c0,.24,0,.57,0,.98,0,.56-.03.97-.1,1.22-.09.31-.24.46-.47.46-.1,0-.18-.02-.26-.06-.07-.04-.19-.14-.36-.29l-2.84-2.54c-.2-.18-.36-.27-.49-.27-.19,0-.29.27-.29.81,0,.44.03.75.07.91.05.16.15.28.3.36.21.11.32.24.32.41,0,.44-.48.67-1.43.67-.43,0-.77-.06-1-.17s-.36-.27-.36-.48c0-.11.02-.19.07-.24.04-.05.14-.13.3-.22.15-.09.24-.25.27-.47.05-.41.08-1,.08-1.77,0-.82-.05-1.42-.14-1.8-.04-.14-.08-.24-.13-.31-.05-.07-.14-.13-.27-.19-.14-.07-.24-.14-.3-.21s-.08-.15-.08-.24c0-.31.26-.5.79-.58.18-.03.49-.04.94-.04.26,0,.44.02.56.06.12.04.25.13.41.27Z"/>
      <path d="M62.5,32.9h2.52c.27,0,.52-.05.74-.11.1-.03.18-.04.25-.04.26,0,.51.19.75.57.24.38.37.78.37,1.18,0,.28-.08.48-.25.61-.13.1-.28.14-.46.14-.17,0-.32-.05-.44-.14-.12-.09-.25-.25-.37-.47-.11-.2-.19-.33-.25-.39s-.13-.09-.22-.09c-.12,0-.2.05-.25.15-.05.1-.08.26-.08.49v2.68c0,.27.03.47.09.6s.17.22.33.29c.17.07.29.14.35.21.06.07.09.16.09.27,0,.23-.16.4-.47.51-.31.11-.79.17-1.43.17-.79,0-1.38-.07-1.76-.2-.32-.11-.48-.28-.48-.53,0-.13.06-.23.17-.31.03-.02.14-.05.34-.11.12-.04.21-.1.25-.2.05-.1.08-.29.11-.57.03-.25.05-.65.07-1.21s.03-1.04.03-1.45c0-.29-.02-.49-.07-.61-.04-.12-.12-.18-.22-.18-.12,0-.25.09-.36.27-.21.33-.39.54-.53.65-.16.12-.32.19-.47.19-.17,0-.31-.06-.43-.19-.11-.13-.17-.29-.17-.5s.04-.42.13-.65c.09-.24.21-.46.36-.66.24-.33.48-.49.72-.49.06,0,.14,0,.22.03.17.04.31.06.42.07.11.01.24.02.38.02Z"/>
    </g>
  </g>
  <path class="st3" d="M83.2,11.2c1.98,0,3.6,1.62,3.6,3.6v104.4c0,1.98-1.62,3.6-3.6,3.6H14.8c-1.98,0-3.6-1.62-3.6-3.6V14.8c0-1.98,1.62-3.6,3.6-3.6h68.4M83.2,4H14.8c-5.98,0-10.8,4.82-10.8,10.8v104.4c0,5.98,4.82,10.8,10.8,10.8h68.4c5.98,0,10.8-4.82,10.8-10.8V14.8c0-5.98-4.82-10.8-10.8-10.8h0Z"/>
</svg>