<?xml version="1.0" encoding="UTF-8"?>
<svg id="Year_of_Plenty" xmlns="http://www.w3.org/2000/svg" version="1.1" xmlns:xlink="http://www.w3.org/1999/xlink" viewBox="0 0 98 134">
  <!-- Generator: Adobe Illustrator 29.8.1, SVG Export Plug-In . SVG Version: 2.1.1 Build 2)  -->
  <defs>
    <style>
      .st0 {
        fill: #a0104b;
      }

      .st1 {
        fill: #aa0539;
      }

      .st2 {
        fill: #49a010;
      }

      .st3 {
        fill: #3d9955;
      }

      .st4 {
        fill: #c69d6b;
      }

      .st5 {
        fill: #cc9d6e;
      }

      .st6 {
        fill: #91bca2;
      }

      .st7 {
        fill: #76a32f;
      }

      .st8 {
        fill: #c10c3c;
      }

      .st9 {
        fill: #8e0939;
      }

      .st10 {
        fill: #fff;
      }

      .st11 {
        fill: #c63c74;
      }

      .st12 {
        fill: #ff860d;
      }

      .st13 {
        fill: #e5e5e5;
      }

      .st14 {
        fill: #a7c6b6;
      }

      .st15, .st16 {
        font-family: CooperBlack, 'Cooper Black';
        font-size: 14px;
      }

      .st17 {
        fill: #accfea;
      }

      .st18 {
        fill: #ffaf10;
      }

      .st19 {
        fill: #68ad27;
      }

      .st20 {
        fill: none;
        stroke: #000;
        stroke-miterlimit: 10;
        stroke-width: 2px;
      }

      .st21 {
        fill: #af8d5f;
      }

      .st22 {
        fill: #7fad8f;
      }

      .st23 {
        fill: #5c8729;
      }

      .st24 {
        fill: #d84a81;
      }

      .st25 {
        fill: #a82d65;
      }

      .st26 {
        fill: #e56107;
      }

      .st27 {
        fill: #e0103d;
      }

      .st28 {
        fill: #e2b481;
      }

      .st29 {
        fill: #ff8c1a;
      }

      .st30 {
        fill: #2f7745;
      }

      .st31 {
        fill: #7fcc2e;
      }

      .st32 {
        fill: #43a52f;
      }

      .st33 {
        fill: #3a8708;
      }

      .st16 {
        letter-spacing: 0em;
      }

      .st34 {
        fill: #ff7415;
      }

      .st35 {
        clip-path: url(#clippath);
      }

      .st36 {
        fill: #bfd8cc;
      }

      .st37 {
        fill: #f41650;
      }
    </style>
    <clipPath id="clippath">
      <rect class="st17" x="11" y="9" width="76" height="114"/>
    </clipPath>
  </defs>
  <path class="st20" d="M83.2,4H14.8c-5.98,0-10.8,4.82-10.8,10.8v104.4c0,5.98,4.82,10.8,10.8,10.8h68.4c5.98,0,10.8-4.82,10.8-10.8V14.8c0-5.98-4.82-10.8-10.8-10.8h0Z"/>
  <rect class="st13" x="7.6" y="7.6" width="82.8" height="118.8" rx="2" ry="2"/>
  <g>
    <rect class="st17" x="11" y="9" width="76" height="114"/>
    <g class="st35">
      <g>
        <path class="st12" d="M78.35,61.11c0,3.95-3.2,31.53-7.15,31.53s-7.15-27.58-7.15-31.53,3.2-5.68,7.15-5.68,7.15,1.73,7.15,5.68Z"/>
        <g>
          <path class="st26" d="M75.23,61.11c0,3.95-1.8,31.53-4.03,31.53s-4.04-27.58-4.04-31.53,1.81-5.68,4.04-5.68,4.03,1.73,4.03,5.68Z"/>
          <path class="st26" d="M68.48,60.9c0,.22-.18.4-.4.4h-1.65c-.22,0-.4-.18-.4-.4h0c0-.22.18-.4.4-.4h1.65c.22,0,.4.18.4.4h0Z"/>
        </g>
        <path class="st12" d="M70.62,63.52c0,.22-.18.4-.4.4h-1.65c-.22,0-.4-.18-.4-.4h0c0-.22.18-.4.4-.4h1.65c.22,0,.4.18.4.4h0Z"/>
        <path class="st26" d="M68.48,66.67c0,.22-.18.4-.4.4h-1.65c-.22,0-.4-.18-.4-.4h0c0-.22.18-.4.4-.4h1.65c.22,0,.4.18.4.4h0Z"/>
        <path class="st12" d="M70.62,69.3c0,.22-.18.4-.4.4h-1.65c-.22,0-.4-.18-.4-.4h0c0-.22.18-.4.4-.4h1.65c.22,0,.4.18.4.4h0Z"/>
        <path class="st26" d="M68.48,72.45c0,.22-.18.4-.4.4h-1.65c-.22,0-.4-.18-.4-.4h0c0-.22.18-.4.4-.4h1.65c.22,0,.4.18.4.4h0Z"/>
        <path class="st12" d="M70.62,75.07c0,.22-.18.4-.4.4h-1.65c-.22,0-.4-.18-.4-.4h0c0-.22.18-.4.4-.4h1.65c.22,0,.4.18.4.4h0Z"/>
        <path class="st26" d="M69.29,78.66c0,.19-.16.35-.35.35h-1.45c-.19,0-.35-.16-.35-.35h0c0-.19.16-.35.35-.35h1.45c.2,0,.35.16.35.35h0Z"/>
        <path class="st12" d="M69.56,80.98c0,.19-.16.35-.35.35h-1.45c-.19,0-.35-.16-.35-.35h0c0-.19.16-.35.35-.35h1.45c.19,0,.35.16.35.35h0Z"/>
        <path class="st26" d="M69.47,84.33c0,.16-.12.28-.28.28h-1.17c-.15,0-.28-.13-.28-.28h0c0-.15.13-.28.28-.28h1.17c.15,0,.28.13.28.28h0Z"/>
        <path class="st12" d="M70.98,86.19c0,.15-.13.28-.28.28h-1.17c-.15,0-.28-.13-.28-.28h0c0-.15.13-.28.28-.28h1.17c.15,0,.28.13.28.28h0Z"/>
        <path class="st26" d="M73.92,60.9c0,.22.18.4.4.4h1.65c.22,0,.4-.18.4-.4h0c0-.22-.18-.4-.4-.4h-1.65c-.22,0-.4.18-.4.4h0Z"/>
        <path class="st12" d="M71.78,63.52c0,.22.18.4.4.4h1.65c.22,0,.4-.18.4-.4h0c0-.22-.18-.4-.4-.4h-1.65c-.22,0-.4.18-.4.4h0Z"/>
        <path class="st26" d="M73.92,66.67c0,.22.18.4.4.4h1.65c.22,0,.4-.18.4-.4h0c0-.22-.18-.4-.4-.4h-1.65c-.22,0-.4.18-.4.4h0Z"/>
        <path class="st12" d="M71.78,69.3c0,.22.18.4.4.4h1.65c.22,0,.4-.18.4-.4h0c0-.22-.18-.4-.4-.4h-1.65c-.22,0-.4.18-.4.4h0Z"/>
        <path class="st26" d="M73.92,72.45c0,.22.18.4.4.4h1.65c.22,0,.4-.18.4-.4h0c0-.22-.18-.4-.4-.4h-1.65c-.22,0-.4.18-.4.4h0Z"/>
        <path class="st12" d="M71.78,75.07c0,.22.18.4.4.4h1.65c.22,0,.4-.18.4-.4h0c0-.22-.18-.4-.4-.4h-1.65c-.22,0-.4.18-.4.4h0Z"/>
        <path class="st26" d="M73.11,78.66c0,.19.16.35.35.35h1.45c.19,0,.35-.16.35-.35h0c0-.19-.16-.35-.35-.35h-1.45c-.19,0-.35.16-.35.35h0Z"/>
        <path class="st12" d="M72.7,80.98c0,.19.15.35.35.35h1.45c.19,0,.35-.16.35-.35h0c0-.19-.16-.35-.35-.35h-1.45c-.2,0-.35.16-.35.35h0Z"/>
        <path class="st26" d="M72.92,84.33c0,.16.13.28.28.28h1.16c.15,0,.28-.13.28-.28h0c0-.15-.13-.28-.28-.28h-1.16c-.15,0-.28.13-.28.28h0Z"/>
        <path class="st12" d="M71.41,86.19c0,.15.12.28.28.28h1.17c.15,0,.28-.13.28-.28h0c0-.15-.13-.28-.28-.28h-1.17c-.16,0-.28.13-.28.28h0Z"/>
        <path class="st18" d="M77.32,57.83c-1.25-1.64-3.52-2.4-6.12-2.4s-4.87.76-6.12,2.4c.36,1.42,2.96.98,6.12.98s5.76.44,6.12-.98Z"/>
        <path class="st12" d="M71.2,58.81c1.43,0,2.74.09,3.79.05-.56-2.36-2.04-3.44-3.79-3.44s-3.23,1.07-3.79,3.44c1.05.03,2.36-.05,3.79-.05Z"/>
        <path class="st19" d="M67.82,50.08c.35.49,3.96,6.41,3.47,6.76-.5.35-4.9-4.99-5.26-5.48-.35-.5-.24-1.18.26-1.53s1.18-.24,1.53.26Z"/>
        <path class="st23" d="M67.06,52.63c.37.28,4.29,3.81,4.01,4.17-.28.36-4.67-2.57-5.03-2.85-.36-.28-.43-.81-.15-1.18.28-.37.81-.43,1.18-.15Z"/>
        <path class="st31" d="M69.86,49.44c.19.58,1.94,7.28,1.37,7.48-.58.19-3.25-6.19-3.45-6.77-.19-.57.11-1.2.69-1.39.57-.19,1.2.12,1.39.69Z"/>
        <path class="st19" d="M74.57,50.08c-.35.49-3.96,6.41-3.47,6.76.5.35,4.9-4.99,5.26-5.48.35-.5.24-1.18-.26-1.53-.5-.35-1.19-.24-1.54.26Z"/>
        <path class="st23" d="M75.33,52.63c-.37.28-4.29,3.81-4,4.17.28.36,4.67-2.57,5.03-2.85.36-.28.43-.81.15-1.18-.28-.37-.81-.43-1.18-.15Z"/>
        <path class="st31" d="M72.54,49.44c-.19.58-1.94,7.28-1.37,7.48.58.19,3.25-6.19,3.45-6.77.2-.57-.11-1.2-.69-1.39-.57-.19-1.2.12-1.39.69Z"/>
        <path class="st23" d="M72.39,48.31c0,.66-.53,8.65-1.19,8.65s-1.19-7.99-1.19-8.65.53-1.19,1.19-1.19c.66,0,1.19.53,1.19,1.19Z"/>
        <g>
          <circle class="st31" cx="64.89" cy="51.44" r=".29"/>
          <circle class="st31" cx="76.75" cy="55.43" r=".29"/>
          <circle class="st31" cx="64.9" cy="52.46" r=".15"/>
          <circle class="st31" cx="76.7" cy="51.94" r=".15"/>
          <circle class="st31" cx="66.86" cy="48.09" r=".55"/>
        </g>
        <g>
          <circle class="st23" cx="66.39" cy="55.4" r=".28"/>
          <circle class="st23" cx="75.48" cy="48.63" r=".44"/>
        </g>
        <path class="st22" d="M79.04,74.01c-2.73,0-5.14,1.38-6.57,3.47-1.43-2.09-3.84-3.47-6.57-3.47-4.39,0-8.11,3.57-7.96,7.96.29,8.15,10.56,8.4,14.05,17.28.18.45.34.63.48.62.15.01.31-.17.48-.62,3.49-8.89,13.75-9.13,14.05-17.28.16-4.39-3.56-7.96-7.95-7.96Z"/>
        <path class="st6" d="M72.47,85.43c5.28,0,10.08.18,13.67-.07.5-.97.81-2.08.85-3.39.08-2.05-.7-3.91-1.99-5.32-.76-.22-1.57-.42-2.42-.59-.36-.04-.73-.06-1.1-.06-3.74,0-7.05,1.89-9.01,4.76-1.97-2.88-5.27-4.76-9.02-4.76-.37,0-.74.02-1.1.06-.85.18-1.65.37-2.41.59-1.29,1.41-2.07,3.27-1.99,5.32.05,1.32.36,2.42.85,3.39,3.58.25,8.39.07,13.67.07Z"/>
        <path class="st14" d="M72.47,80.88c6.9,0,12.68.41,14.24-1.26-.65-2.23-2.33-4.04-4.48-4.96-.73-.23-1.53-.44-2.38-.62-.26-.03-.53-.04-.81-.04-2.73,0-5.14,1.38-6.57,3.47-1.43-2.09-3.84-3.47-6.57-3.47-.27,0-.54.01-.81.04-.85.18-1.65.38-2.38.62-2.14.92-3.82,2.73-4.48,4.96,1.56,1.66,7.34,1.26,14.23,1.26Z"/>
        <g>
          <path class="st36" d="M70.2,77.36c0,1.26-1.78.05-3.98.05s-3.98,1.21-3.98-.05,1.78-2.27,3.98-2.27c2.2,0,3.98,1.02,3.98,2.27Z"/>
          <circle class="st36" cx="60.89" cy="78.17" r=".64"/>
          <circle class="st36" cx="59.94" cy="79.34" r=".21"/>
          <path class="st36" d="M83.08,77.36c0,1.26-1.78.05-3.98.05s-3.98,1.21-3.98-.05,1.78-2.27,3.98-2.27c2.2,0,3.98,1.02,3.98,2.27Z"/>
          <circle class="st36" cx="73.77" cy="78.17" r=".64"/>
          <circle class="st36" cx="72.82" cy="79.34" r=".21"/>
        </g>
        <path class="st30" d="M72.46,77.48s.8-9.2-4.24-11.38c-3.36-1.45-3.06,2.81-1.19,3.49,0,0-3.22-2.32-4.07-.23-.69,1.68,1.78,2.78,3.65,2.78,0,0-3.33-.54-3.32.85,0,1.03.85,1.36,3.91,1.02,3.06-.34,5.26,3.48,5.26,3.48Z"/>
        <path class="st3" d="M68.22,66.1c-1.14-.49-1.86-.33-2.24.14.07,1.09,2.66,2.23,4.19,4.89.94,1.64.91,4,1.44,5.16.55.65.86,1.19.86,1.19,0,0,.81-9.2-4.24-11.38Z"/>
        <path class="st30" d="M72.48,77.48s-.8-9.2,4.24-11.38c3.36-1.45,3.06,2.81,1.19,3.49,0,0,3.22-2.32,4.07-.23.69,1.68-1.78,2.78-3.64,2.78,0,0,3.32-.54,3.31.85,0,1.03-.85,1.36-3.91,1.02-3.06-.34-5.26,3.48-5.26,3.48Z"/>
        <path class="st3" d="M76.72,66.1c1.15-.49,1.87-.33,2.24.14-.07,1.09-2.66,2.23-4.19,4.89-.94,1.64-.91,4-1.44,5.16-.55.65-.85,1.19-.85,1.19,0,0-.8-9.2,4.24-11.38Z"/>
        <circle class="st30" cx="72.47" cy="66.22" r="1.16"/>
        <path class="st3" d="M73.63,66.22c0,.64-.52.15-1.16.15s-1.16.49-1.16-.15.52-1.16,1.16-1.16,1.16.52,1.16,1.16Z"/>
        <circle class="st30" cx="72.47" cy="68.62" r=".62"/>
        <path class="st3" d="M73.09,68.62c0,.34-.27.08-.62.08s-.62.26-.62-.08.28-.62.62-.62.62.28.62.62Z"/>
        <g>
          <path class="st32" d="M57.88,74.89h-.15l-2.04.55-2.05-.55h-.15s-.8.6-.6,1.21l.68-.19.53.91.3-.53.49.34.23-.42.52.52.02.09.03-.03.03.03.02-.09.52-.52.23.42.49-.34.3.53.53-.91.68.19c.19-.61-.6-1.21-.6-1.21Z"/>
          <path class="st32" d="M55.64,58.4s.76-3.82-.57-8.2c0,0,.19,3.17-.12,4.38-.3,1.21.15,1.44.27,2.08.11.64.42,1.74.42,1.74Z"/>
          <path class="st32" d="M55.95,58.8s-1.44-.95-1.48-4.39c-.04-3.44-.87-6.54-.87-6.54,0,0,1.1,2.27,1.32,3.86.23,1.59.3,4.35.3,4.35l.53,1.06.19,1.66Z"/>
          <path class="st32" d="M55.77,59.17s-1.02-2.66.34-5.84c1.36-3.17,3.29-3.46,3.29-3.46,0,0-2.84,1.31-2.95,5.56,0,0-.23,1.02-.34,1.87-.11.85-.34,1.87-.34,1.87Z"/>
        </g>
        <path class="st24" d="M51.24,75.43c1.84,0,3.47-.93,4.44-2.34.97,1.41,2.59,2.34,4.44,2.34,2.97,0,5.48-2.41,5.37-5.38-.2-5.51-7.13-5.67-9.49-11.67-.12-.31-.23-.43-.32-.42-.1-.01-.21.11-.33.42-2.35,6-9.29,6.17-9.49,11.67-.11,2.97,2.41,5.38,5.38,5.38Z"/>
        <path class="st11" d="M55.68,67.72c-3.57,0-6.81-.12-9.24.05-.33.66-.55,1.41-.58,2.29-.05,1.38.47,2.64,1.34,3.59.52.15,1.06.28,1.63.4.25.02.49.04.75.04,2.53,0,4.76-1.28,6.09-3.22,1.33,1.94,3.56,3.22,6.09,3.22.25,0,.5-.01.75-.04.57-.12,1.12-.25,1.63-.4.87-.95,1.39-2.21,1.34-3.59-.03-.89-.24-1.64-.58-2.29-2.42-.16-5.66-.05-9.23-.05Z"/>
        <g>
          <path class="st25" d="M55.68,70.79c-4.66,0-8.56-.27-9.62.85.44,1.51,1.57,2.73,3.03,3.35.49.16,1.03.3,1.61.42.18.02.36.03.54.03,1.84,0,3.47-.93,4.44-2.34.97,1.41,2.59,2.34,4.44,2.34.18,0,.36-.01.54-.03.57-.12,1.11-.26,1.6-.42,1.45-.62,2.59-1.84,3.03-3.35-1.05-1.12-4.96-.85-9.61-.85Z"/>
          <ellipse class="st25" cx="55.68" cy="73.81" rx="4.28" ry="2.16"/>
        </g>
        <ellipse class="st7" cx="36.71" cy="73.17" rx="12.13" ry="6.35"/>
        <path class="st26" d="M51.19,93.47c0,3.68-6.48,8.14-14.48,8.14s-14.48-4.46-14.48-8.14,6.48-6.66,14.48-6.66c8,0,14.48,2.98,14.48,6.66Z"/>
        <path class="st29" d="M27.39,84.25c0,8.04,5.6,14.57-1.64,14.57s-13.1-6.52-13.1-14.57,5.87-14.57,13.1-14.57c7.24,0,1.64,6.53,1.64,14.57Z"/>
        <path class="st34" d="M27.39,84.25c0,8.04,5.6,14.57-1.64,14.57s-13.1-6.52-13.1-14.57"/>
        <path class="st26" d="M17.87,84.25c0,6.93,4.36,12.72,10.2,14.2,3.46-1.48-.68-7.28-.68-14.2s4.14-12.72.68-14.2c-5.84,1.47-10.2,7.26-10.2,14.2Z"/>
        <path class="st29" d="M46.04,84.25c0-8.05-5.6-14.57,1.64-14.57s13.1,6.53,13.1,14.57-5.87,14.57-13.1,14.57-1.64-6.52-1.64-14.57Z"/>
        <path class="st34" d="M60.77,84.25c0,8.04-5.87,14.57-13.1,14.57s-1.64-6.52-1.64-14.57"/>
        <path class="st26" d="M55.55,84.25c0-6.94-4.36-12.73-10.2-14.2-3.46,1.48.68,7.27.68,14.2s-4.14,12.72-.68,14.2c5.84-1.47,10.2-7.26,10.2-14.2Z"/>
        <ellipse class="st29" cx="36.71" cy="84.5" rx="13.43" ry="15.4"/>
        <path class="st34" d="M23.28,84.5c0,8.5,6.01,15.4,13.43,15.4s13.43-6.9,13.43-15.4"/>
        <path class="st7" d="M34.37,68.44c-.22,0-.43-.08-.6-.25-3.04-3.04-3.04-7.99,0-11.03,2.5-2.5,6.57-2.5,9.07,0,2.06,2.07,2.06,5.43,0,7.49-1.72,1.72-4.52,1.72-6.23,0-1.44-1.44-1.44-3.79,0-5.23.33-.33.87-.33,1.2,0,.33.33.33.87,0,1.2-.78.78-.78,2.05,0,2.83,1.06,1.06,2.78,1.06,3.84,0,1.4-1.4,1.4-3.69,0-5.09-1.84-1.83-4.83-1.83-6.67,0-2.38,2.38-2.38,6.25,0,8.63.33.33.33.87,0,1.2-.17.17-.38.25-.6.25Z"/>
        <path class="st37" d="M66.03,82.36c-3.01,3-9.58,4.71-12.59,1.7-3-3-1.3-9.58,1.71-12.59,3-3,6.49-1.62,9.5,1.38,3,3,4.38,6.49,1.38,9.5Z"/>
        <path class="st27" d="M66.03,82.36c-3.01,3-9.58,4.71-12.59,1.7-3-3-1.3-9.58,1.71-12.59,3-3,5.86-.99,8.87,2.01,3.01,3.01,5.02,5.87,2.01,8.87Z"/>
        <g>
          <path class="st8" d="M66.03,82.36c-3.01,3-9.58,4.71-12.59,1.7-3-3-1.3-9.58,1.71-12.59,3-3,2.83,2.04,5.84,5.04,3.01,3,8.05,2.84,5.04,5.84Z"/>
          <path class="st8" d="M53.45,84.06c3.01,3.01,9.58,1.3,12.59-1.7,3-3,1.62-6.5-1.38-9.5"/>
        </g>
        <path class="st1" d="M60.99,76.52l-7.55,7.55c3.01,3.01,9.58,1.3,12.59-1.7,3-3-2.03-2.84-5.04-5.84Z"/>
        <circle class="st0" cx="59.58" cy="71.11" r=".34"/>
        <path class="st9" d="M59.82,71.36c-.13.14-.35.14-.48,0-.13-.13-.13-.35,0-.49.13-.13.24-.02.37.11.13.14.24.24.11.38Z"/>
        <circle class="st0" cx="60.95" cy="72.48" r=".34"/>
        <path class="st9" d="M61.19,72.72c-.13.14-.35.14-.48,0-.14-.13-.14-.35,0-.49.13-.13.24-.02.38.11.13.13.24.24.11.37Z"/>
        <circle class="st0" cx="62.31" cy="73.84" r=".34"/>
        <path class="st9" d="M62.55,74.08c-.13.13-.35.13-.48,0-.13-.13-.13-.35,0-.49.13-.13.24-.02.38.11.13.13.24.24.11.37Z"/>
        <circle class="st0" cx="63.67" cy="75.2" r=".34"/>
        <path class="st9" d="M63.91,75.44c-.13.13-.35.13-.48,0-.14-.13-.13-.35,0-.48s.24-.03.37.11c.14.14.24.24.11.38Z"/>
        <circle class="st0" cx="65.03" cy="76.56" r=".34"/>
        <path class="st9" d="M65.28,76.81c-.14.13-.35.13-.49,0-.13-.13-.13-.35,0-.49.14-.13.24-.02.38.11.13.13.24.24.11.38Z"/>
        <circle class="st0" cx="66.41" cy="77.92" r=".34"/>
        <path class="st9" d="M66.64,78.17c-.13.13-.35.13-.48,0-.13-.13-.13-.35,0-.48.13-.13.24-.03.38.11.13.13.24.24.11.38Z"/>
        <circle class="st0" cx="58.21" cy="72.49" r=".34"/>
        <path class="st9" d="M58.46,72.73c-.14.14-.35.14-.49,0-.13-.13-.13-.35,0-.49.13-.13.24-.02.37.11.13.13.24.24.11.38Z"/>
        <circle class="st0" cx="59.58" cy="73.85" r=".34"/>
        <path class="st9" d="M59.82,74.09c-.13.14-.35.14-.48,0-.13-.13-.13-.35,0-.49.13-.13.24-.02.38.11.13.14.24.24.11.38Z"/>
        <circle class="st0" cx="60.94" cy="75.21" r=".34"/>
        <path class="st9" d="M61.18,75.45c-.13.13-.35.13-.49,0-.13-.13-.13-.35,0-.49.13-.13.24-.02.38.11.13.13.24.24.11.38Z"/>
        <circle class="st0" cx="62.3" cy="76.57" r=".34"/>
        <path class="st9" d="M62.54,76.82c-.14.13-.35.13-.48,0-.13-.13-.13-.35,0-.49.13-.13.24-.03.38.11.13.13.24.24.11.38Z"/>
        <circle class="st0" cx="63.66" cy="77.94" r=".34"/>
        <path class="st9" d="M63.91,78.18c-.14.13-.35.13-.48,0-.14-.13-.14-.35,0-.48.13-.13.24-.02.37.11.14.13.24.24.11.38Z"/>
        <circle class="st0" cx="65.03" cy="79.3" r=".34"/>
        <path class="st9" d="M65.27,79.54c-.14.13-.35.13-.49,0-.13-.13-.13-.35,0-.49.13-.13.24-.03.38.11.13.13.24.24.11.38Z"/>
        <circle class="st0" cx="56.27" cy="73.07" r=".34"/>
        <path class="st9" d="M56.51,73.31c-.13.13-.35.13-.48,0-.13-.13-.13-.35,0-.49.13-.13.24-.02.38.11.13.13.24.24.11.38Z"/>
        <circle class="st0" cx="57.64" cy="74.43" r=".34"/>
        <path class="st9" d="M57.87,74.67c-.13.13-.35.13-.48,0-.13-.13-.14-.35,0-.49.13-.13.24-.02.38.11.13.13.24.24.11.37Z"/>
        <circle class="st0" cx="59" cy="75.79" r=".34"/>
        <path class="st9" d="M59.24,76.03c-.13.13-.35.14-.48,0-.13-.13-.13-.35,0-.49.13-.13.24-.02.38.11.13.13.24.24.11.37Z"/>
        <circle class="st0" cx="60.36" cy="77.15" r=".34"/>
        <path class="st9" d="M60.6,77.4c-.14.13-.35.13-.49,0-.14-.13-.14-.35,0-.48.13-.13.24-.03.37.11.14.13.24.24.11.38Z"/>
        <circle class="st0" cx="61.71" cy="78.52" r=".34"/>
        <path class="st9" d="M61.96,78.76c-.13.13-.35.13-.49,0-.13-.13-.13-.35,0-.48.13-.13.24-.03.38.11.13.13.24.24.11.38Z"/>
        <circle class="st0" cx="63.07" cy="79.88" r=".34"/>
        <path class="st9" d="M63.32,80.12c-.13.14-.35.14-.48,0-.13-.14-.13-.35,0-.49.14-.13.24-.02.38.11.13.13.24.24.11.37Z"/>
        <circle class="st0" cx="64.45" cy="81.24" r=".34"/>
        <path class="st9" d="M64.69,81.49c-.14.13-.35.13-.49,0-.13-.13-.13-.35,0-.49.13-.13.24-.02.37.11.14.13.24.24.11.38Z"/>
        <circle class="st0" cx="55.52" cy="75.18" r=".34"/>
        <path class="st9" d="M55.76,75.42c-.13.13-.35.13-.49,0-.13-.13-.13-.35,0-.48.14-.13.24-.02.38.11.13.13.24.24.11.38Z"/>
        <path class="st0" d="M57.13,76.78c-.13.13-.35.13-.48,0-.14-.13-.14-.35,0-.49.13-.13.35-.13.48,0,.13.14.13.35,0,.49Z"/>
        <path class="st9" d="M57.13,76.78c-.13.13-.35.13-.48,0-.14-.13-.14-.35,0-.49.13-.13.24-.02.37.11.13.14.24.24.11.38Z"/>
        <path class="st0" d="M58.49,78.14c-.13.13-.35.13-.48,0-.14-.13-.14-.35,0-.49.13-.13.35-.13.48,0,.14.13.14.35,0,.49Z"/>
        <path class="st9" d="M58.49,78.14c-.13.13-.35.13-.48,0-.14-.13-.14-.35,0-.49.13-.13.24-.02.38.11.13.13.24.24.1.38Z"/>
        <circle class="st0" cx="59.61" cy="79.27" r=".34"/>
        <path class="st9" d="M59.85,79.51c-.13.13-.35.13-.49,0-.13-.13-.13-.35,0-.48.13-.13.24-.03.38.11.13.13.24.24.11.37Z"/>
        <path class="st0" d="M61.21,80.87c-.13.13-.35.13-.48,0-.13-.13-.14-.35,0-.48.14-.13.35-.13.48,0,.13.13.14.35,0,.48Z"/>
        <path class="st9" d="M61.21,80.87c-.13.13-.35.13-.48,0-.13-.13-.14-.35,0-.48.14-.13.24-.02.38.11.13.13.24.24.11.38Z"/>
        <circle class="st0" cx="62.33" cy="81.99" r=".34"/>
        <path class="st9" d="M62.58,82.23c-.13.13-.35.13-.48,0-.13-.13-.13-.35,0-.48.14-.13.24-.03.38.11s.24.24.11.38Z"/>
        <circle class="st0" cx="54.26" cy="76.45" r=".34"/>
        <path class="st9" d="M54.5,76.68c-.13.13-.35.13-.49,0-.13-.13-.13-.35,0-.48.14-.13.24-.03.38.11.13.14.24.24.11.38Z"/>
        <circle class="st0" cx="55.62" cy="77.81" r=".34"/>
        <path class="st9" d="M55.86,78.04c-.13.13-.35.14-.48,0-.14-.13-.14-.35,0-.49.13-.13.24-.02.37.11.14.13.24.24.11.38Z"/>
        <circle class="st0" cx="56.98" cy="79.17" r=".34"/>
        <path class="st9" d="M57.23,79.41c-.13.13-.35.13-.48,0-.13-.13-.13-.35,0-.48.13-.13.24-.02.38.11.13.14.24.24.11.38Z"/>
        <circle class="st0" cx="58.35" cy="80.53" r=".34"/>
        <path class="st9" d="M58.59,80.77c-.13.13-.35.13-.49,0-.13-.13-.13-.35,0-.48.13-.13.24-.02.38.11.13.13.24.24.11.37Z"/>
        <circle class="st0" cx="59.71" cy="81.89" r=".34"/>
        <path class="st9" d="M59.95,82.13c-.13.13-.35.13-.48,0-.13-.13-.13-.35,0-.49.14-.13.24-.03.38.11.13.13.25.24.11.38Z"/>
        <path class="st0" d="M61.31,83.49c-.13.13-.34.13-.48,0-.13-.13-.13-.35,0-.48.13-.13.35-.13.48,0,.14.13.14.35,0,.48Z"/>
        <path class="st9" d="M61.31,83.49c-.13.13-.34.13-.48,0-.13-.13-.13-.35,0-.48.13-.13.24-.03.37.11.14.13.24.24.11.38Z"/>
        <circle class="st0" cx="53.57" cy="78.49" r=".34"/>
        <path class="st9" d="M53.81,78.73c-.13.13-.35.13-.48,0-.14-.13-.14-.35,0-.49.13-.13.24-.02.38.11.13.14.24.24.11.38Z"/>
        <circle class="st0" cx="54.93" cy="79.86" r=".34"/>
        <path class="st9" d="M55.17,80.1c-.13.14-.35.14-.49,0-.13-.13-.13-.35,0-.48.13-.13.24-.03.38.11.13.13.24.24.11.37Z"/>
        <circle class="st0" cx="56.29" cy="81.22" r=".34"/>
        <path class="st9" d="M56.54,81.46c-.13.13-.35.13-.48,0-.13-.13-.13-.35,0-.49s.24-.02.38.11c.13.13.24.24.11.38Z"/>
        <path class="st0" d="M57.9,82.82c-.13.14-.35.13-.49,0-.13-.13-.13-.35,0-.48.13-.13.35-.13.49,0,.13.13.13.35,0,.48Z"/>
        <path class="st9" d="M57.9,82.82c-.13.14-.35.13-.49,0-.13-.13-.13-.35,0-.48.13-.13.24-.02.38.11.13.13.24.24.11.38Z"/>
        <circle class="st0" cx="59.03" cy="83.94" r=".34"/>
        <path class="st9" d="M59.26,84.18c-.13.13-.35.13-.48,0-.13-.13-.13-.35,0-.48.14-.13.24-.03.38.11.13.13.24.24.11.38Z"/>
        <circle class="st0" cx="52.99" cy="80.43" r=".34"/>
        <path class="st9" d="M53.23,80.68c-.13.13-.35.13-.48,0-.14-.13-.13-.35,0-.49.14-.13.24-.02.38.11.13.13.24.24.11.37Z"/>
        <circle class="st0" cx="54.35" cy="81.8" r=".34"/>
        <path class="st9" d="M54.59,82.04c-.14.14-.35.14-.49,0-.13-.13-.13-.35,0-.49.13-.13.24-.02.38.11.13.13.24.24.11.37Z"/>
        <circle class="st0" cx="55.71" cy="83.16" r=".34"/>
        <path class="st9" d="M55.96,83.4c-.13.14-.35.14-.48,0-.13-.13-.13-.35,0-.48.14-.13.24-.03.38.11.13.13.24.24.11.38Z"/>
        <circle class="st0" cx="57.08" cy="84.52" r=".34"/>
        <path class="st9" d="M57.32,84.77c-.13.13-.35.13-.49,0-.13-.13-.13-.35,0-.49.13-.13.24-.02.38.11.13.13.24.24.11.38Z"/>
        <path class="st33" d="M68.15,73.07s.65-.52.11-1.18c-.54-.66-2,.17-2,.17,0,0,.73-.73.66-1.29,0-.06-.03-.1-.06-.12-.02-.03-.06-.06-.12-.06-.57-.07-1.29.66-1.29.66,0,0,.83-1.46.17-2.01-.65-.54-1.18.11-1.18.11.33-.9-1.03-3.32-2.08-1.08-.91,1.95,1.02,4.55,1.54,5.19,0,0-.01.02-.01.02,0,0,.03.02.07.06.04.05.07.07.07.07,0,0,0,0,.01-.01.65.52,3.24,2.45,5.2,1.54,2.25-1.05-.17-2.41-1.07-2.08Z"/>
        <path class="st2" d="M63.17,67.38c-.03.06-.06.12-.09.19-.91,1.95,1.02,4.55,1.54,5.19v.02s.02.02.06.06c.04.05.06.07.06.07,0,0,0,0,.02-.01.64.52,3.24,2.45,5.19,1.54.07-.03.13-.06.19-.1.23-.81-1.31-1.52-1.98-1.27,0,0,.65-.52.11-1.18-.54-.66-2,.17-2,.17,0,0,.73-.73.66-1.29,0-.06-.03-.1-.06-.12-.02-.03-.06-.06-.12-.06-.57-.07-1.29.66-1.29.66,0,0,.83-1.46.17-2.01-.65-.54-1.18.11-1.18.11.25-.68-.46-2.21-1.27-1.98Z"/>
        <path class="st21" d="M86.66,94.98c0,1.81-1.47,3.29-3.29,3.29H14.29c-1.82,0-3.29-1.47-3.29-3.29v-6.2c0-1.82,1.47-3.29,3.29-3.29h69.09c1.81,0,3.29,1.47,3.29,3.29v6.2Z"/>
        <path class="st4" d="M83.38,85.49H14.29c-1.82,0-3.29,1.47-3.29,3.29v3.6c0,1.82,1.47,3.28,3.29,3.28h69.09c1.81,0,3.29-1.47,3.29-3.28v-3.6c0-1.82-1.47-3.29-3.29-3.29Z"/>
        <g>
          <circle class="st21" cx="16.36" cy="91.87" r="1.44"/>
          <circle class="st21" cx="82.07" cy="91.87" r="1.44"/>
          <path class="st21" d="M86.66,107.85c0,1.81-1.47,3.28-3.29,3.28H14.29c-1.82,0-3.29-1.47-3.29-3.28v-6.21c0-1.81,1.47-3.28,3.29-3.28h69.09c1.81,0,3.29,1.47,3.29,3.28v6.21Z"/>
        </g>
        <path class="st4" d="M83.38,98.36H14.29c-1.82,0-3.29,1.47-3.29,3.28v3.6c0,1.81,1.47,3.29,3.29,3.29h69.09c1.81,0,3.29-1.47,3.29-3.29v-3.6c0-1.81-1.47-3.28-3.29-3.28Z"/>
        <g>
          <circle class="st21" cx="16.36" cy="104.74" r="1.44"/>
          <circle class="st21" cx="82.07" cy="104.74" r="1.44"/>
          <path class="st21" d="M86.66,120.72c0,1.82-1.47,3.29-3.29,3.29H14.29c-1.82,0-3.29-1.47-3.29-3.29v-6.2c0-1.82,1.47-3.29,3.29-3.29h69.09c1.81,0,3.29,1.47,3.29,3.29v6.2Z"/>
        </g>
        <path class="st4" d="M83.38,111.23H14.29c-1.82,0-3.29,1.47-3.29,3.29v3.6c0,1.82,1.47,3.29,3.29,3.29h69.09c1.81,0,3.29-1.47,3.29-3.29v-3.6c0-1.82-1.47-3.29-3.29-3.29Z"/>
        <g>
          <circle class="st21" cx="16.36" cy="117.62" r="1.44"/>
          <circle class="st21" cx="82.07" cy="117.62" r="1.44"/>
          <path class="st21" d="M86.66,133.58c0,1.82-1.47,3.29-3.29,3.29H14.29c-1.82,0-3.29-1.47-3.29-3.29v-6.21c0-1.81,1.47-3.28,3.29-3.28h69.09c1.81,0,3.29,1.47,3.29,3.28v6.21Z"/>
        </g>
        <path class="st4" d="M83.38,124.1H14.29c-1.82,0-3.29,1.47-3.29,3.28v3.61c0,1.82,1.47,3.28,3.29,3.28h69.09c1.81,0,3.29-1.47,3.29-3.28v-3.61c0-1.81-1.47-3.28-3.29-3.28Z"/>
        <g>
          <circle class="st21" cx="16.36" cy="130.48" r="1.44"/>
          <circle class="st21" cx="82.07" cy="130.48" r="1.44"/>
        </g>
        <path class="st5" d="M28.04,83.49c1.75,0,3.17,1.42,3.17,3.17v49.03c0,1.76-1.42,3.18-3.17,3.18h-6c-1.75,0-3.17-1.42-3.17-3.18v-49.03c0-1.75,1.42-3.17,3.17-3.17h6Z"/>
        <path class="st28" d="M18.87,86.66v49.03c0,1.76,1.42,3.18,3.17,3.18h3.48c1.76,0,3.18-1.42,3.18-3.18v-49.03c0-1.75-1.42-3.17-3.18-3.17h-3.48c-1.76,0-3.17,1.42-3.17,3.17Z"/>
        <g>
          <circle class="st21" cx="25.05" cy="130.92" r="1.39"/>
          <circle class="st21" cx="25.05" cy="92.21" r="1.39"/>
        </g>
        <path class="st5" d="M67.56,83.49c-1.75,0-3.17,1.42-3.17,3.17v49.03c0,1.76,1.42,3.18,3.17,3.18h6c1.75,0,3.17-1.42,3.17-3.18v-49.03c0-1.75-1.42-3.17-3.17-3.17h-6Z"/>
        <path class="st28" d="M76.73,86.66v49.03c0,1.76-1.42,3.18-3.17,3.18h-3.49c-1.75,0-3.17-1.42-3.17-3.18v-49.03c0-1.75,1.42-3.17,3.17-3.17h3.49c1.75,0,3.17,1.42,3.17,3.17Z"/>
        <g>
          <circle class="st21" cx="70.56" cy="130.92" r="1.39"/>
          <circle class="st21" cx="70.56" cy="92.21" r="1.39"/>
        </g>
      </g>
    </g>
  </g>
  <text class="st15" transform="translate(23.5 27.43)"><tspan x="0" y="0">Y</tspan></text>
  <text class="st15" transform="translate(34.41 27.43) scale(.7)"><tspan x="0" y="0">EAR</tspan></text>
  <text class="st15" transform="translate(56.9 27.43)"><tspan x="0" y="0"> </tspan></text>
  <text class="st16" transform="translate(60.4 27.43) scale(.7)"><tspan x="0" y="0">OF</tspan></text>
  <text class="st15" transform="translate(26.4 39.43)"><tspan x="0" y="0">P</tspan></text>
  <text class="st15" transform="translate(35.98 39.43) scale(.7)"><tspan x="0" y="0">LENTY</tspan></text>
  <path class="st10" d="M83.2,11.2c1.98,0,3.6,1.62,3.6,3.6v104.4c0,1.98-1.62,3.6-3.6,3.6H14.8c-1.98,0-3.6-1.62-3.6-3.6V14.8c0-1.98,1.62-3.6,3.6-3.6h68.4M83.2,4H14.8c-5.98,0-10.8,4.82-10.8,10.8v104.4c0,5.98,4.82,10.8,10.8,10.8h68.4c5.98,0,10.8-4.82,10.8-10.8V14.8c0-5.98-4.82-10.8-10.8-10.8h0Z"/>
</svg>