<?xml version="1.0" encoding="UTF-8"?>
<svg id="Year_of_Plenty" xmlns="http://www.w3.org/2000/svg" version="1.1" xmlns:xlink="http://www.w3.org/1999/xlink" viewBox="0 0 98 134">
  <!-- Generator: Adobe Illustrator 29.8.1, SVG Export Plug-In . SVG Version: 2.1.1 Build 2)  -->
  <defs>
    <style>
      .st0 {
        fill: #a0104b;
      }

      .st1 {
        fill: #aa0539;
      }

      .st2 {
        fill: #49a010;
      }

      .st3 {
        fill: #3d9955;
      }

      .st4 {
        fill: #c69d6b;
      }

      .st5 {
        fill: #cc9d6e;
      }

      .st6 {
        fill: #91bca2;
      }

      .st7 {
        fill: #76a32f;
      }

      .st8 {
        fill: #c10c3c;
      }

      .st9 {
        fill: #8e0939;
      }

      .st10 {
        fill: #fff;
      }

      .st11 {
        fill: #c63c74;
      }

      .st12 {
        fill: #ff860d;
      }

      .st13, .st14 {
        fill: none;
      }

      .st15 {
        fill: #e5e5e5;
      }

      .st16 {
        fill: #a7c6b6;
      }

      .st17 {
        fill: #accfea;
      }

      .st18 {
        fill: #ffaf10;
      }

      .st19 {
        fill: #68ad27;
      }

      .st14 {
        stroke: #000;
        stroke-miterlimit: 10;
        stroke-width: 2px;
      }

      .st20 {
        isolation: isolate;
      }

      .st21 {
        fill: #af8d5f;
      }

      .st22 {
        fill: #7fad8f;
      }

      .st23 {
        fill: #5c8729;
      }

      .st24 {
        fill: #d84a81;
      }

      .st25 {
        fill: #a82d65;
      }

      .st26 {
        fill: #e56107;
      }

      .st27 {
        fill: #e0103d;
      }

      .st28 {
        fill: #e2b481;
      }

      .st29 {
        fill: #ff8c1a;
      }

      .st30 {
        fill: #2f7745;
      }

      .st31 {
        fill: #7fcc2e;
      }

      .st32 {
        fill: #43a52f;
      }

      .st33 {
        fill: #3a8708;
      }

      .st34 {
        fill: #ff7415;
      }

      .st35 {
        clip-path: url(#clippath);
      }

      .st36 {
        fill: #bfd8cc;
      }

      .st37 {
        fill: #f41650;
      }
    </style>
    <clipPath id="clippath">
      <rect class="st13" x="11" y="9" width="76" height="114"/>
    </clipPath>
  </defs>
  <path class="st14" d="M83.2,4H14.8c-5.98,0-10.8,4.82-10.8,10.8v104.4c0,5.98,4.82,10.8,10.8,10.8h68.4c5.98,0,10.8-4.82,10.8-10.8V14.8c0-5.98-4.82-10.8-10.8-10.8h0Z"/>
  <rect class="st15" x="7.6" y="7.6" width="82.8" height="118.8" rx="2" ry="2"/>
  <g>
    <rect class="st17" x="11" y="9" width="76" height="114"/>
    <g class="st35">
      <g>
        <path class="st12" d="M78.35,61.11c0,3.95-3.2,31.53-7.15,31.53s-7.15-27.58-7.15-31.53,3.2-5.68,7.15-5.68,7.15,1.73,7.15,5.68Z"/>
        <g>
          <path class="st26" d="M75.23,61.11c0,3.95-1.8,31.53-4.03,31.53s-4.04-27.58-4.04-31.53,1.81-5.68,4.04-5.68,4.03,1.73,4.03,5.68Z"/>
          <path class="st26" d="M68.48,60.9c0,.22-.18.4-.4.4h-1.65c-.22,0-.4-.18-.4-.4h0c0-.22.18-.4.4-.4h1.65c.22,0,.4.18.4.4h0Z"/>
        </g>
        <path class="st12" d="M70.62,63.52c0,.22-.18.4-.4.4h-1.65c-.22,0-.4-.18-.4-.4h0c0-.22.18-.4.4-.4h1.65c.22,0,.4.18.4.4h0Z"/>
        <path class="st26" d="M68.48,66.67c0,.22-.18.4-.4.4h-1.65c-.22,0-.4-.18-.4-.4h0c0-.22.18-.4.4-.4h1.65c.22,0,.4.18.4.4h0Z"/>
        <path class="st12" d="M70.62,69.3c0,.22-.18.4-.4.4h-1.65c-.22,0-.4-.18-.4-.4h0c0-.22.18-.4.4-.4h1.65c.22,0,.4.18.4.4h0Z"/>
        <path class="st26" d="M68.48,72.45c0,.22-.18.4-.4.4h-1.65c-.22,0-.4-.18-.4-.4h0c0-.22.18-.4.4-.4h1.65c.22,0,.4.18.4.4h0Z"/>
        <path class="st12" d="M70.62,75.07c0,.22-.18.4-.4.4h-1.65c-.22,0-.4-.18-.4-.4h0c0-.22.18-.4.4-.4h1.65c.22,0,.4.18.4.4h0Z"/>
        <path class="st26" d="M69.29,78.66c0,.19-.16.35-.35.35h-1.45c-.19,0-.35-.16-.35-.35h0c0-.19.16-.35.35-.35h1.45c.2,0,.35.16.35.35h0Z"/>
        <path class="st12" d="M69.56,80.98c0,.19-.16.35-.35.35h-1.45c-.19,0-.35-.16-.35-.35h0c0-.19.16-.35.35-.35h1.45c.19,0,.35.16.35.35h0Z"/>
        <path class="st26" d="M69.47,84.33c0,.16-.12.28-.28.28h-1.17c-.15,0-.28-.13-.28-.28h0c0-.15.13-.28.28-.28h1.17c.15,0,.28.13.28.28h0Z"/>
        <path class="st12" d="M70.98,86.19c0,.15-.13.28-.28.28h-1.17c-.15,0-.28-.13-.28-.28h0c0-.15.13-.28.28-.28h1.17c.15,0,.28.13.28.28h0Z"/>
        <path class="st26" d="M73.92,60.9c0,.22.18.4.4.4h1.65c.22,0,.4-.18.4-.4h0c0-.22-.18-.4-.4-.4h-1.65c-.22,0-.4.18-.4.4h0Z"/>
        <path class="st12" d="M71.78,63.52c0,.22.18.4.4.4h1.65c.22,0,.4-.18.4-.4h0c0-.22-.18-.4-.4-.4h-1.65c-.22,0-.4.18-.4.4h0Z"/>
        <path class="st26" d="M73.92,66.67c0,.22.18.4.4.4h1.65c.22,0,.4-.18.4-.4h0c0-.22-.18-.4-.4-.4h-1.65c-.22,0-.4.18-.4.4h0Z"/>
        <path class="st12" d="M71.78,69.3c0,.22.18.4.4.4h1.65c.22,0,.4-.18.4-.4h0c0-.22-.18-.4-.4-.4h-1.65c-.22,0-.4.18-.4.4h0Z"/>
        <path class="st26" d="M73.92,72.45c0,.22.18.4.4.4h1.65c.22,0,.4-.18.4-.4h0c0-.22-.18-.4-.4-.4h-1.65c-.22,0-.4.18-.4.4h0Z"/>
        <path class="st12" d="M71.78,75.07c0,.22.18.4.4.4h1.65c.22,0,.4-.18.4-.4h0c0-.22-.18-.4-.4-.4h-1.65c-.22,0-.4.18-.4.4h0Z"/>
        <path class="st26" d="M73.11,78.66c0,.19.16.35.35.35h1.45c.19,0,.35-.16.35-.35h0c0-.19-.16-.35-.35-.35h-1.45c-.19,0-.35.16-.35.35h0Z"/>
        <path class="st12" d="M72.7,80.98c0,.19.15.35.35.35h1.45c.19,0,.35-.16.35-.35h0c0-.19-.16-.35-.35-.35h-1.45c-.2,0-.35.16-.35.35h0Z"/>
        <path class="st26" d="M72.92,84.33c0,.16.13.28.28.28h1.16c.15,0,.28-.13.28-.28h0c0-.15-.13-.28-.28-.28h-1.16c-.15,0-.28.13-.28.28h0Z"/>
        <path class="st12" d="M71.41,86.19c0,.15.12.28.28.28h1.17c.15,0,.28-.13.28-.28h0c0-.15-.13-.28-.28-.28h-1.17c-.16,0-.28.13-.28.28h0Z"/>
        <path class="st18" d="M77.32,57.83c-1.25-1.64-3.52-2.4-6.12-2.4s-4.87.76-6.12,2.4c.36,1.42,2.96.98,6.12.98s5.76.44,6.12-.98Z"/>
        <path class="st12" d="M71.2,58.81c1.43,0,2.74.09,3.79.05-.56-2.36-2.04-3.44-3.79-3.44s-3.23,1.07-3.79,3.44c1.05.03,2.36-.05,3.79-.05Z"/>
        <path class="st19" d="M67.82,50.08c.35.49,3.96,6.41,3.47,6.76-.5.35-4.9-4.99-5.26-5.48-.35-.5-.24-1.18.26-1.53s1.18-.24,1.53.26h0Z"/>
        <path class="st23" d="M67.06,52.63c.37.28,4.29,3.81,4.01,4.17s-4.67-2.57-5.03-2.85-.43-.81-.15-1.18.81-.43,1.18-.15h-.01Z"/>
        <path class="st31" d="M69.86,49.44c.19.58,1.94,7.28,1.37,7.48-.58.19-3.25-6.19-3.45-6.77-.19-.57.11-1.2.69-1.39.57-.19,1.2.12,1.39.69h0Z"/>
        <path class="st19" d="M74.57,50.08c-.35.49-3.96,6.41-3.47,6.76.5.35,4.9-4.99,5.26-5.48.35-.5.24-1.18-.26-1.53s-1.19-.24-1.54.26h.01Z"/>
        <path class="st23" d="M75.33,52.63c-.37.28-4.29,3.81-4,4.17.28.36,4.67-2.57,5.03-2.85s.43-.81.15-1.18-.81-.43-1.18-.15h0Z"/>
        <path class="st31" d="M72.54,49.44c-.19.58-1.94,7.28-1.37,7.48.58.19,3.25-6.19,3.45-6.77.2-.57-.11-1.2-.69-1.39-.57-.19-1.2.12-1.39.69h0Z"/>
        <path class="st23" d="M72.39,48.31c0,.66-.53,8.65-1.19,8.65s-1.19-7.99-1.19-8.65.53-1.19,1.19-1.19,1.19.53,1.19,1.19Z"/>
        <g>
          <circle class="st31" cx="64.89" cy="51.44" r=".29"/>
          <circle class="st31" cx="76.75" cy="55.43" r=".29"/>
          <circle class="st31" cx="64.9" cy="52.46" r=".15"/>
          <circle class="st31" cx="76.7" cy="51.94" r=".15"/>
          <circle class="st31" cx="66.86" cy="48.09" r=".55"/>
        </g>
        <g>
          <circle class="st23" cx="66.39" cy="55.4" r=".28"/>
          <circle class="st23" cx="75.48" cy="48.63" r=".44"/>
        </g>
        <path class="st22" d="M79.04,74.01c-2.73,0-5.14,1.38-6.57,3.47-1.43-2.09-3.84-3.47-6.57-3.47-4.39,0-8.11,3.57-7.96,7.96.29,8.15,10.56,8.4,14.05,17.28.18.45.34.63.48.62.15.01.31-.17.48-.62,3.49-8.89,13.75-9.13,14.05-17.28.16-4.39-3.56-7.96-7.95-7.96h-.01Z"/>
        <path class="st6" d="M72.47,85.43c5.28,0,10.08.18,13.67-.07.5-.97.81-2.08.85-3.39.08-2.05-.7-3.91-1.99-5.32-.76-.22-1.57-.42-2.42-.59-.36-.04-.73-.06-1.1-.06-3.74,0-7.05,1.89-9.01,4.76-1.97-2.88-5.27-4.76-9.02-4.76-.37,0-.74.02-1.1.06-.85.18-1.65.37-2.41.59-1.29,1.41-2.07,3.27-1.99,5.32.05,1.32.36,2.42.85,3.39,3.58.25,8.39.07,13.67.07Z"/>
        <path class="st16" d="M72.47,80.88c6.9,0,12.68.41,14.24-1.26-.65-2.23-2.33-4.04-4.48-4.96-.73-.23-1.53-.44-2.38-.62-.26-.03-.53-.04-.81-.04-2.73,0-5.14,1.38-6.57,3.47-1.43-2.09-3.84-3.47-6.57-3.47-.27,0-.54.01-.81.04-.85.18-1.65.38-2.38.62-2.14.92-3.82,2.73-4.48,4.96,1.56,1.66,7.34,1.26,14.23,1.26h0Z"/>
        <g>
          <path class="st36" d="M70.2,77.36c0,1.26-1.78.05-3.98.05s-3.98,1.21-3.98-.05,1.78-2.27,3.98-2.27,3.98,1.02,3.98,2.27Z"/>
          <circle class="st36" cx="60.89" cy="78.17" r=".64"/>
          <circle class="st36" cx="59.94" cy="79.34" r=".21"/>
          <path class="st36" d="M83.08,77.36c0,1.26-1.78.05-3.98.05s-3.98,1.21-3.98-.05,1.78-2.27,3.98-2.27,3.98,1.02,3.98,2.27Z"/>
          <circle class="st36" cx="73.77" cy="78.17" r=".64"/>
          <circle class="st36" cx="72.82" cy="79.34" r=".21"/>
        </g>
        <path class="st30" d="M72.46,77.48s.8-9.2-4.24-11.38c-3.36-1.45-3.06,2.81-1.19,3.49,0,0-3.22-2.32-4.07-.23-.69,1.68,1.78,2.78,3.65,2.78,0,0-3.33-.54-3.32.85,0,1.03.85,1.36,3.91,1.02,3.06-.34,5.26,3.48,5.26,3.48h0Z"/>
        <path class="st3" d="M68.22,66.1c-1.14-.49-1.86-.33-2.24.14.07,1.09,2.66,2.23,4.19,4.89.94,1.64.91,4,1.44,5.16.55.65.86,1.19.86,1.19,0,0,.81-9.2-4.24-11.38h-.01Z"/>
        <path class="st30" d="M72.48,77.48s-.8-9.2,4.24-11.38c3.36-1.45,3.06,2.81,1.19,3.49,0,0,3.22-2.32,4.07-.23.69,1.68-1.78,2.78-3.64,2.78,0,0,3.32-.54,3.31.85,0,1.03-.85,1.36-3.91,1.02-3.06-.34-5.26,3.48-5.26,3.48h0Z"/>
        <path class="st3" d="M76.72,66.1c1.15-.49,1.87-.33,2.24.14-.07,1.09-2.66,2.23-4.19,4.89-.94,1.64-.91,4-1.44,5.16-.55.65-.85,1.19-.85,1.19,0,0-.8-9.2,4.24-11.38Z"/>
        <circle class="st30" cx="72.47" cy="66.22" r="1.16"/>
        <path class="st3" d="M73.63,66.22c0,.64-.52.15-1.16.15s-1.16.49-1.16-.15.52-1.16,1.16-1.16,1.16.52,1.16,1.16Z"/>
        <circle class="st30" cx="72.47" cy="68.62" r=".62"/>
        <path class="st3" d="M73.09,68.62c0,.34-.27.08-.62.08s-.62.26-.62-.08.28-.62.62-.62.62.28.62.62Z"/>
        <g>
          <path class="st32" d="M57.88,74.89h-.15l-2.04.55-2.05-.55h-.15s-.8.6-.6,1.21l.68-.19.53.91.3-.53.49.34.23-.42.52.52.02.09.03-.03.03.03.02-.09.52-.52.23.42.49-.34.3.53.53-.91.68.19c.19-.61-.6-1.21-.6-1.21h0Z"/>
          <path class="st32" d="M55.64,58.4s.76-3.82-.57-8.2c0,0,.19,3.17-.12,4.38-.3,1.21.15,1.44.27,2.08.11.64.42,1.74.42,1.74Z"/>
          <path class="st32" d="M55.95,58.8s-1.44-.95-1.48-4.39-.87-6.54-.87-6.54c0,0,1.1,2.27,1.32,3.86.23,1.59.3,4.35.3,4.35l.53,1.06.19,1.66h.01Z"/>
          <path class="st32" d="M55.77,59.17s-1.02-2.66.34-5.84c1.36-3.17,3.29-3.46,3.29-3.46,0,0-2.84,1.31-2.95,5.56,0,0-.23,1.02-.34,1.87s-.34,1.87-.34,1.87Z"/>
        </g>
        <path class="st24" d="M51.24,75.43c1.84,0,3.47-.93,4.44-2.34.97,1.41,2.59,2.34,4.44,2.34,2.97,0,5.48-2.41,5.37-5.38-.2-5.51-7.13-5.67-9.49-11.67-.12-.31-.23-.43-.32-.42-.1,0-.21.11-.33.42-2.35,6-9.29,6.17-9.49,11.67-.11,2.97,2.41,5.38,5.38,5.38Z"/>
        <path class="st11" d="M55.68,67.72c-3.57,0-6.81-.12-9.24.05-.33.66-.55,1.41-.58,2.29-.05,1.38.47,2.64,1.34,3.59.52.15,1.06.28,1.63.4.25.02.49.04.75.04,2.53,0,4.76-1.28,6.09-3.22,1.33,1.94,3.56,3.22,6.09,3.22.25,0,.5-.01.75-.04.57-.12,1.12-.25,1.63-.4.87-.95,1.39-2.21,1.34-3.59-.03-.89-.24-1.64-.58-2.29-2.42-.16-5.66-.05-9.23-.05h.01Z"/>
        <g>
          <path class="st25" d="M55.68,70.79c-4.66,0-8.56-.27-9.62.85.44,1.51,1.57,2.73,3.03,3.35.49.16,1.03.3,1.61.42.18.02.36.03.54.03,1.84,0,3.47-.93,4.44-2.34.97,1.41,2.59,2.34,4.44,2.34.18,0,.36-.01.54-.03.57-.12,1.11-.26,1.6-.42,1.45-.62,2.59-1.84,3.03-3.35-1.05-1.12-4.96-.85-9.61-.85Z"/>
          <ellipse class="st25" cx="55.68" cy="73.81" rx="4.28" ry="2.16"/>
        </g>
        <ellipse class="st7" cx="36.71" cy="73.17" rx="12.13" ry="6.35"/>
        <path class="st26" d="M51.19,93.47c0,3.68-6.48,8.14-14.48,8.14s-14.48-4.46-14.48-8.14,6.48-6.66,14.48-6.66,14.48,2.98,14.48,6.66Z"/>
        <path class="st29" d="M27.39,84.25c0,8.04,5.6,14.57-1.64,14.57s-13.1-6.52-13.1-14.57,5.87-14.57,13.1-14.57,1.64,6.53,1.64,14.57Z"/>
        <path class="st34" d="M27.39,84.25c0,8.04,5.6,14.57-1.64,14.57s-13.1-6.52-13.1-14.57"/>
        <path class="st26" d="M17.87,84.25c0,6.93,4.36,12.72,10.2,14.2,3.46-1.48-.68-7.28-.68-14.2s4.14-12.72.68-14.2c-5.84,1.47-10.2,7.26-10.2,14.2Z"/>
        <path class="st29" d="M46.04,84.25c0-8.05-5.6-14.57,1.64-14.57s13.1,6.53,13.1,14.57-5.87,14.57-13.1,14.57-1.64-6.52-1.64-14.57Z"/>
        <path class="st34" d="M60.77,84.25c0,8.04-5.87,14.57-13.1,14.57s-1.64-6.52-1.64-14.57"/>
        <path class="st26" d="M55.55,84.25c0-6.94-4.36-12.73-10.2-14.2-3.46,1.48.68,7.27.68,14.2s-4.14,12.72-.68,14.2c5.84-1.47,10.2-7.26,10.2-14.2Z"/>
        <ellipse class="st29" cx="36.71" cy="84.5" rx="13.43" ry="15.4"/>
        <path class="st34" d="M23.28,84.5c0,8.5,6.01,15.4,13.43,15.4s13.43-6.9,13.43-15.4"/>
        <path class="st7" d="M34.37,68.44c-.22,0-.43-.08-.6-.25-3.04-3.04-3.04-7.99,0-11.03,2.5-2.5,6.57-2.5,9.07,0,2.06,2.07,2.06,5.43,0,7.49-1.72,1.72-4.52,1.72-6.23,0-1.44-1.44-1.44-3.79,0-5.23.33-.33.87-.33,1.2,0s.33.87,0,1.2c-.78.78-.78,2.05,0,2.83,1.06,1.06,2.78,1.06,3.84,0,1.4-1.4,1.4-3.69,0-5.09-1.84-1.83-4.83-1.83-6.67,0-2.38,2.38-2.38,6.25,0,8.63.33.33.33.87,0,1.2-.17.17-.38.25-.6.25h-.01Z"/>
        <path class="st37" d="M66.03,82.36c-3.01,3-9.58,4.71-12.59,1.7-3-3-1.3-9.58,1.71-12.59,3-3,6.49-1.62,9.5,1.38,3,3,4.38,6.49,1.38,9.5h0Z"/>
        <path class="st27" d="M66.03,82.36c-3.01,3-9.58,4.71-12.59,1.7-3-3-1.3-9.58,1.71-12.59,3-3,5.86-.99,8.87,2.01,3.01,3.01,5.02,5.87,2.01,8.87h0Z"/>
        <g>
          <path class="st8" d="M66.03,82.36c-3.01,3-9.58,4.71-12.59,1.7-3-3-1.3-9.58,1.71-12.59,3-3,2.83,2.04,5.84,5.04,3.01,3,8.05,2.84,5.04,5.84h0Z"/>
          <path class="st8" d="M53.45,84.06c3.01,3.01,9.58,1.3,12.59-1.7,3-3,1.62-6.5-1.38-9.5"/>
        </g>
        <path class="st1" d="M60.99,76.52l-7.55,7.55c3.01,3.01,9.58,1.3,12.59-1.7,3-3-2.03-2.84-5.04-5.84h0Z"/>
        <circle class="st0" cx="59.58" cy="71.11" r=".34"/>
        <path class="st9" d="M59.82,71.36c-.13.14-.35.14-.48,0-.13-.13-.13-.35,0-.49.13-.13.24-.02.37.11.13.14.24.24.11.38Z"/>
        <circle class="st0" cx="60.95" cy="72.48" r=".34"/>
        <path class="st9" d="M61.19,72.72c-.13.14-.35.14-.48,0-.14-.13-.14-.35,0-.49.13-.13.24-.02.38.11.13.13.24.24.11.37h-.01Z"/>
        <circle class="st0" cx="62.31" cy="73.84" r=".34"/>
        <path class="st9" d="M62.55,74.08c-.13.13-.35.13-.48,0s-.13-.35,0-.49c.13-.13.24-.02.38.11.13.13.24.24.11.37h-.01Z"/>
        <circle class="st0" cx="63.67" cy="75.2" r=".34"/>
        <path class="st9" d="M63.91,75.44c-.13.13-.35.13-.48,0-.14-.13-.13-.35,0-.48s.24-.03.37.11c.14.14.24.24.11.38h0Z"/>
        <circle class="st0" cx="65.03" cy="76.56" r=".34"/>
        <path class="st9" d="M65.28,76.81c-.14.13-.35.13-.49,0-.13-.13-.13-.35,0-.49.14-.13.24-.02.38.11.13.13.24.24.11.38Z"/>
        <circle class="st0" cx="66.41" cy="77.92" r=".34"/>
        <path class="st9" d="M66.64,78.17c-.13.13-.35.13-.48,0-.13-.13-.13-.35,0-.48.13-.13.24-.03.38.11.13.13.24.24.11.38h0Z"/>
        <circle class="st0" cx="58.21" cy="72.49" r=".34"/>
        <path class="st9" d="M58.46,72.73c-.14.14-.35.14-.49,0-.13-.13-.13-.35,0-.49.13-.13.24-.02.37.11.13.13.24.24.11.38h.01Z"/>
        <circle class="st0" cx="59.58" cy="73.85" r=".34"/>
        <path class="st9" d="M59.82,74.09c-.13.14-.35.14-.48,0-.13-.13-.13-.35,0-.49.13-.13.24-.02.38.11.13.14.24.24.11.38h-.01Z"/>
        <circle class="st0" cx="60.94" cy="75.21" r=".34"/>
        <path class="st9" d="M61.18,75.45c-.13.13-.35.13-.49,0-.13-.13-.13-.35,0-.49.13-.13.24-.02.38.11.13.13.24.24.11.38Z"/>
        <circle class="st0" cx="62.3" cy="76.57" r=".34"/>
        <path class="st9" d="M62.54,76.82c-.14.13-.35.13-.48,0s-.13-.35,0-.49c.13-.13.24-.03.38.11.13.13.24.24.11.38h-.01Z"/>
        <circle class="st0" cx="63.66" cy="77.94" r=".34"/>
        <path class="st9" d="M63.91,78.18c-.14.13-.35.13-.48,0-.14-.13-.14-.35,0-.48.13-.13.24-.02.37.11.14.13.24.24.11.38h0Z"/>
        <circle class="st0" cx="65.03" cy="79.3" r=".34"/>
        <path class="st9" d="M65.27,79.54c-.14.13-.35.13-.49,0-.13-.13-.13-.35,0-.49.13-.13.24-.03.38.11.13.13.24.24.11.38Z"/>
        <circle class="st0" cx="56.27" cy="73.07" r=".34"/>
        <path class="st9" d="M56.51,73.31c-.13.13-.35.13-.48,0s-.13-.35,0-.49c.13-.13.24-.02.38.11.13.13.24.24.11.38h-.01Z"/>
        <circle class="st0" cx="57.64" cy="74.43" r=".34"/>
        <path class="st9" d="M57.87,74.67c-.13.13-.35.13-.48,0s-.14-.35,0-.49c.13-.13.24-.02.38.11.13.13.24.24.11.37h-.01Z"/>
        <circle class="st0" cx="59" cy="75.79" r=".34"/>
        <path class="st9" d="M59.24,76.03c-.13.13-.35.14-.48,0-.13-.13-.13-.35,0-.49.13-.13.24-.02.38.11.13.13.24.24.11.37h-.01Z"/>
        <circle class="st0" cx="60.36" cy="77.15" r=".34"/>
        <path class="st9" d="M60.6,77.4c-.14.13-.35.13-.49,0-.14-.13-.14-.35,0-.48.13-.13.24-.03.37.11.14.13.24.24.11.38h.01Z"/>
        <circle class="st0" cx="61.71" cy="78.52" r=".34"/>
        <path class="st9" d="M61.96,78.76c-.13.13-.35.13-.49,0-.13-.13-.13-.35,0-.48.13-.13.24-.03.38.11.13.13.24.24.11.38h0Z"/>
        <circle class="st0" cx="63.07" cy="79.88" r=".34"/>
        <path class="st9" d="M63.32,80.12c-.13.14-.35.14-.48,0s-.13-.35,0-.49c.14-.13.24-.02.38.11.13.13.24.24.11.37h-.01Z"/>
        <circle class="st0" cx="64.45" cy="81.24" r=".34"/>
        <path class="st9" d="M64.69,81.49c-.14.13-.35.13-.49,0-.13-.13-.13-.35,0-.49.13-.13.24-.02.37.11.14.13.24.24.11.38h0Z"/>
        <circle class="st0" cx="55.52" cy="75.18" r=".34"/>
        <path class="st9" d="M55.76,75.42c-.13.13-.35.13-.49,0-.13-.13-.13-.35,0-.48.14-.13.24-.02.38.11.13.13.24.24.11.38h0Z"/>
        <path class="st0" d="M57.13,76.78c-.13.13-.35.13-.48,0-.14-.13-.14-.35,0-.49.13-.13.35-.13.48,0,.13.14.13.35,0,.49Z"/>
        <path class="st9" d="M57.13,76.78c-.13.13-.35.13-.48,0-.14-.13-.14-.35,0-.49.13-.13.24-.02.37.11.13.14.24.24.11.38Z"/>
        <path class="st0" d="M58.49,78.14c-.13.13-.35.13-.48,0-.14-.13-.14-.35,0-.49.13-.13.35-.13.48,0,.14.13.14.35,0,.49Z"/>
        <path class="st9" d="M58.49,78.14c-.13.13-.35.13-.48,0-.14-.13-.14-.35,0-.49.13-.13.24-.02.38.11.13.13.24.24.1.38Z"/>
        <circle class="st0" cx="59.61" cy="79.27" r=".34"/>
        <path class="st9" d="M59.85,79.51c-.13.13-.35.13-.49,0-.13-.13-.13-.35,0-.48.13-.13.24-.03.38.11.13.13.24.24.11.37Z"/>
        <path class="st0" d="M61.21,80.87c-.13.13-.35.13-.48,0s-.14-.35,0-.48c.14-.13.35-.13.48,0s.14.35,0,.48Z"/>
        <path class="st9" d="M61.21,80.87c-.13.13-.35.13-.48,0s-.14-.35,0-.48c.14-.13.24-.02.38.11.13.13.24.24.11.38h-.01Z"/>
        <circle class="st0" cx="62.33" cy="81.99" r=".34"/>
        <path class="st9" d="M62.58,82.23c-.13.13-.35.13-.48,0s-.13-.35,0-.48c.14-.13.24-.03.38.11s.24.24.11.38h-.01Z"/>
        <circle class="st0" cx="54.26" cy="76.45" r=".34"/>
        <path class="st9" d="M54.5,76.68c-.13.13-.35.13-.49,0-.13-.13-.13-.35,0-.48.14-.13.24-.03.38.11.13.14.24.24.11.38h0Z"/>
        <circle class="st0" cx="55.62" cy="77.81" r=".34"/>
        <path class="st9" d="M55.86,78.04c-.13.13-.35.14-.48,0-.14-.13-.14-.35,0-.49.13-.13.24-.02.37.11.14.13.24.24.11.38Z"/>
        <circle class="st0" cx="56.98" cy="79.17" r=".34"/>
        <path class="st9" d="M57.23,79.41c-.13.13-.35.13-.48,0s-.13-.35,0-.48c.13-.13.24-.02.38.11.13.14.24.24.11.38h-.01Z"/>
        <circle class="st0" cx="58.35" cy="80.53" r=".34"/>
        <path class="st9" d="M58.59,80.77c-.13.13-.35.13-.49,0-.13-.13-.13-.35,0-.48.13-.13.24-.02.38.11.13.13.24.24.11.37Z"/>
        <circle class="st0" cx="59.71" cy="81.89" r=".34"/>
        <path class="st9" d="M59.95,82.13c-.13.13-.35.13-.48,0s-.13-.35,0-.49c.14-.13.24-.03.38.11.13.13.25.24.11.38h-.01Z"/>
        <path class="st0" d="M61.31,83.49c-.13.13-.34.13-.48,0-.13-.13-.13-.35,0-.48.13-.13.35-.13.48,0,.14.13.14.35,0,.48Z"/>
        <path class="st9" d="M61.31,83.49c-.13.13-.34.13-.48,0-.13-.13-.13-.35,0-.48.13-.13.24-.03.37.11.14.13.24.24.11.38h0Z"/>
        <circle class="st0" cx="53.57" cy="78.49" r=".34"/>
        <path class="st9" d="M53.81,78.73c-.13.13-.35.13-.48,0-.14-.13-.14-.35,0-.49.13-.13.24-.02.38.11.13.14.24.24.11.38h-.01Z"/>
        <circle class="st0" cx="54.93" cy="79.86" r=".34"/>
        <path class="st9" d="M55.17,80.1c-.13.14-.35.14-.49,0-.13-.13-.13-.35,0-.48.13-.13.24-.03.38.11.13.13.24.24.11.37Z"/>
        <circle class="st0" cx="56.29" cy="81.22" r=".34"/>
        <path class="st9" d="M56.54,81.46c-.13.13-.35.13-.48,0s-.13-.35,0-.49.24-.02.38.11c.13.13.24.24.11.38h-.01Z"/>
        <path class="st0" d="M57.9,82.82c-.13.14-.35.13-.49,0-.13-.13-.13-.35,0-.48.13-.13.35-.13.49,0,.13.13.13.35,0,.48Z"/>
        <path class="st9" d="M57.9,82.82c-.13.14-.35.13-.49,0-.13-.13-.13-.35,0-.48.13-.13.24-.02.38.11.13.13.24.24.11.38h0Z"/>
        <circle class="st0" cx="59.03" cy="83.94" r=".34"/>
        <path class="st9" d="M59.26,84.18c-.13.13-.35.13-.48,0s-.13-.35,0-.48c.14-.13.24-.03.38.11.13.13.24.24.11.38h-.01Z"/>
        <circle class="st0" cx="52.99" cy="80.43" r=".34"/>
        <path class="st9" d="M53.23,80.68c-.13.13-.35.13-.48,0-.14-.13-.13-.35,0-.49.14-.13.24-.02.38.11.13.13.24.24.11.37h-.01Z"/>
        <circle class="st0" cx="54.35" cy="81.8" r=".34"/>
        <path class="st9" d="M54.59,82.04c-.14.14-.35.14-.49,0-.13-.13-.13-.35,0-.49.13-.13.24-.02.38.11.13.13.24.24.11.37h0Z"/>
        <circle class="st0" cx="55.71" cy="83.16" r=".34"/>
        <path class="st9" d="M55.96,83.4c-.13.14-.35.14-.48,0-.13-.13-.13-.35,0-.48.14-.13.24-.03.38.11.13.13.24.24.11.38h-.01Z"/>
        <circle class="st0" cx="57.08" cy="84.52" r=".34"/>
        <path class="st9" d="M57.32,84.77c-.13.13-.35.13-.49,0-.13-.13-.13-.35,0-.49.13-.13.24-.02.38.11.13.13.24.24.11.38Z"/>
        <path class="st33" d="M68.15,73.07s.65-.52.11-1.18-2,.17-2,.17c0,0,.73-.73.66-1.29,0-.06-.03-.1-.06-.12-.02-.03-.06-.06-.12-.06-.57-.07-1.29.66-1.29.66,0,0,.83-1.46.17-2.01-.65-.54-1.18.11-1.18.11.33-.9-1.03-3.32-2.08-1.08-.91,1.95,1.02,4.55,1.54,5.19v.02s.02.02.06.06c.04.05.07.07.07.07h.01c.65.51,3.24,2.44,5.2,1.53,2.25-1.05-.17-2.41-1.07-2.08h-.02Z"/>
        <path class="st2" d="M63.17,67.38c-.03.06-.06.12-.09.19-.91,1.95,1.02,4.55,1.54,5.19v.02l.06.06c.04.05.06.07.06.07h.02c.64.51,3.24,2.44,5.19,1.53.07-.03.13-.06.19-.1.23-.81-1.31-1.52-1.98-1.27,0,0,.65-.52.11-1.18s-2,.17-2,.17c0,0,.73-.73.66-1.29,0-.06-.03-.1-.06-.12-.02-.03-.06-.06-.12-.06-.57-.07-1.29.66-1.29.66,0,0,.83-1.46.17-2.01-.65-.54-1.18.11-1.18.11.25-.68-.46-2.21-1.27-1.98h0Z"/>
        <path class="st21" d="M86.66,94.98c0,1.81-1.47,3.29-3.29,3.29H14.29c-1.82,0-3.29-1.47-3.29-3.29v-6.2c0-1.82,1.47-3.29,3.29-3.29h69.09c1.81,0,3.29,1.47,3.29,3.29v6.2h0Z"/>
        <path class="st4" d="M83.38,85.49H14.29c-1.82,0-3.29,1.47-3.29,3.29v3.6c0,1.82,1.47,3.28,3.29,3.28h69.09c1.81,0,3.29-1.47,3.29-3.28v-3.6c0-1.82-1.47-3.29-3.29-3.29Z"/>
        <g>
          <circle class="st21" cx="16.36" cy="91.87" r="1.44"/>
          <circle class="st21" cx="82.07" cy="91.87" r="1.44"/>
          <path class="st21" d="M86.66,107.85c0,1.81-1.47,3.28-3.29,3.28H14.29c-1.82,0-3.29-1.47-3.29-3.28v-6.21c0-1.81,1.47-3.28,3.29-3.28h69.09c1.81,0,3.29,1.47,3.29,3.28v6.21h0Z"/>
        </g>
        <path class="st4" d="M83.38,98.36H14.29c-1.82,0-3.29,1.47-3.29,3.28v3.6c0,1.81,1.47,3.29,3.29,3.29h69.09c1.81,0,3.29-1.47,3.29-3.29v-3.6c0-1.81-1.47-3.28-3.29-3.28Z"/>
        <g>
          <circle class="st21" cx="16.36" cy="104.74" r="1.44"/>
          <circle class="st21" cx="82.07" cy="104.74" r="1.44"/>
          <path class="st21" d="M86.66,120.72c0,1.82-1.47,3.29-3.29,3.29H14.29c-1.82,0-3.29-1.47-3.29-3.29v-6.2c0-1.82,1.47-3.29,3.29-3.29h69.09c1.81,0,3.29,1.47,3.29,3.29v6.2h0Z"/>
        </g>
        <path class="st4" d="M83.38,111.23H14.29c-1.82,0-3.29,1.47-3.29,3.29v3.6c0,1.82,1.47,3.29,3.29,3.29h69.09c1.81,0,3.29-1.47,3.29-3.29v-3.6c0-1.82-1.47-3.29-3.29-3.29Z"/>
        <g>
          <circle class="st21" cx="16.36" cy="117.62" r="1.44"/>
          <circle class="st21" cx="82.07" cy="117.62" r="1.44"/>
          <path class="st21" d="M86.66,133.58c0,1.82-1.47,3.29-3.29,3.29H14.29c-1.82,0-3.29-1.47-3.29-3.29v-6.21c0-1.81,1.47-3.28,3.29-3.28h69.09c1.81,0,3.29,1.47,3.29,3.28v6.21h0Z"/>
        </g>
        <path class="st4" d="M83.38,124.1H14.29c-1.82,0-3.29,1.47-3.29,3.28v3.61c0,1.82,1.47,3.28,3.29,3.28h69.09c1.81,0,3.29-1.47,3.29-3.28v-3.61c0-1.81-1.47-3.28-3.29-3.28Z"/>
        <g>
          <circle class="st21" cx="16.36" cy="130.48" r="1.44"/>
          <circle class="st21" cx="82.07" cy="130.48" r="1.44"/>
        </g>
        <path class="st5" d="M28.04,83.49c1.75,0,3.17,1.42,3.17,3.17v49.03c0,1.76-1.42,3.18-3.17,3.18h-6c-1.75,0-3.17-1.42-3.17-3.18v-49.03c0-1.75,1.42-3.17,3.17-3.17,0,0,6,0,6,0Z"/>
        <path class="st28" d="M18.87,86.66v49.03c0,1.76,1.42,3.18,3.17,3.18h3.48c1.76,0,3.18-1.42,3.18-3.18v-49.03c0-1.75-1.42-3.17-3.18-3.17h-3.48c-1.76,0-3.17,1.42-3.17,3.17Z"/>
        <g>
          <circle class="st21" cx="25.05" cy="130.92" r="1.39"/>
          <circle class="st21" cx="25.05" cy="92.21" r="1.39"/>
        </g>
        <path class="st5" d="M67.56,83.49c-1.75,0-3.17,1.42-3.17,3.17v49.03c0,1.76,1.42,3.18,3.17,3.18h6c1.75,0,3.17-1.42,3.17-3.18v-49.03c0-1.75-1.42-3.17-3.17-3.17,0,0-6,0-6,0Z"/>
        <path class="st28" d="M76.73,86.66v49.03c0,1.76-1.42,3.18-3.17,3.18h-3.49c-1.75,0-3.17-1.42-3.17-3.18v-49.03c0-1.75,1.42-3.17,3.17-3.17h3.49c1.75,0,3.17,1.42,3.17,3.17Z"/>
        <g>
          <circle class="st21" cx="70.56" cy="130.92" r="1.39"/>
          <circle class="st21" cx="70.56" cy="92.21" r="1.39"/>
        </g>
      </g>
    </g>
  </g>
  <g class="st20">
    <g class="st20">
      <path d="M26.5,17.96c.89,0,1.57.05,2.04.14.21.04.39.12.52.24.13.12.19.26.19.41,0,.12-.05.24-.15.36-.15.19-.22.32-.22.4,0,.16.13.43.39.79.17.23.33.35.48.35.1,0,.19-.04.28-.11.09-.07.21-.2.36-.38.18-.22.27-.4.27-.53,0-.08-.01-.14-.03-.18s-.09-.14-.22-.29c-.09-.1-.14-.25-.14-.42,0-.51.7-.77,2.09-.77.79,0,1.3.04,1.54.11.15.05.27.13.37.26s.15.26.15.41c0,.19-.06.33-.17.42s-.31.17-.59.22c-.26.05-.49.15-.68.3-.19.15-.54.5-1.05,1.04-.62.67-1.01,1.16-1.16,1.48-.15.32-.23.79-.23,1.42,0,.53.02,1.02.06,1.47.02.28.07.47.13.58.06.11.2.21.4.32.33.17.5.39.5.65,0,.62-.92.93-2.75.93-.75,0-1.46-.07-2.13-.22-.56-.12-.85-.37-.85-.73,0-.28.17-.49.52-.61.26-.09.42-.21.49-.35.15-.31.22-1.06.22-2.23,0-.36-.04-.65-.11-.85-.07-.2-.23-.47-.48-.79-.52-.67-1.05-1.27-1.59-1.81-.24-.23-.46-.39-.68-.47-.31-.11-.5-.2-.56-.25-.13-.11-.19-.25-.19-.44,0-.31.23-.53.69-.66.46-.13,1.23-.2,2.31-.2Z"/>
    </g>
  </g>
  <g class="st20">
    <g class="st20">
      <path d="M35.59,20.9h2.46c.5,0,.86-.01,1.09-.03.23-.02.45-.06.67-.13.07-.02.12-.03.16-.03.17,0,.31.09.44.27.21.29.32.64.32,1.05,0,.21-.04.37-.13.49-.09.12-.21.18-.36.18-.11,0-.19-.02-.25-.06-.06-.04-.14-.14-.24-.29-.14-.21-.32-.36-.53-.43s-.57-.11-1.06-.11c-.37,0-.59.07-.67.2-.04.07-.07.16-.07.28,0,.12-.01.42-.01.9,0,.19.03.31.1.36s.23.07.5.07c.13,0,.23-.03.29-.08.06-.06.1-.16.11-.3.02-.19.05-.31.07-.38.02-.07.07-.13.13-.18.07-.06.15-.09.23-.09.13,0,.24.06.33.19.07.09.12.26.17.49s.07.48.07.73c0,.5-.08.92-.23,1.24-.09.18-.22.26-.39.26-.11,0-.18-.03-.22-.08-.04-.06-.07-.17-.1-.35-.05-.36-.26-.54-.63-.54-.14,0-.24.05-.29.14s-.08.26-.08.5c0,.15.01.34.03.58.02.24.04.39.06.47.03.1.1.16.24.2s.35.06.66.06c.48,0,.84-.06,1.08-.18.24-.12.44-.35.59-.67.09-.19.17-.31.24-.37s.17-.1.28-.1c.13,0,.25.06.33.17.09.12.13.26.13.44,0,.19-.05.43-.15.72-.1.29-.22.54-.36.77-.07.11-.13.18-.18.22s-.11.06-.18.06c-.06,0-.15,0-.26-.03-.2-.04-.48-.06-.82-.07h-4.06c-.16,0-.29-.04-.38-.11-.09-.07-.13-.17-.13-.3,0-.09.02-.16.06-.2.04-.04.13-.09.26-.16.1-.04.17-.09.21-.15.05-.06.08-.15.11-.27.1-.48.16-1.13.16-1.95,0-1.23-.08-2.01-.23-2.33-.03-.06-.07-.11-.11-.13-.04-.03-.12-.06-.24-.09-.18-.05-.27-.18-.27-.36,0-.1.03-.19.09-.27.06-.08.14-.13.24-.16.12-.03.37-.04.72-.04Z"/>
      <path d="M47.56,24.12l.9,1.94c.09.18.16.3.22.35.06.06.15.09.26.11.23.04.35.15.35.35,0,.23-.14.4-.42.5-.28.1-.74.15-1.38.15-.72,0-1.26-.03-1.6-.09-.16-.03-.29-.09-.38-.17-.09-.09-.14-.19-.14-.32,0-.1.02-.17.07-.22.05-.05.14-.1.28-.15.15-.05.22-.14.22-.26,0-.21-.13-.34-.39-.38-.28-.04-.67-.06-1.17-.06-.42,0-.68.03-.76.08-.05.03-.1.09-.13.17s-.06.16-.06.24c0,.07.01.12.04.14.03.02.12.05.27.1.19.06.29.17.29.34,0,.38-.45.57-1.36.57-.52,0-.9-.04-1.14-.11-.22-.07-.33-.21-.33-.44,0-.1.02-.18.07-.23.05-.05.14-.1.27-.15.21-.07.36-.18.47-.31.11-.13.26-.42.46-.85l.67-1.48c.25-.54.42-.95.5-1.22s.13-.53.13-.79c0-.27.02-.46.05-.57s.1-.21.2-.31c.22-.22.5-.33.84-.33.32,0,.63.13.92.38.41.34,1,1.35,1.78,3.01ZM44.22,24.73h.94c.17,0,.26-.04.26-.11,0-.11-.12-.36-.36-.78-.11-.19-.19-.31-.25-.38-.06-.06-.12-.1-.18-.1-.11,0-.21.11-.29.32-.01.03-.06.14-.14.34-.13.33-.2.52-.2.58,0,.08.07.12.22.12Z"/>
      <path d="M52.6,24.68c-.12,0-.2.04-.23.11-.03.07-.05.24-.05.51,0,.41.03.72.08.95.02.06.04.11.07.15.03.04.09.08.18.13.19.1.29.24.29.42,0,.21-.13.36-.4.45-.27.09-.72.13-1.35.13-1.18,0-1.77-.22-1.77-.67,0-.08.02-.14.05-.18.04-.05.12-.11.24-.19.14-.09.24-.2.29-.33.05-.13.08-.34.1-.65.02-.23.02-1.04.02-2.44,0-.44-.02-.75-.07-.9-.04-.16-.14-.28-.29-.35-.14-.07-.23-.13-.28-.18-.05-.06-.07-.13-.07-.22,0-.12.05-.22.14-.31.09-.09.22-.15.38-.19.14-.04.33-.05.56-.05.11,0,.37.02.79.05.08,0,.21,0,.38,0,.29,0,.67-.02,1.15-.06.3-.02.52-.03.64-.03.68,0,1.25.16,1.69.49.4.3.6.71.6,1.23,0,.29-.07.56-.21.8-.14.24-.33.42-.58.54-.1.05-.15.11-.15.18,0,.09.08.17.23.23.33.12.58.3.74.55s.27.62.33,1.13c.03.21.07.35.12.41.05.06.18.12.38.18.06.02.11.06.15.12.04.06.06.13.06.21,0,.1-.04.2-.11.3-.08.1-.18.18-.3.24-.27.12-.63.19-1.1.19-.62,0-1.07-.16-1.33-.49-.12-.15-.22-.33-.31-.56-.08-.22-.18-.57-.3-1.04-.07-.3-.17-.52-.28-.64-.11-.12-.28-.19-.49-.2ZM52.33,22.24l-.05,1.11v.04c0,.12.02.19.05.23.03.04.1.06.2.06.28,0,.49-.07.61-.22.13-.15.19-.38.19-.7,0-.62-.22-.92-.66-.92-.12,0-.21.03-.26.09-.05.06-.08.16-.09.31Z"/>
    </g>
  </g>
  <g class="st20">
    <g class="st20">
      <path d="M64.27,20.76c.82,0,1.54.23,2.15.7.42.32.75.74,1.01,1.25.25.51.38,1.02.38,1.53,0,.75-.25,1.43-.75,2.02-.42.5-.97.87-1.65,1.09-.42.13-.84.2-1.26.2-.55,0-1.08-.12-1.58-.34-.61-.28-1.09-.7-1.43-1.26-.33-.54-.5-1.14-.5-1.79,0-.76.22-1.43.65-2.01.38-.52.9-.9,1.54-1.14.43-.17.92-.25,1.45-.25ZM63.81,22.14c-.27,0-.48.12-.64.36-.12.18-.18.39-.18.64,0,.36.07.78.22,1.25s.33.89.56,1.26c.1.16.22.28.37.37.15.09.29.14.44.14.24,0,.44-.09.59-.27.15-.18.22-.42.22-.72,0-.39-.06-.8-.19-1.25-.12-.45-.29-.83-.48-1.14-.12-.19-.26-.35-.42-.46-.16-.11-.32-.17-.48-.18Z"/>
      <path d="M71.73,21.88c-.22,0-.36.06-.41.17-.04.08-.07.25-.11.49-.03.24-.05.46-.05.66,0,.12.04.2.11.24.08.04.22.07.43.07.14,0,.24-.03.31-.08.07-.05.11-.14.14-.26.07-.35.22-.52.45-.52.39,0,.58.47.58,1.4,0,.59-.08,1.02-.25,1.3-.1.17-.24.25-.42.25-.19,0-.3-.13-.33-.38-.02-.16-.04-.28-.06-.34-.02-.07-.07-.13-.14-.19-.11-.1-.26-.15-.46-.15-.14,0-.24.03-.29.08-.05.05-.07.15-.07.29,0,.03,0,.17,0,.45,0,.55.06.89.17,1.01.04.05.08.08.12.09.04.01.14.03.31.06.08.01.15.06.21.13.06.07.09.16.09.25,0,.25-.14.4-.43.47-.42.1-1,.15-1.75.15-.66,0-1.11-.04-1.36-.11-.11-.04-.2-.1-.27-.19-.07-.09-.11-.19-.11-.31,0-.14.05-.25.15-.34.03-.02.11-.06.26-.12.18-.07.29-.23.32-.49.06-.39.09-1.29.09-2.68,0-.6-.02-.99-.06-1.17-.04-.18-.14-.3-.3-.37-.16-.07-.26-.13-.31-.18-.05-.05-.07-.13-.07-.23,0-.14.07-.26.21-.35.14-.09.31-.14.51-.14.13,0,.31,0,.56.03.52.04,1.14.06,1.87.06,1.16,0,1.94-.03,2.34-.1.05,0,.1,0,.12,0,.11,0,.22.06.32.19.28.36.42.75.42,1.19,0,.2-.05.36-.14.47s-.21.18-.36.18c-.11,0-.2-.02-.25-.07-.06-.04-.2-.2-.44-.47-.14-.17-.32-.27-.52-.33-.2-.05-.58-.08-1.13-.1Z"/>
    </g>
  </g>
  <g class="st20">
    <g class="st20">
      <path d="M27.81,36.21v-3.6c0-.46-.03-.76-.1-.89-.06-.12-.24-.23-.52-.3-.41-.12-.62-.32-.62-.62,0-.21.09-.36.26-.47s.42-.16.75-.16c.11,0,.38,0,.81.02h.41c.76,0,1.2-.01,1.33-.02.13,0,.59-.05,1.39-.12.26-.03.51-.04.72-.04.75,0,1.41.15,2,.46,1.02.53,1.52,1.37,1.52,2.52,0,.93-.36,1.67-1.07,2.24-.67.52-1.48.79-2.43.79-.24,0-.54-.02-.89-.05-.19-.01-.3-.02-.35-.02-.13,0-.2.08-.2.23v.04l.05,1.12c0,.22.05.38.12.49.07.11.22.22.43.33.3.16.44.33.44.52,0,.29-.22.51-.66.66s-1.06.23-1.86.23c-1.69,0-2.53-.29-2.53-.87,0-.14.04-.24.11-.31s.24-.18.51-.31c.16-.09.26-.21.29-.36s.05-.65.05-1.5ZM30.9,31.75v2.32c0,.18.04.29.12.32.13.06.3.1.5.1.3,0,.55-.08.76-.25.3-.24.44-.65.44-1.22s-.17-1.02-.52-1.29c-.22-.17-.48-.25-.79-.25-.34,0-.51.09-.51.27Z"/>
    </g>
  </g>
  <g class="st20">
    <g class="st20">
      <path d="M39.25,34.99v2.2c0,.49.04.81.13.96.11.17.33.25.67.25.36,0,.65-.08.86-.24.21-.16.36-.41.44-.75.05-.21.16-.31.33-.31s.31.08.41.23.16.35.16.59c0,.4-.15.82-.44,1.27-.09.14-.17.24-.24.29-.07.05-.15.08-.25.08l-1.06-.13h-3.34c-.22,0-.38-.03-.46-.08-.13-.07-.2-.18-.2-.33,0-.09.02-.16.06-.2.04-.04.15-.1.31-.18.18-.09.3-.21.35-.36.04-.13.06-.51.06-1.14,0-.29,0-.72-.02-1.27-.02-.53-.03-.93-.03-1.2,0-.26-.02-.43-.06-.52s-.12-.16-.25-.2c-.21-.07-.34-.13-.4-.18-.1-.08-.15-.17-.15-.27,0-.23.19-.41.58-.53.33-.1.77-.16,1.32-.16.62,0,1.08.03,1.39.1.4.09.59.26.59.52,0,.11-.03.18-.08.23-.05.05-.18.12-.39.21-.12.05-.2.15-.23.28-.03.13-.05.42-.05.86Z"/>
      <path d="M43.36,32.9h2.46c.5,0,.86-.01,1.09-.03.23-.02.45-.06.67-.13.07-.02.12-.03.16-.03.17,0,.31.09.44.27.21.29.32.64.32,1.05,0,.21-.04.37-.13.49-.09.12-.21.18-.36.18-.11,0-.19-.02-.25-.06-.06-.04-.14-.14-.24-.29-.14-.21-.32-.36-.53-.43s-.57-.11-1.06-.11c-.37,0-.59.07-.67.2-.04.07-.07.16-.07.28,0,.12-.01.42-.01.9,0,.19.03.31.1.36s.23.07.5.07c.13,0,.23-.03.29-.08.06-.06.1-.16.11-.3.02-.19.05-.31.07-.38.02-.07.07-.13.13-.18.07-.06.15-.09.23-.09.13,0,.24.06.33.19.07.09.12.26.17.49s.07.48.07.73c0,.5-.08.92-.23,1.24-.09.18-.22.26-.39.26-.11,0-.18-.03-.22-.08-.04-.06-.07-.17-.1-.35-.05-.36-.26-.54-.63-.54-.14,0-.24.05-.29.14s-.08.26-.08.5c0,.15.01.34.03.58.02.24.04.39.06.47.03.1.1.16.24.2s.35.06.66.06c.48,0,.84-.06,1.08-.18.24-.12.44-.35.59-.67.09-.19.17-.31.24-.37s.17-.1.28-.1c.13,0,.25.06.33.17.09.12.13.26.13.44,0,.19-.05.43-.15.72-.1.29-.22.54-.36.77-.07.11-.13.18-.18.22s-.11.06-.18.06c-.06,0-.15,0-.26-.03-.2-.04-.48-.06-.82-.07h-4.06c-.16,0-.29-.04-.38-.11-.09-.07-.13-.17-.13-.3,0-.09.02-.16.06-.2.04-.04.13-.09.26-.16.1-.04.17-.09.21-.15.05-.06.08-.15.11-.27.1-.48.16-1.13.16-1.95,0-1.23-.08-2.01-.23-2.33-.03-.06-.07-.11-.11-.13-.04-.03-.12-.06-.24-.09-.18-.05-.27-.18-.27-.36,0-.1.03-.19.09-.27.06-.08.14-.13.24-.16.12-.03.37-.04.72-.04Z"/>
      <path d="M51.78,33.13l2.38,2.09c.22.19.38.29.48.29.17,0,.25-.18.25-.53,0-.4-.02-.68-.07-.82-.05-.15-.15-.26-.3-.33-.12-.06-.21-.12-.26-.19-.05-.07-.08-.16-.08-.27,0-.27.18-.44.55-.52.15-.03.41-.05.79-.05.48,0,.82.03,1,.09.29.09.44.26.44.51,0,.21-.12.36-.36.47-.1.04-.16.08-.2.11-.04.03-.07.08-.09.14-.09.21-.13.61-.13,1.2v1.56c0,.24,0,.57,0,.98,0,.56-.03.97-.1,1.22-.09.31-.24.46-.47.46-.1,0-.18-.02-.26-.06-.07-.04-.19-.14-.36-.29l-2.84-2.54c-.2-.18-.36-.27-.49-.27-.19,0-.29.27-.29.81,0,.44.03.75.07.91.05.16.15.28.3.36.21.11.32.24.32.41,0,.44-.48.67-1.43.67-.43,0-.77-.06-1-.17s-.36-.27-.36-.48c0-.11.02-.19.07-.24.04-.05.15-.13.3-.22.15-.09.24-.25.27-.47.05-.41.08-1,.08-1.77,0-.82-.05-1.42-.14-1.8-.04-.14-.08-.24-.13-.31-.05-.07-.14-.13-.27-.19-.14-.07-.24-.14-.3-.21s-.08-.15-.08-.24c0-.31.26-.5.79-.58.18-.03.49-.04.94-.04.26,0,.44.02.56.06.12.04.25.13.41.27Z"/>
      <path d="M59.32,32.9h2.52c.27,0,.52-.05.74-.11.1-.03.18-.04.25-.04.26,0,.51.19.75.57.24.38.37.78.37,1.18,0,.28-.08.48-.25.61-.13.1-.28.14-.46.14-.17,0-.32-.05-.44-.14-.12-.09-.25-.25-.37-.47-.11-.2-.19-.33-.25-.39s-.13-.09-.22-.09c-.12,0-.2.05-.25.15-.05.1-.08.26-.08.49v2.68c0,.27.03.47.09.6s.17.22.33.29c.17.07.29.14.35.21.06.07.09.16.09.27,0,.23-.16.4-.47.51-.31.11-.79.17-1.43.17-.79,0-1.38-.07-1.76-.2-.32-.11-.48-.28-.48-.53,0-.13.06-.23.17-.31.03-.02.14-.05.34-.11.12-.04.21-.1.25-.2.05-.1.08-.29.11-.57.03-.25.05-.65.07-1.21s.03-1.04.03-1.45c0-.29-.02-.49-.07-.61-.04-.12-.12-.18-.22-.18-.12,0-.25.09-.36.27-.21.33-.39.54-.53.65-.16.12-.32.19-.47.19-.17,0-.31-.06-.43-.19-.11-.13-.17-.29-.17-.5s.04-.42.13-.65c.09-.24.21-.46.36-.66.24-.33.48-.49.72-.49.06,0,.14,0,.22.03.17.04.31.06.42.07.11.01.24.02.38.02Z"/>
      <path d="M66.16,32.8c.62,0,1.1.03,1.43.1.15.03.27.09.36.17s.14.18.14.29c0,.08-.04.17-.11.25-.1.13-.15.23-.15.28,0,.12.09.3.27.55.12.16.23.24.34.24.07,0,.13-.02.2-.07.06-.05.15-.14.25-.27.12-.16.19-.28.19-.37,0-.06,0-.1-.02-.13-.01-.03-.07-.1-.16-.21-.06-.07-.1-.17-.1-.3,0-.36.49-.54,1.46-.54.55,0,.91.03,1.08.08.11.03.19.09.26.18s.1.19.1.29c0,.13-.04.23-.12.3-.08.07-.22.12-.42.15-.18.04-.34.1-.47.21-.13.1-.38.35-.74.73-.43.47-.7.81-.81,1.04-.11.22-.16.55-.16.99,0,.37.01.71.04,1.03.02.19.05.33.09.4.04.08.14.15.28.22.23.12.35.27.35.45,0,.43-.64.65-1.92.65-.53,0-1.02-.05-1.49-.15-.4-.09-.59-.26-.59-.51,0-.2.12-.34.36-.43.18-.06.3-.15.34-.24.1-.22.15-.74.15-1.56,0-.26-.03-.45-.08-.6-.05-.14-.16-.33-.33-.55-.36-.47-.73-.89-1.12-1.27-.17-.16-.33-.27-.48-.33-.22-.08-.35-.14-.39-.18-.09-.08-.13-.18-.13-.31,0-.21.16-.37.48-.46.32-.09.86-.14,1.62-.14Z"/>
    </g>
  </g>
  <path class="st10" d="M83.2,11.2c1.98,0,3.6,1.62,3.6,3.6v104.4c0,1.98-1.62,3.6-3.6,3.6H14.8c-1.98,0-3.6-1.62-3.6-3.6V14.8c0-1.98,1.62-3.6,3.6-3.6h68.4M83.2,4H14.8c-5.98,0-10.8,4.82-10.8,10.8v104.4c0,5.98,4.82,10.8,10.8,10.8h68.4c5.98,0,10.8-4.82,10.8-10.8V14.8c0-5.98-4.82-10.8-10.8-10.8h0Z"/>
</svg>