<?xml version="1.0" encoding="UTF-8"?>
<svg id="Layer_3" xmlns="http://www.w3.org/2000/svg" version="1.1" xmlns:xlink="http://www.w3.org/1999/xlink" viewBox="0 0 128 128">
  <!-- Generator: Adobe Illustrator 29.8.1, SVG Export Plug-In . SVG Version: 2.1.1 Build 2)  -->
  <defs>
    <style>
      .st0 {
        fill: #ead59c;
      }

      .st1 {
        fill: url(#radial-gradient);
      }

      .st2 {
        fill: url(#radial-gradient1);
      }

      .st3 {
        fill: #e5cb83;
      }
    </style>
    <radialGradient id="radial-gradient" cx="94" cy="42" fx="94" fy="49.2" r="10" gradientUnits="userSpaceOnUse">
      <stop offset=".2" stop-color="#323232"/>
      <stop offset="1" stop-color="#000"/>
    </radialGradient>
    <radialGradient id="radial-gradient1" cx="34" cy="102" fx="34" fy="109.2" xlink:href="#radial-gradient"/>
  </defs>
  <path class="st3" d="M108.69,30.26l-13.99-18.63c-.19-.29-.4-.56-.62-.82l-.03-.04h0c-1.47-1.69-3.63-2.76-6.04-2.76h-48c-2.41,0-4.57,1.07-6.04,2.76h0s-.03.04-.03.04c-.22.26-.43.54-.62.82l-13.99,18.63h89.38Z"/>
  <rect class="st0" x="16" y="24" width="96" height="96" rx="16" ry="16"/>
  <g>
    <circle class="st1" cx="94" cy="42" r="10"/>
    <circle class="st2" cx="34" cy="102" r="10"/>
  </g>
  <g>
    <ellipse cx="88.75" cy="20.5" rx="8.25" ry="1.5"/>
    <ellipse cx="43.75" cy="11.5" rx="6.75" ry="1.5"/>
    <ellipse cx="64" cy="16" rx="7.5" ry="1.5"/>
  </g>
</svg>