<?xml version="1.0" encoding="UTF-8"?>
<svg id="Angle_Port" xmlns="http://www.w3.org/2000/svg" version="1.1" xmlns:xlink="http://www.w3.org/1999/xlink" viewBox="0 0 60 70">
  <!-- Generator: Adobe Illustrator 29.8.1, SVG Export Plug-In . SVG Version: 2.1.1 Build 2)  -->
  <defs>
    <style>
      .st0 {
        fill: #fff;
      }

      .st1 {
        fill: none;
      }

      .st2 {
        fill: #897243;
      }

      .st3 {
        clip-path: url(#clippath);
      }
    </style>
    <clipPath id="clippath">
      <polygon class="st1" points="59.94 50.62 29.94 70.62 -.06 50.62 -.06 20.62 29.94 .62 59.94 20.62 59.94 50.62"/>
    </clipPath>
  </defs>
  <g class="st3">
    <g>
      <path class="st0" d="M56.87,26.12c-1.34,0-2.43-1.09-2.43-2.43v-.61c0-1.96-1.05-3.79-2.75-4.78l-8.14-4.75c-.59-.34-1.17-.72-1.73-1.13l-6.96-5.06c-.95-.69-2.08-1.06-3.25-1.06-1,0-1.99.27-2.85.79-.38.23-.81.35-1.25.35-.81,0-1.57-.4-2.02-1.08-.7-1.06-.49-2.45.5-3.24l3.91-3.12,30.58,20.39-.76,3.78c-.23,1.13-1.23,1.95-2.38,1.95h-.49Z"/>
      <path class="st0" d="M29.94.62l30,20-.69,3.45c-.18.9-.97,1.55-1.89,1.55h-.49c-1.06,0-1.93-.86-1.93-1.93v-.61c0-2.15-1.14-4.13-2.99-5.21l-8.14-4.75c-.58-.34-1.14-.71-1.69-1.1l-6.96-5.06c-1.05-.77-2.3-1.15-3.55-1.15-1.07,0-2.15.28-3.1.86h0c-.31.19-.65.27-.99.27-.62,0-1.24-.3-1.61-.86-.55-.83-.38-1.95.4-2.57l3.62-2.9M29.89-.62l-.57.46-3.62,2.9c-1.19.96-1.46,2.64-.61,3.91.54.82,1.46,1.3,2.44,1.3.53,0,1.05-.14,1.5-.42.78-.47,1.68-.72,2.59-.72,1.07,0,2.1.33,2.96.96l6.96,5.06c.57.41,1.16.8,1.77,1.16l8.14,4.75c1.54.9,2.5,2.56,2.5,4.35v.61c0,1.61,1.31,2.93,2.93,2.93h.49c1.39,0,2.6-.99,2.87-2.35l.69-3.45.13-.66-.56-.37L30.5-.21l-.61-.41h0Z"/>
    </g>
    <g>
      <polygon class="st0" points="29.62 8.38 28.25 8.74 27.37 5.44 33.4 3.83 34.28 7.13 32.91 7.49 34.01 11.59 30.71 12.47 29.62 8.38"/>
      <path class="st0" d="M32.69,5.05l.37,1.37-1.37.37,1.1,4.1-1.37.37-1.1-4.1-1.37.37-.37-1.37,4.1-1.1M34.1,2.6l-1.93.52-4.1,1.1-1.93.52.52,1.93.37,1.37.52,1.93,1.37-.37.58,2.17.52,1.93,1.93-.52,1.37-.37,1.93-.52-.52-1.93-.58-2.17,1.37-.37-.52-1.93-.37-1.37-.52-1.93h0Z"/>
    </g>
    <g>
      <polygon class="st0" points="53.03 23.48 48.94 24.57 48.05 21.28 52.15 20.18 51.78 18.81 55.08 17.93 56.7 23.96 53.4 24.84 53.03 23.48"/>
      <path class="st0" d="M54.37,19.15l1.1,4.1-1.37.37-.37-1.37-4.1,1.1-.37-1.37,4.1-1.1-.37-1.37,1.37-.37M55.79,16.7l-1.93.52-1.37.37-1.93.52.37,1.37-2.17.58-1.93.52.52,1.93.37,1.37.52,1.93,1.93-.52,2.17-.58.37,1.37,1.93-.52,1.37-.37,1.93-.52-.52-1.93-1.1-4.1-.52-1.93h0Z"/>
    </g>
    <g>
      <polygon class="st2" points="29.97 7.76 28.6 8.13 27.98 5.8 33.04 4.44 33.67 6.77 32.3 7.14 33.4 11.24 31.07 11.86 29.97 7.76"/>
      <path class="st2" d="M32.69,5.05l.37,1.37-1.37.37,1.1,4.1-1.37.37-1.1-4.1-1.37.37-.37-1.37,4.1-1.1M33.4,3.83l-.97.26-4.1,1.1-.97.26.26.97.37,1.37.26.97.97-.26.4-.11.84,3.13.26.97.97-.26,1.37-.37.97-.26-.26-.97-.84-3.13.4-.11.97-.26-.26-.97-.37-1.37-.26-.97h0Z"/>
    </g>
    <g>
      <polygon class="st2" points="53.39 22.86 49.29 23.96 48.66 21.63 52.76 20.53 52.4 19.17 54.73 18.54 56.08 23.6 53.75 24.23 53.39 22.86"/>
      <path class="st2" d="M54.37,19.15l1.1,4.1-1.37.37-.37-1.37-4.1,1.1-.37-1.37,4.1-1.1-.37-1.37,1.37-.37M55.08,17.93l-.97.26-1.37.37-.97.26.26.97.11.4-3.13.84-.97.26.26.97.37,1.37.26.97.97-.26,3.13-.84.11.4.26.97.97-.26,1.37-.37.97-.26-.26-.97-1.1-4.1-.26-.97h0Z"/>
    </g>
    <path class="st0" d="M51.95,17.87l-8.14-4.75c-.58-.34-1.14-.71-1.69-1.1l-6.96-5.06c-1.96-1.42-4.58-1.54-6.65-.29h0c-.88.53-2.03.27-2.6-.58h0c-.55-.83-.38-1.95.4-2.57l3.62-2.9,30,20-.69,3.45c-.18.9-.97,1.55-1.89,1.55h-.49c-1.06,0-1.93-.86-1.93-1.93v-.61c0-2.15-1.14-4.13-2.99-5.21Z"/>
  </g>
</svg>