<?xml version="1.0" encoding="UTF-8"?>
<svg id="Layer_1" xmlns="http://www.w3.org/2000/svg" version="1.1" viewBox="0 0 54 54">
  <!-- Generator: Adobe Illustrator 29.8.1, SVG Export Plug-In . SVG Version: 2.1.1 Build 2)  -->
  <defs>
    <style>
      .st0 {
        fill: #fff;
      }
    </style>
  </defs>
  <g>
    <path class="st0" d="M23.99,41.36c-.29,0-.57-.13-.76-.34-.19-.22-.28-.51-.23-.8l.39-2.72c-1.12-.09-2.22-.28-3.29-.55-.45-.11-.76-.51-.76-.97v-2.26c0-.83.52-1.21,1-1.21.09,0,.19.01.28.04.52.16,1.05.3,1.6.44.61.15,1.21.27,1.78.35l.67-4.59c-.54-.19-1.07-.4-1.6-.64-.68-.31-1.3-.69-1.83-1.13-.55-.46-1.01-1.02-1.35-1.68-.35-.67-.53-1.48-.53-2.4,0-.77.15-1.51.45-2.21.3-.7.77-1.34,1.4-1.88.61-.54,1.4-.98,2.34-1.33.82-.3,1.8-.5,2.89-.58l.35-2.27c.07-.49.49-.85.99-.85h1.66c.29,0,.57.13.76.35.19.22.28.51.23.8l-.31,2.14c.37.04.73.09,1.09.14.39.06.76.13,1.13.2.46.1.79.51.79.98v2.19c0,.55-.45,1-1,1-.09,0-.18-.01-.27-.04-.35-.1-.7-.18-1.07-.26-.43-.09-.86-.17-1.28-.22l-.54,3.78c-.03.23,0,.31,0,.31.52.17,1.08.39,1.64.63.72.3,1.38.68,1.96,1.13.6.46,1.09,1.03,1.47,1.69.38.67.58,1.49.58,2.44,0,1.05-.21,2-.62,2.79-.41.79-.99,1.47-1.71,2.02-.71.53-1.56.95-2.52,1.24-.82.25-1.72.41-2.67.49l-.44,2.96c-.07.49-.5.85-.99.85h-1.66ZM28.18,29.95l-.49,3.37c.23-.05.44-.11.63-.17.32-.12.58-.26.77-.43.18-.16.31-.33.39-.51.08-.19.12-.39.12-.62,0-.44-.13-.77-.4-1.03-.22-.21-.56-.41-1.02-.6h0s0,0,0,0ZM25.8,21.05c-.49.11-.85.26-1.07.47-.29.27-.43.61-.43,1.04,0,.31.11.56.35.78.19.17.44.34.76.5l.4-2.78h-.01s0,0,0,0Z"/>
    <path d="M29.43,14.26c.3,0,.54.27.49.57l-.31,2.14c-.04.28.16.53.44.57.36.04.71.09,1.07.14.38.06.74.12,1.1.2.23.05.39.26.39.49v2.19c0,.28-.23.5-.5.5-.04,0-.09,0-.14-.02-.35-.1-.72-.19-1.1-.27-.44-.1-.88-.17-1.32-.23-.02,0-.04,0-.06,0-.24,0-.46.18-.49.43l-.54,3.77c-.07.51.06.73.28.81.55.2,1.1.42,1.66.66.68.29,1.3.64,1.85,1.07s1,.94,1.34,1.54c.34.6.51,1.33.51,2.19,0,.98-.19,1.83-.57,2.57-.38.73-.9,1.35-1.57,1.85-.67.5-1.45.88-2.36,1.16-.79.24-1.65.39-2.57.47-.23.02-.42.19-.46.42l-.44,2.96c-.04.25-.25.43-.49.43h-1.66c-.3,0-.54-.27-.49-.57l.39-2.72c.04-.28-.17-.54-.45-.56-1.1-.1-2.17-.28-3.21-.54-.22-.06-.38-.26-.38-.49v-2.26c0-.47.23-.71.5-.71.05,0,.09,0,.14.02.52.16,1.06.3,1.62.44.62.16,1.24.27,1.84.36.02,0,.05,0,.07,0,.24,0,.45-.18.49-.43.16-1.07.53-3.61.67-4.59.03-.23-.1-.46-.32-.54-.53-.19-1.05-.4-1.56-.63-.64-.29-1.21-.64-1.72-1.06-.5-.42-.91-.93-1.23-1.53-.31-.6-.47-1.32-.47-2.17,0-.71.14-1.38.41-2.01.27-.63.69-1.2,1.26-1.7.57-.5,1.3-.91,2.18-1.23.78-.29,1.7-.47,2.75-.55.23-.02.43-.18.46-.41.09-.58.26-1.68.35-2.28.04-.24.25-.42.49-.42h1.66M25.82,24.55l.49-3.43c.04-.31-.21-.57-.51-.57-.04,0-.07,0-.11.01-.59.13-1.03.32-1.31.59-.39.37-.58.83-.58,1.4,0,.46.17.84.51,1.15.34.31.84.6,1.5.85M27.09,33.91c.54-.06,1.01-.16,1.39-.3.38-.14.69-.32.93-.52.24-.21.41-.44.52-.69.11-.25.17-.53.17-.82,0-.57-.18-1.04-.55-1.39-.27-.26-.66-.49-1.17-.7-.06-.03-.13-.04-.19-.04-.24,0-.46.17-.5.43l-.59,4.04M29.43,13.26h-1.66c-.75,0-1.37.53-1.48,1.27l-.29,1.88c-.98.1-1.86.29-2.63.57-1,.36-1.84.84-2.5,1.42-.68.59-1.19,1.29-1.52,2.06-.33.76-.49,1.57-.49,2.41,0,1.01.2,1.89.58,2.63.37.72.87,1.34,1.47,1.84.57.47,1.23.88,1.95,1.2.41.18.83.36,1.25.52l-.54,3.69c-.41-.07-.82-.16-1.24-.26-.54-.13-1.07-.28-1.58-.43-.14-.04-.28-.06-.43-.06-.74,0-1.5.59-1.5,1.71v2.26c0,.69.47,1.29,1.13,1.46.93.23,1.88.41,2.84.52l-.31,2.2c-.06.43.07.87.35,1.19.29.33.7.52,1.13.52h1.66c.74,0,1.38-.55,1.48-1.28l.38-2.57c.84-.09,1.64-.25,2.38-.47,1.02-.31,1.92-.75,2.67-1.32.79-.59,1.41-1.33,1.86-2.19.45-.87.68-1.89.68-3.03,0-1.03-.22-1.93-.65-2.68-.41-.71-.94-1.33-1.6-1.83-.62-.47-1.31-.88-2.07-1.2-.43-.18-.88-.36-1.32-.53l.45-3.16c.25.04.5.09.75.14.36.08.71.16,1.05.25.13.04.27.05.4.05.83,0,1.5-.67,1.5-1.5v-2.19c0-.71-.5-1.33-1.18-1.47-.37-.08-.76-.15-1.15-.21-.2-.03-.4-.06-.6-.09l.24-1.63c.06-.43-.06-.87-.35-1.2-.29-.33-.7-.52-1.13-.52h0ZM25.03,23s-.03-.02-.04-.03c-.14-.12-.19-.24-.19-.41,0-.29.08-.5.27-.67.03-.03.07-.06.13-.1l-.17,1.21h0ZM28.29,32.61l.28-1.91c.13.08.23.16.29.21.11.11.24.28.24.67,0,.15-.03.29-.08.42-.05.11-.14.23-.26.34-.11.1-.27.19-.46.27h0Z"/>
  </g>
  <g>
    <path class="st0" d="M11,47.5c-1.93,0-3.5-1.57-3.5-3.5v-20.07c0-.31-.26-.5-.5-.5-.1,0-.19.03-.27.08l-1.51,1.01c-.25.16-.53.25-.83.25-.5,0-.97-.25-1.25-.67l-1.11-1.67c-.22-.33-.3-.73-.22-1.12.08-.39.3-.73.64-.95L22.48,7.01c1.07-.71,2.32-1.09,3.61-1.09,1.2,0,2.37.33,3.4.96l21.97,13.47c.7.43.92,1.35.49,2.06l-1.05,1.71c-.27.45-.75.71-1.28.71h0c-.28,0-.55-.08-.78-.22l-1.59-.97c-.08-.05-.17-.07-.26-.07-.24,0-.5.19-.5.5v19.94c0,1.93-1.57,3.5-3.5,3.5H11ZM26.11,11.1c-.5,0-.97.15-1.39.42l-12,8c-.14.09-.22.25-.22.41v20.06c0,1.38,1.12,2.5,2.5,2.5h24c1.38,0,2.5-1.12,2.5-2.5v-19.62c0-.17-.09-.33-.24-.42l-13.84-8.49c-.39-.24-.85-.37-1.31-.37Z"/>
    <path d="M26.09,6.41c1.09,0,2.17.29,3.14.89l21.97,13.47c.47.29.62.9.33,1.37l-1.05,1.71c-.19.31-.52.48-.85.48-.18,0-.36-.05-.52-.15l-1.59-.97c-.17-.1-.34-.15-.52-.15-.52,0-1,.41-1,1v19.94c0,1.66-1.34,3-3,3H11c-1.66,0-3-1.34-3-3v-20.07c0-.59-.48-1-1-1-.19,0-.38.05-.55.17l-1.51,1.01c-.17.11-.36.17-.55.17-.32,0-.64-.16-.83-.44l-1.11-1.67c-.31-.46-.18-1.08.28-1.38L22.76,7.42c1.01-.67,2.17-1.01,3.33-1.01M15,43h24c1.66,0,3-1.34,3-3v-19.62c0-.35-.18-.67-.48-.85l-13.84-8.49c-.48-.3-1.03-.44-1.57-.44-.58,0-1.16.17-1.66.5l-12,8c-.28.18-.44.5-.44.83v20.06c0,1.66,1.34,3,3,3M26.09,5.41c-1.39,0-2.73.41-3.88,1.18L2.16,19.95c-.92.61-1.16,1.85-.55,2.77l1.11,1.67c.37.56.99.89,1.66.89.39,0,.78-.12,1.11-.34l1.51-1.01v20.07c0,2.21,1.79,4,3.99,4h32c2.21,0,4-1.79,4-4v-19.94l1.58.98c.31.19.67.29,1.04.29.7,0,1.34-.36,1.7-.95l1.05-1.71c.28-.45.36-.99.24-1.51s-.44-.96-.9-1.24L29.75,6.45c-1.1-.68-2.37-1.03-3.66-1.03h0ZM15,42c-1.1,0-2-.9-2-2v-20.06l12-8c.33-.22.71-.34,1.11-.34.37,0,.73.1,1.05.3l13.84,8.49v19.61c0,1.1-.9,2-2,2H15Z"/>
  </g>
</svg>