<?xml version="1.0" encoding="UTF-8"?>
<svg id="Layer_1" xmlns="http://www.w3.org/2000/svg" version="1.1" xmlns:xlink="http://www.w3.org/1999/xlink" viewBox="0 0 54 54">
  <!-- Generator: Adobe Illustrator 29.8.1, SVG Export Plug-In . SVG Version: 2.1.1 Build 2)  -->
  <defs>
    <style>
      .st0 {
        fill: #9c2c3c;
      }

      .st1 {
        fill: #fff;
      }

      .st2 {
        fill: #b5b0ad;
      }

      .st3 {
        fill: #e2e2e2;
      }

      .st4 {
        fill: url(#radial-gradient);
      }

      .st5 {
        fill: #28396d;
      }

      .st6 {
        fill: #ab933b;
      }
    </style>
    <radialGradient id="radial-gradient" cx="27" cy="29" fx="27" fy="29" r="2.64" gradientTransform="translate(0 56) scale(1 -1)" gradientUnits="userSpaceOnUse">
      <stop offset="0" stop-color="#b7b4af"/>
      <stop offset="1" stop-color="#40353b"/>
    </radialGradient>
  </defs>
  <g>
    <g>
      <rect class="st3" x="12.2" y="6.2" width="29.6" height="41.6" rx="3" ry="3"/>
      <path d="M38.8,7.2c1.1,0,2,.9,2,2v35.6c0,1.1-.9,2-2,2H15.2c-1.1,0-2-.9-2-2V9.2c0-1.1.9-2,2-2h23.6M38.8,5.2H15.2c-2.21,0-4,1.79-4,4v35.6c0,2.21,1.79,4,4,4h23.6c2.21,0,4-1.79,4-4V9.2c0-2.21-1.79-4-4-4h0Z"/>
    </g>
    <path class="st1" d="M38.4,8.4c.66,0,1.2.54,1.2,1.2v34.8c0,.66-.54,1.2-1.2,1.2H15.6c-.66,0-1.2-.54-1.2-1.2V9.6c0-.66.54-1.2,1.2-1.2h22.8M38.4,6H15.6c-1.99,0-3.6,1.61-3.6,3.6v34.8c0,1.99,1.61,3.6,3.6,3.6h22.8c1.99,0,3.6-1.61,3.6-3.6V9.6c0-1.99-1.61-3.6-3.6-3.6h0Z"/>
  </g>
  <g>
    <g>
      <circle class="st6" cx="27" cy="27" r="9.96"/>
      <path d="M27,18.21c4.85,0,8.79,3.94,8.79,8.79s-3.94,8.79-8.79,8.79-8.79-3.94-8.79-8.79,3.94-8.79,8.79-8.79M27,17.04c-5.49,0-9.96,4.46-9.96,9.96s4.46,9.96,9.96,9.96,9.96-4.46,9.96-9.96-4.46-9.96-9.96-9.96h0Z"/>
    </g>
    <path class="st0" d="M27,20.56c3.55,0,6.44,2.89,6.44,6.44s-2.89,6.44-6.44,6.44-6.44-2.89-6.44-6.44,2.89-6.44,6.44-6.44M27,18.21c-4.85,0-8.79,3.94-8.79,8.79s3.94,8.79,8.79,8.79,8.79-3.94,8.79-8.79-3.94-8.79-8.79-8.79h0Z"/>
    <path class="st5" d="M18.73,29.93c1.21,3.41,4.45,5.86,8.27,5.86s7.06-2.45,8.27-5.86h-16.55.01Z"/>
    <g>
      <circle class="st4" cx="27" cy="27" r="2.64"/>
      <path class="st2" d="M27,24.66c1.29,0,2.34,1.05,2.34,2.34s-1.05,2.34-2.34,2.34-2.34-1.05-2.34-2.34,1.05-2.34,2.34-2.34M27,24.07c-1.62,0-2.93,1.31-2.93,2.93s1.31,2.93,2.93,2.93,2.93-1.31,2.93-2.93-1.31-2.93-2.93-2.93h0Z"/>
    </g>
  </g>
</svg>