<?xml version="1.0" encoding="UTF-8"?>
<svg id="Layer_1" xmlns="http://www.w3.org/2000/svg" version="1.1" viewBox="0 0 54 54">
  <!-- Generator: Adobe Illustrator 29.8.1, SVG Export Plug-In . SVG Version: 2.1.1 Build 2)  -->
  <defs>
    <style>
      .st0 {
        fill: #ffae33;
      }

      .st1 {
        fill: #f29c2a;
      }

      .st2 {
        fill: #ffdc35;
      }
    </style>
  </defs>
  <path class="st2" d="M49.71,10.32c-2.37,2.37-6.71,3.36-8.05,2.02-1.34-1.34-.35-5.68,2.02-8.05s8.73-2.7,8.73-2.7c0,0-.33,6.36-2.7,8.73Z"/>
  <g>
    <path class="st0" d="M52.41,1.59l-10.75,10.75c1.34,1.34,5.68.35,8.05-2.02,2.36-2.36,2.7-8.67,2.7-8.73Z"/>
    <path class="st0" d="M44.91,21.33c-3.36,0-7.12-2.37-7.12-4.26s3.76-4.26,7.12-4.26,8.09,4.26,8.09,4.26c0,0-4.73,4.26-8.09,4.26Z"/>
  </g>
  <path class="st2" d="M32.67,9.09c0,3.36,2.37,7.12,4.26,7.12s4.26-3.76,4.26-7.12S36.94,1,36.94,1c0,0-4.26,4.73-4.26,8.09Z"/>
  <path class="st0" d="M38.33,27.91c-3.36,0-7.12-2.37-7.12-4.26s3.76-4.26,7.12-4.26,8.09,4.26,8.09,4.26c0,0-4.73,4.26-8.09,4.26Z"/>
  <path class="st2" d="M26.08,15.67c0,3.36,2.37,7.12,4.26,7.12s4.26-3.76,4.26-7.12-4.26-8.09-4.26-8.09c0,0-4.26,4.73-4.26,8.09Z"/>
  <path class="st0" d="M31.74,34.5c-3.36,0-7.12-2.37-7.12-4.26s3.76-4.26,7.12-4.26,8.09,4.26,8.09,4.26c0,0-4.73,4.26-8.09,4.26Z"/>
  <path class="st2" d="M19.5,22.26c0,3.36,2.37,7.12,4.26,7.12s4.26-3.76,4.26-7.12-4.26-8.09-4.26-8.09c0,0-4.26,4.73-4.26,8.09Z"/>
  <path class="st0" d="M25.07,41.17c-3.36,0-7.12-2.37-7.12-4.26s3.76-4.26,7.12-4.26,8.09,4.26,8.09,4.26c0,0-4.73,4.26-8.09,4.26Z"/>
  <path class="st2" d="M12.83,28.93c0,3.36,2.37,7.12,4.26,7.12s4.26-3.76,4.26-7.12-4.26-8.09-4.26-8.09c0,0-4.26,4.73-4.26,8.09Z"/>
  <path class="st0" d="M18.31,47.93c-3.36,0-7.12-2.37-7.12-4.26s3.76-4.26,7.12-4.26,8.09,4.26,8.09,4.26c0,0-4.73,4.26-8.09,4.26Z"/>
  <path class="st2" d="M6.07,35.69c0,3.36,2.37,7.12,4.26,7.12s4.26-3.76,4.26-7.12-4.26-8.09-4.26-8.09c0,0-4.26,4.73-4.26,8.09Z"/>
  <path class="st1" d="M1.5,52.5c-.67-.67-.67-1.74,0-2.41L42.11,9.48c.67-.67,1.74-.67,2.41,0,.67.67.67,1.74,0,2.41L3.91,52.5c-.67.67-1.74.67-2.41,0Z"/>
</svg>