<?xml version="1.0" encoding="UTF-8"?>
<svg id="Layer_1" xmlns="http://www.w3.org/2000/svg" version="1.1" viewBox="0 0 54 54">
  <!-- Generator: Adobe Illustrator 29.8.1, SVG Export Plug-In . SVG Version: 2.1.1 Build 2)  -->
  <defs>
    <style>
      .st0 {
        fill: #3d3c2e;
      }
    </style>
  </defs>
  <g id="Road">
    <path class="st0" d="M31.55,35.11l.47-.91c.15-.29.29-.58.42-.87.26-.58.46-1.17.6-1.75.27-1.18.13-2.25-.59-3.05-.71-.81-1.89-1.36-3.11-1.74-2.6-.75-5.25-1.58-7.82-2.55-.64-.24-1.29-.5-1.93-.77-.63-.26-1.31-.57-1.94-.99-.62-.42-1.27-.97-1.6-1.83-.17-.42-.21-.89-.15-1.32.06-.43.2-.83.37-1.18.36-.72.81-1.24,1.21-1.79l1.25-1.63,2.53-3.23,4.3-5.41-3.28-.09s-7.47,6.87-10.8,11.2c-2.9,3.77-1.31,7.09,3.93,9.33,4.42,1.89,8.57,3.35,8.57,3.35.71.37,1.22,1.02,1.39,1.77.17.76-.02,1.54-.51,2.16l-11.41,14.18h11.38l4.84-9.26,1.89-3.63Z"/>
    <path class="st0" d="M42.5,27.41c-1.59-2.66-4.31-4.53-7.46-5.14l-11.16-2.35c-.47-.09-.86-.38-1.05-.8-.2-.41-.18-.88.06-1.28l7.42-11.62-3.61-.1-4.57,6.04-2.44,3.28-1.2,1.65c-.39.55-.81,1.1-1.05,1.61-.25.53-.31,1.03-.13,1.45.17.43.6.83,1.11,1.15.52.33,1.09.58,1.72.82.62.25,1.25.48,1.89.7,2.56.9,5.13,1.64,7.79,2.33,1.37.41,2.81.95,3.96,2.17.56.61.98,1.41,1.14,2.23.16.83.11,1.64-.03,2.39-.15.75-.39,1.46-.66,2.13-.14.33-.29.67-.45.99l-.45.92-1.8,3.67-4.09,8.31h11.54l4.36-11.87c1.06-2.89.76-6.07-.83-8.72Z"/>
  </g>
</svg>