<?xml version="1.0" encoding="UTF-8"?>
<svg id="Layer_4" xmlns="http://www.w3.org/2000/svg" version="1.1" xmlns:xlink="http://www.w3.org/1999/xlink" viewBox="0 0 60 70">
  <!-- Generator: Adobe Illustrator 29.8.1, SVG Export Plug-In . SVG Version: 2.1.1 Build 2)  -->
  <defs>
    <style>
      .st0 {
        fill: #f2e5c2;
      }

      .st1 {
        fill: #99602e;
      }

      .st2 {
        fill: none;
      }

      .st3 {
        fill: #66401f;
      }

      .st4 {
        fill: #805026;
      }

      .st5 {
        display: none;
        fill: #2772a4;
      }

      .st6 {
        fill: #734822;
      }

      .st7 {
        fill: #fff1cc;
      }

      .st8 {
        clip-path: url(#clippath);
      }
    </style>
    <clipPath id="clippath">
      <path class="st2" d="M45,44s-.67,12.35-.67,11.46c0-1.04-.91-1.88-2.04-1.88s-2.04.84-2.04,1.88-.91,1.88-2.04,1.88-2.04-.84-2.04-1.88-.91-1.88-2.04-1.88-2.04.84-2.04,1.88-.91,1.88-2.04,1.88-2.04-.84-2.04-1.88-.91-1.88-2.04-1.88-2.04.84-2.04,1.88-.91,1.88-2.04,1.88-2.04-.84-2.04-1.88-.91-1.88-2.04-1.88-2.04.84-2.04,1.88c0,.77-.22-11.28-.22-11.28l29.46-.18Z"/>
    </clipPath>
  </defs>
  <path class="st5" d="M48.85,54.32c-.03-.14-.04-.28-.04-.42,0-1.19-.93-2.15-2.09-2.15s-2.09.96-2.09,2.15-.93,2.15-2.09,2.15c-1.15,0-2.1-.96-2.1-2.15s-.94-2.15-2.09-2.15-2.09.96-2.09,2.15-.94,2.15-2.09,2.15c-.69,0-1.29-.34-1.68-.86-.26-.36-.42-.8-.42-1.28,0-.42-.12-.81-.32-1.14-.37-.61-1.02-1.01-1.77-1.01-.58,0-1.1.24-1.48.63-.38.39-.61.93-.61,1.52,0,.29-.06.58-.16.83-.32.78-1.06,1.32-1.93,1.32-1.01,0-1.86-.74-2.05-1.72-.03-.14-.04-.28-.04-.43s-.02-.29-.04-.43c0-.03-.02-.06-.02-.1,0-.04-.02-.07-.03-.11-.26-.88-1.06-1.51-2-1.51-1.16,0-2.09.96-2.09,2.15s-.94,2.15-2.09,2.15c-.79,0-1.48-.45-1.84-1.11-.16-.3-.25-.64-.25-1.01v.22c0-.08-.01-.16-.01-.24,0-1.19-.94-2.15-2.09-2.15-1.07,0-1.95.82-2.07,1.88,4.43,5.7,11.35,9.37,19.12,9.37s14.13-3.38,18.57-8.68Z"/>
  <polygon class="st3" points="31.14 12 28.86 12 27.73 46.92 32.27 46.92 31.14 12"/>
  <g class="st8">
    <g>
      <polygon class="st1" points="37.57 58.08 41.24 47.19 30 45.78 18.76 47.19 22.43 58.08 37.57 58.08"/>
      <polygon class="st4" points="37.57 58.08 41.24 47.19 30 45.78 30 58.08 37.57 58.08"/>
      <polygon class="st6" points="30 45.78 30 46.17 39.73 47.19 36.05 58.08 37.57 58.08 41.24 47.19 30 45.78"/>
    </g>
  </g>
  <g>
    <path class="st7" d="M14.49,19.65c.96,1.89.96,21.72,0,23.49,2.88,1.77,27.43,1.77,31.03,0-.96-1.77-.96-21.59,0-23.49l-4.31-2.68c-6.86-4.27-15.54-4.27-22.4,0l-4.31,2.68Z"/>
    <path class="st0" d="M45.51,19.65h-1.51c-.96,1.89-.96,21.72,0,23.49-1.73.85-8.33,1.29-15.03,1.32,7.19.03,14.68-.41,16.54-1.32-.96-1.77-.96-21.59,0-23.49Z"/>
  </g>
  <path d="M46.27,20.03l-4.2-2.58c-7.4-4.55-16.74-4.55-24.14,0l-4.2,2.58c-.21,0-.38-.17-.38-.38s.17-.38.38-.38l4.2-2.58c7.4-4.55,16.74-4.55,24.14,0l4.2,2.58c.21,0,.38.17.38.38s-.17.38-.38.38Z"/>
</svg>