<?xml version="1.0" encoding="UTF-8"?>
<svg id="Side_Port" xmlns="http://www.w3.org/2000/svg" version="1.1" viewBox="0 0 60 70">
  <!-- Generator: Adobe Illustrator 29.8.1, SVG Export Plug-In . SVG Version: 2.1.1 Build 2)  -->
  <defs>
    <style>
      .st0 {
        fill: #fff;
      }

      .st1 {
        fill: #897243;
      }
    </style>
  </defs>
  <g>
    <path class="st0" d="M51.59,27l3-3-1-1,2.41-2.41,3.35,3.35c.58.58.58,1.54,0,2.12l-1.35,1.35-1-1-3,3-2.41-2.41Z"/>
    <path class="st0" d="M56,22l2.65,2.65c.2.2.2.51,0,.71l-.65.65-1-1-3,3-1-1,3-3-1-1,1-1M56,19.17l-1.41,1.41-1,1-1.41,1.41,1,1-1.59,1.59-1.41,1.41,1.41,1.41,1,1,1.41,1.41,1.41-1.41,1.59-1.59,1,1,1.41-1.41.65-.65c.47-.47.73-1.1.73-1.77s-.26-1.3-.73-1.77l-2.65-2.65-1.41-1.41h0Z"/>
  </g>
  <g>
    <path class="st0" d="M53.59,48l1-1-3-3,2.41-2.41,3,3,1-1,1.35,1.35c.58.58.58,1.54,0,2.12l-3.35,3.35-2.41-2.41Z"/>
    <path class="st0" d="M54,43l3,3,1-1,.65.65c.2.2.2.51,0,.71l-2.65,2.65-1-1,1-1-3-3,1-1M54,40.17l-1.41,1.41-1,1-1.41,1.41,1.41,1.41,1.59,1.59-1,1,1.41,1.41,1,1,1.41,1.41,1.41-1.41,2.65-2.65c.47-.47.73-1.1.73-1.77s-.26-1.3-.73-1.77l-.65-.65-1.41-1.41-1,1-1.59-1.59-1.41-1.41h0Z"/>
  </g>
  <g>
    <path class="st0" d="M56.58,52.06c-.69,0-1.3-.38-1.61-1-.35-.69-.21-1.53.34-2.08l1.95-1.95c.77-.77,1.13-1.83,1-2.91l-.45-3.58c-.21-1.67-.31-3.36-.31-5.04s.11-3.37.31-5.04l.45-3.58c.13-1.08-.23-2.14-1-2.91l-1.87-1.87c-.6-.6-.75-1.51-.37-2.27.34-.67,1.01-1.09,1.76-1.09.16,0,.32.02.48.06l3.24.81v30.7l-3.11,1.56c-.25.13-.52.19-.8.19h0Z"/>
    <path class="st0" d="M56.79,19.24c.12,0,.24.01.36.04l2.86.71v30l-2.84,1.42c-.19.09-.38.14-.58.14-.48,0-.94-.26-1.16-.72-.25-.5-.15-1.1.24-1.5l1.95-1.95c.87-.87,1.29-2.1,1.14-3.32l-.45-3.58c-.21-1.65-.31-3.32-.31-4.98h0c0-1.66.1-3.33.31-4.98l.45-3.58c.15-1.22-.27-2.45-1.14-3.32l-1.87-1.87c-.45-.45-.56-1.13-.28-1.69h0c.25-.51.77-.81,1.31-.81M56.79,18.24c-.94,0-1.79.52-2.21,1.36-.48.95-.29,2.1.46,2.85l1.87,1.87c.66.66.97,1.57.86,2.49l-.45,3.58c-.21,1.69-.32,3.4-.32,5.1s.11,3.42.32,5.1l.45,3.58c.12.93-.2,1.83-.86,2.49l-1.95,1.95c-.7.7-.87,1.77-.43,2.65.39.78,1.18,1.27,2.06,1.27.35,0,.71-.08,1.03-.24l2.84-1.42.55-.28v-31.4l-.76-.19-2.86-.71c-.2-.05-.4-.07-.6-.07h0Z"/>
  </g>
  <g>
    <path class="st1" d="M52.29,27l3-3-1-1,1.71-1.71,3,3c.39.39.39,1.02,0,1.41l-1,1-1-1-3,3-1.71-1.71Z"/>
    <path class="st1" d="M56,22l2.65,2.65c.2.2.2.51,0,.71l-.65.65-1-1-3,3-1-1,3-3-1-1,1-1M56,20.59l-.71.71-1,1-.71.71.71.71.29.29-2.29,2.29-.71.71.71.71,1,1,.71.71.71-.71,2.29-2.29.29.29.71.71.71-.71.65-.65c.28-.28.44-.66.44-1.06s-.16-.78-.44-1.06l-2.65-2.65-.71-.71h0Z"/>
  </g>
  <g>
    <path class="st1" d="M54.29,48l1-1-3-3,1.71-1.71,3,3,1-1,1,1c.39.39.39,1.02,0,1.41l-3,3-1.71-1.71Z"/>
    <path class="st1" d="M54,43l3,3,1-1,.65.65c.2.2.2.51,0,.71l-2.65,2.65-1-1,1-1-3-3,1-1M54,41.59l-.71.71-1,1-.71.71.71.71,2.29,2.29-.29.29-.71.71.71.71,1,1,.71.71.71-.71,2.65-2.65c.28-.28.44-.66.44-1.06s-.16-.78-.44-1.06l-.65-.65-.71-.71-.71.71-.29.29-2.29-2.29-.71-.71h0Z"/>
  </g>
  <path class="st0" d="M57.16,51.42l2.84-1.42v-30l-2.86-.71c-.67-.17-1.36.15-1.67.77h0c-.28.57-.17,1.25.28,1.69l1.87,1.87c.87.87,1.29,2.1,1.14,3.32l-.45,3.58c-.21,1.65-.31,3.32-.31,4.98h0c0,1.66.1,3.33.31,4.98l.45,3.58c.15,1.22-.27,2.45-1.14,3.32l-1.95,1.95c-.4.4-.49,1-.24,1.5h0c.32.64,1.1.9,1.74.58Z"/>
</svg>