<?xml version="1.0" encoding="UTF-8"?>
<svg id="Layer_1" xmlns="http://www.w3.org/2000/svg" version="1.1" viewBox="0 0 54 54">
  <!-- Generator: Adobe Illustrator 29.8.1, SVG Export Plug-In . SVG Version: 2.1.1 Build 2)  -->
  <defs>
    <style>
      .st0 {
        fill: #5c6670;
      }

      .st1 {
        fill: #c8c9c9;
      }

      .st2 {
        fill: #dadbdc;
      }

      .st3 {
        fill: #2d3740;
      }

      .st4 {
        fill: #333e48;
      }

      .st5 {
        fill: #7d868c;
      }
    </style>
  </defs>
  <g>
    <g>
      <rect class="st0" x="16.17" y="39.35" width="2.65" height="4.9"/>
      <rect class="st3" x="16.17" y="44.24" width="2.65" height="1.05"/>
    </g>
    <path class="st1" d="M13.67,32.34c0-2.11,1.71-3.82,3.82-3.82s3.82,1.71,3.82,3.82v4.52c0,2.11-1.71,3.82-3.82,3.82s-3.82-1.71-3.82-3.82v-4.52Z"/>
  </g>
  <g>
    <g>
      <rect class="st0" x="35.05" y="39.35" width="2.65" height="4.9"/>
      <rect class="st3" x="35.05" y="44.24" width="2.65" height="1.05"/>
    </g>
    <path class="st1" d="M32.56,32.34c0-2.11,1.71-3.82,3.82-3.82s3.82,1.71,3.82,3.82v4.52c0,2.11-1.71,3.82-3.82,3.82s-3.82-1.71-3.82-3.82v-4.52Z"/>
  </g>
  <g>
    <g>
      <rect class="st5" x="11.36" y="39.35" width="2.65" height="4.9"/>
      <rect class="st4" x="11.36" y="44.24" width="2.65" height="1.05"/>
    </g>
    <path class="st2" d="M8.87,32.34c0-2.11,1.71-3.82,3.82-3.82s3.82,1.71,3.82,3.82v4.52c0,2.11-1.71,3.82-3.82,3.82s-3.82-1.71-3.82-3.82v-4.52Z"/>
  </g>
  <g>
    <g>
      <rect class="st5" x="30.25" y="39.35" width="2.65" height="4.9"/>
      <rect class="st4" x="30.25" y="44.24" width="2.65" height="1.05"/>
    </g>
    <path class="st2" d="M27.75,32.34c0-2.11,1.71-3.82,3.82-3.82s3.82,1.71,3.82,3.82v4.52c0,2.11-1.71,3.82-3.82,3.82s-3.82-1.71-3.82-3.82v-4.52Z"/>
  </g>
  <path class="st2" d="M45.07,27.1c0-.98-.42-1.86-1.08-2.49-.1-4.48-2.51-8.4-6.08-10.61.03-.17.04-.34.04-.51,0-1.88-1.52-3.4-3.4-3.4-.3,0-.58.04-.85.11-.62-.7-1.53-1.15-2.54-1.15-1.08,0-2.04.51-2.67,1.29-1.03-1.02-2.45-1.65-4.01-1.65-1.25,0-2.4.4-3.34,1.08-.62-.67-1.5-1.08-2.49-1.08-1.52,0-2.81,1-3.24,2.38-.81-.44-1.73-.69-2.71-.69-2.09,0-3.91,1.12-4.9,2.79-.32-.2-.7-.32-1.11-.32-.25,0-.49.05-.72.13-.3-.44-.8-.72-1.37-.72-.52,0-.98.24-1.28.61-.07,0-.15-.01-.22-.01-1.15,0-2.08.93-2.08,2.08s.93,2.08,2.08,2.08c.31,0,.6-.07.87-.19-.24.46-.38.97-.38,1.52-1.26,1.05-2.06,2.63-2.06,4.39,0,1.51.59,2.88,1.54,3.9-.29.68-.45,1.44-.45,2.22,0,2.92,2.2,5.33,5.03,5.66,2.25,1.96,5.19,3.15,8.41,3.15h.12c.42.19.89.29,1.38.29s.96-.1,1.38-.29h1.09c1.09,1.02,2.56,1.65,4.18,1.65s3.08-.63,4.18-1.65h2.84c2,0,3.89-.46,5.57-1.27.4.09.82.14,1.24.14,3.15,0,5.71-2.55,5.71-5.71,0-.34-.03-.66-.09-.98.87-.62,1.44-1.63,1.44-2.78Z"/>
  <g>
    <path class="st0" d="M47.9,12.29c2.82,0,5.1,2.28,5.1,5.1s-2.28,5.1-5.1,5.1h-6.04c-2.82,0-5.1-2.28-5.1-5.1s2.28-5.1,5.1-5.1c0,0,6.04,0,6.04,0Z"/>
    <circle class="st4" cx="45.55" cy="16.11" r=".79"/>
    <path class="st2" d="M43.91,9.55c-.67,0-1.28.27-1.72.71-.62-.83-1.61-1.37-2.73-1.37-1.88,0-3.4,1.52-3.4,3.4,0,.02,0,.04,0,.06-2.78.38-4.92,2.77-4.92,5.65,0,3.15,2.55,5.71,5.71,5.71.48,0,.94-.06,1.39-.17.39.82,1.22,1.39,2.19,1.39,1.34,0,2.43-1.09,2.43-2.43,0-.77-.36-1.46-.92-1.9.4-.78.62-1.66.62-2.59,0-1.14-.34-2.21-.92-3.1.33-.27.6-.6.8-.98.41.31.91.49,1.46.49,1.34,0,2.43-1.09,2.43-2.43s-1.09-2.43-2.43-2.43Z"/>
    <path class="st0" d="M39.61,16.65l.53,2.43c.13.6-.25,1.2-.86,1.33-.6.13-1.2-.25-1.33-.86-.03-.16-.03-.32,0-.47l.53-2.43c.07-.31.38-.51.69-.44.23.05.4.23.44.44Z"/>
  </g>
</svg>